<?xml version="1.0" encoding="UTF-8"?>
<svg width="102px" height="104px" viewBox="0 0 102 104" version="1.1" xmlns="http://www.w3.org/2000/svg" xmlns:xlink="http://www.w3.org/1999/xlink">
    <!-- Generator: Sketch 58 (84663) - https://sketch.com -->
    <title>Fill 1</title>
    <desc>Created with Sketch.</desc>
    <g id="✨-Symbols" stroke="none" stroke-width="1" fill="none" fill-rule="evenodd">
        <g id="03-Organisms-/-Desktop-/-LpNavMenu-/-Default" transform="translate(-45.000000, -119.000000)" fill="#FFFFFF">
            <g id="Group-3" transform="translate(96.000000, 171.000000) rotate(-90.000000) translate(-96.000000, -171.000000) translate(44.000000, 120.000000)">
                <path d="M2.42013868,91.9385248 C9.25483721,91.2919397 15.6589688,94.30003 18.9242237,100.461692 C19.9705159,102.433777 22.8742709,102.009088 23.1828683,99.7445705 C23.8030022,95.1964321 25.5958064,91.2713665 28.4334333,88.0134593 C29.7266035,86.6938378 31.1035359,85.4403444 32.5745171,84.2485705 C34.8243393,82.4219676 32.0249197,79.1434872 29.7177865,80.8157914 C27.9955189,82.0619372 26.4716353,83.4623818 25.1358493,84.9906739 C23.8412095,86.3176429 22.6288624,87.7136789 21.4811739,89.1773125 C17.5649254,74.8819035 16.7552245,59.8458606 19.0623577,45.1860127 C20.3628755,36.9244184 22.6847039,28.8332874 25.9470197,21.1330466 C29.1799452,13.5048118 34.5495407,1.67083471 44.8228964,4.2380715 C53.7002161,6.45850356 57.6796535,15.6870365 61.8339629,22.8435581 C64.2057546,26.9288004 67.7781374,33.7399867 73.5709521,32.448286 C79.4210779,31.1433597 84.4174174,22.8332715 86.6496055,17.9397978 C87.5048613,16.0661705 87.9868611,14.0926164 88.7480681,12.1940074 C90.8656344,6.92139972 94.3748281,11.5386052 95.9633702,14.2366285 C98.5555887,18.6392853 100.113271,23.3784603 101.131643,28.3674523 C101.396155,29.6635615 103.310928,29.3387994 103.152221,28.0309341 C102.324886,21.2373819 99.7591187,13.0360376 94.8009865,8.04704561 C91.6768048,4.90229075 88.5261719,6.45262551 86.7260201,10.121996 C84.9449721,13.7575678 84.1367407,17.5224565 81.8854489,20.9978515 C80.7715591,22.7171801 79.4783888,24.3659721 78.0603101,25.8413618 C75.7972622,28.1925804 71.6282578,30.5364514 68.9919539,27.6606172 C63.5665171,21.7414244 61.7957556,13.1095131 56.3776662,7.04483869 C47.5179807,-2.86995619 34.8022967,-2.35121859 27.3577508,8.80531361 C19.8470769,20.0588336 15.9367065,34.4806206 14.2070914,47.7679446 C12.270275,62.6629144 13.5428721,77.7224694 17.7030595,92.1089881 C13.3371405,88.483703 7.62074029,86.7026549 1.72065115,87.7415996 C-1.00823192,88.2221299 -0.279354158,92.1942198 2.42013868,91.9385248" id="Fill-1"></path>
            </g>
        </g>
    </g>
</svg>