<svg width="48" height="44" xmlns="http://www.w3.org/2000/svg">
  <title>
    Burger_Menu
  </title>
  <g fill-rule="nonzero" fill="none">
    <path d="M47.0625 39.1526c0-1.9782-1.604-3.5826-3.583-3.5826-.0538 0-.1077.0011-.1615.0033 1.1752-.9324 1.6802-2.5448 1.139-4.032-.6768-1.8596-2.7328-2.8183-4.5924-2.1412a2.9783 2.9783 0 00-.1505.0586c.7855-1.2785.7083-2.9663-.309-4.1789-1.272-1.5157-3.5318-1.7131-5.0476-.4412a3.4043 3.4043 0 00-.1212.1065c.3007-1.4696-.3493-3.0296-1.7197-3.8207a3.5688 3.5688 0 00-2.5598-.3966 3.5922 3.5922 0 00-.8632 1.8494 3.5783 3.5783 0 00-.0776-.1414 3.5789 3.5789 0 00-.6965-.8638 3.5715 3.5715 0 00-.697.8638 3.578 3.578 0 00-.0776.1414 3.5915 3.5915 0 00-.8628-1.8494c-.8426-.1853-1.767-.0908-2.5602.3966C11.0398 29.164 9.5764 37.174 9.5764 39.1526c0 1.979 1.604 3.583 3.5827 3.583h30.3208c1.9786 0 3.5826-1.604 3.5826-3.583z" fill="#F9BA06"/>
    <path d="M28.716 4.4014c.0272.0469.0528.0941.0777.1417a3.5868 3.5868 0 01.7683-1.738 3.5714 3.5714 0 00-1.3927.876c.2073.2113.3919.4519.5468.7203zM27.545 22.5772a3.6017 3.6017 0 01.6244-.862 3.5757 3.5757 0 00-1.3928-.876 3.5898 3.5898 0 01.7683 1.738zM42.8708 24.7012h.609a3.5628 3.5628 0 002.068-.658c-.9166-.1418-1.8834.071-2.677.658zM28.716 22.4358c.0272.047.0528.0942.0777.1414a3.587 3.587 0 01.7683-1.7377 3.5714 3.5714 0 00-1.3927.876c.2073.2113.3919.452.5468.7203zM27.6226 4.4014c.1549-.2684.3394-.509.5467-.7203a3.5714 3.5714 0 00-1.3927-.876 3.5868 3.5868 0 01.7683 1.738 3.348 3.348 0 01.0777-.1417zM10.7904 24.0431a3.5648 3.5648 0 002.0684.6581h.6093c-.794-.587-1.7607-.7998-2.6777-.658z" fill="#F4D99D"/>
    <path d="M43.4795 17.5356c-.0538 0-.1077.0014-.1615.0036 1.1752-.9323 1.6802-2.5451 1.139-4.0323-.6768-1.8593-2.7328-2.818-4.5924-2.1412a3.8864 3.8864 0 00-.1505.0585c.7855-1.278.7083-2.9663-.309-4.1784-1.272-1.5158-3.5318-1.7135-5.0476-.4417a3.4043 3.4043 0 00-.1212.1066c.3007-1.4696-.3493-3.0297-1.7197-3.8207-.9338-.539-2.009-.6094-2.9546-.2849a3.587 3.587 0 00-.7683 1.7377 3.6017 3.6017 0 00-.6244-.862 3.5897 3.5897 0 00-.5471.7206 4.1245 4.1245 0 00-.0776.1414 3.5836 3.5836 0 00-.7684-1.7377c-.9455-.3245-1.995-.2073-2.9545.285C13.4677 8.3996 9.276 19.1395 9.276 21.1185c0 1.2081.5984 2.2756 1.5143 2.9245.917-.1417 1.8838.071 2.6774.6581h.2552c-.186-1.3952.4655-2.8293 1.7604-3.5768 1.7135-.9895 3.905-.4024 4.894 1.3114a3.578 3.578 0 01.0777.1414c.22-1.4835 1.3641-2.7272 2.9227-3.0022A3.643 3.643 0 0124 19.52c.205.0004.413.0184.6222.055.8815.1556 1.63.6211 2.154 1.2645a3.5701 3.5701 0 011.3931.876 3.5714 3.5714 0 011.3927-.876c.9456-.3244 2.0208-.2541 2.9546.285 1.295.7474 1.9464 2.1815 1.7604 3.5767h.2552c1.281-.9481 3.0147-.9206 4.258 0h4.0806c.7936-.587 1.7604-.7998 2.677-.658.9163-.649 1.5147-1.7165 1.5147-2.9246 0-1.979-1.604-3.583-3.583-3.583z" fill="#F9BA06"/>
    <path d="M23.9993.5481c.263 0 .5266.0235.7855.0693a4.5167 4.5167 0 013.0674 2.0822c.4918-.405 1.0693-.7035 1.7032-.8734 1.1664-.3124 2.3848-.152 3.4303.452a4.5138 4.5138 0 012.1702 3.0084c1.7263-.6076 3.7247-.125 4.9676 1.3564a4.5165 4.5165 0 011.0108 3.5669c.6372.0059 1.2715.1483 1.8662.4255 1.0946.5105 1.9244 1.4162 2.3375 2.551a4.5157 4.5157 0 01-.271 3.6992c1.712.6441 2.933 2.2987 2.933 4.233 0 2.4212-1.9135 4.4039-4.3077 4.5152l-.2124.005h-2.739a4.5136 4.5136 0 01.393 2.607c1.8757.0183 3.5614 1.2092 4.2041 2.975a4.5172 4.5172 0 01-.271 3.6992C46.7787 35.564 48 37.2183 48 39.1526c0 2.4216-1.9135 4.4043-4.308 4.5156l-.2125.005H4.522C2.0277 43.6731 0 41.6453 0 39.1525c0-1.9343 1.2213-3.5885 2.933-4.2326a4.5172 4.5172 0 01-.271-3.6991c.6427-1.7659 2.3284-2.9568 4.204-2.9751A4.5116 4.5116 0 017.15 25.886l.1091-.2473H4.522C2.0277 25.6387 0 23.611 0 21.1186c0-1.9343 1.2213-3.5889 2.9333-4.233a4.5172 4.5172 0 01-.271-3.6991c.4131-1.135 1.243-2.0406 2.3376-2.551.5947-.2773 1.229-.4197 1.8662-.4256A4.516 4.516 0 017.8768 6.643c1.2433-1.4817 3.2425-1.964 4.9677-1.3572a4.5156 4.5156 0 012.1701-3.0077c1.0456-.6039 2.264-.7643 3.4303-.4519.634.17 1.2115.4684 1.7033.8738a4.5169 4.5169 0 013.067-2.0826 4.5247 4.5247 0 01.784-.0693zm0 19.9095c-.1513 0-.3062.0139-.4589.0406a2.6421 2.6421 0 00-2.1577 2.2167.9375.9375 0 01-.772.7866.937.937 0 01-.987-.491 2.2946 2.2946 0 00-.0578-.1055c-.4713-.817-1.3506-1.3239-2.2943-1.3239-.461 0-.917.1227-1.3195.3549a2.642 2.642 0 00-1.2696 2.8213.9379.9379 0 01-1.5531.8781 2.6477 2.6477 0 00-1.7882-.6976 2.641 2.641 0 00-2.028.9448 2.6424 2.6424 0 00-.2286 3.0853.9372.9372 0 01-.0864 1.1001.9378.9378 0 01-1.0738.2557 2.6242 2.6242 0 00-.1098-.0425 2.6274 2.6274 0 00-.9046-.1608c-1.1078 0-2.1068.6998-2.4858 1.7413a2.642 2.642 0 00.8404 2.9773.9375.9375 0 01.296 1.061.936.936 0 01-.9174.61 3.4094 3.4094 0 00-.1227-.0025c-1.459 0-2.6455 1.1865-2.6455 2.6451 0 1.403 1.097 2.5539 2.4784 2.6403l.1671.0052h38.959c1.459 0 2.6455-1.1865 2.6455-2.6455 0-1.4586-1.1865-2.6451-2.6455-2.6451-.041 0-.082.0007-.1227.0026a.9374.9374 0 01-.6214-1.671 2.6415 2.6415 0 00.8404-2.9774c-.379-1.0415-1.378-1.7413-2.4858-1.7413a2.6357 2.6357 0 00-1.0144.2033.938.938 0 01-1.0738-.2557.9377.9377 0 01-.0864-1.1 2.6418 2.6418 0 00-.2285-3.0854 2.6404 2.6404 0 00-2.028-.9448 2.6467 2.6467 0 00-1.7883.6976.937.937 0 01-1.096.1256.937.937 0 01-.4567-1.0037 2.642 2.642 0 00-1.27-2.821 2.643 2.643 0 00-1.3191-.3552c-.9441 0-1.8234.5072-2.2944 1.3235a2.5267 2.5267 0 00-.0582.1058.938.938 0 01-.987.4915.9379.9379 0 01-.7715-.787 2.6421 2.6421 0 00-2.1581-2.2167 2.678 2.678 0 00-.4603-.0406zm4.49 6.9558c4.9692 1.456 8.9375 5.2496 10.6158 10.1484.1677.4896-.0934 1.0228-.5834 1.191a.9377.9377 0 01-1.1906-.5834c-1.4809-4.3235-4.9833-7.6718-9.369-8.9568-.497-.1454-.7816-.6662-.6362-1.1631.1458-.497.6669-.7819 1.1635-.6361zm-10.1487 1.3681a.9374.9374 0 01-.4395 1.251 14.0553 14.0553 0 00-4.002 2.8777.9345.9345 0 01-.672.2838.9344.9344 0 01-.6536-.2655c-.371-.361-.3794-.9547-.0183-1.3257a15.9239 15.9239 0 014.5344-3.2607c.4666-.2238 1.0269-.0271 1.251.4394zm2.6744-.8074c.1258.4638-.12.9412-.5557 1.1152l-.1038.0347-.0264.007a.9355.9355 0 01-.2457.0329c-.4131 0-.7914-.275-.9042-.6929a.9373.9373 0 01.5556-1.1153l.104-.0346.0263-.007a.9371.9371 0 011.15.66zm2.9843-25.551c-.1513 0-.3062.014-.4589.0407a2.6417 2.6417 0 00-2.1577 2.2167.9379.9379 0 01-.772.787.9383.9383 0 01-.987-.4915 2.2946 2.2946 0 00-.0578-.1055c-.3534-.6123-.924-1.0503-1.6065-1.233-.6823-.1831-1.3953-.089-2.0073.2644a2.6412 2.6412 0 00-1.2696 2.821.9376.9376 0 01-1.5527.8781 3.8734 3.8734 0 00-.0916-.0802c-1.1158-.936-2.7876-.7895-3.725.3274a2.6424 2.6424 0 00-.2286 3.0853.9378.9378 0 01-.0864 1.1005.937.937 0 01-1.0738.2552 2.5926 2.5926 0 00-.109-.0424c-.6648-.2421-1.3833-.2106-2.0234.0882-.6405.2985-1.1261.8287-1.3678 1.4927a2.6415 2.6415 0 00.8404 2.977.9376.9376 0 01-.621 1.671 3.448 3.448 0 00-.123-.0026c-1.459 0-2.6456 1.1869-2.6456 2.6455 0 1.4025 1.097 2.5535 2.4784 2.64l.1671.0051h4.403a4.5125 4.5125 0 012.4184-.7009c.515 0 1.0232.0886 1.503.2582a4.5138 4.5138 0 012.1701-3.0084 4.5174 4.5174 0 012.257-.6065c1.062 0 2.0757.3761 2.8744 1.0316a4.5159 4.5159 0 013.0692-2.086 4.5577 4.5577 0 01.784-.0691c.2626.0003.5263.0234.7856.0692a4.5147 4.5147 0 013.0692 2.086c.7983-.6556 1.8127-1.0317 2.8744-1.0317.7895 0 1.5703.2098 2.257.6065a4.5152 4.5152 0 012.1705 3.0084 4.514 4.514 0 013.703.3131l.218.1296h4.401c1.4602 0 2.647-1.1865 2.647-2.6451 0-1.4586-1.1868-2.6455-2.6454-2.6455-.0414 0-.0824.001-.123.0025-.404.0162-.776-.2292-.9174-.6097a.9376.9376 0 01.2962-1.0613 2.6422 2.6422 0 00.8405-2.977c-.2417-.6639-.7277-1.1941-1.3678-1.4926-.6405-.2984-1.3587-.33-2.023-.0882a2.8372 2.8372 0 00-.1098.0424.9371.9371 0 01-1.0734-.2552.9378.9378 0 01-.0868-1.1005 2.6424 2.6424 0 00-.2281-3.0853c-.938-1.1173-2.6097-1.2634-3.727-.326a2.7094 2.7094 0 00-.0897.0788.9377.9377 0 01-1.096.1256.937.937 0 01-.4567-1.0038 2.6414 2.6414 0 00-1.27-2.8209c-.6116-.3534-1.325-.4471-2.0073-.2644-.6826.1827-1.2528.6207-1.6062 1.2327a2.5267 2.5267 0 00-.0582.1058.9372.9372 0 01-1.7585-.2955 2.6421 2.6421 0 00-2.1581-2.2167 2.642 2.642 0 00-.4603-.0407zM19.5106 9.379c.4966-.145 1.0177.1391 1.1635.636.1454.497-.1392 1.0178-.6361 1.1635-4.3858 1.285-7.8882 4.6333-9.3688 8.9564a.9382.9382 0 01-.887.6343.9387.9387 0 01-.304-.0509c-.4896-.168-.7507-.701-.583-1.1909 1.678-4.8984 5.6463-8.6924 10.6154-10.1484zm11.3998.9287a15.9117 15.9117 0 014.5344 3.2607c.3611.371.3527.9646-.0183 1.3257a.935.935 0 01-.6537.2655.9345.9345 0 01-.672-.2838 14.0431 14.0431 0 00-4.002-2.8777c-.4665-.2241-.6635-.784-.4394-1.251.2241-.4665.784-.6636 1.251-.4394zm-2.7755-1.028c.0165.0044.03.008.0436.0121.4973.145.7826.6654.6375 1.1624a.938.938 0 01-.8994.6752.9322.9322 0 01-.1708-.0158l-.0855-.02-.0158-.004a.9375.9375 0 11.4904-1.8098z" fill="#FCFCFC"/>
  </g>
</svg>
