<?xml version="1.0" encoding="UTF-8"?>
<svg width="48px" height="44px" viewBox="0 0 48 44" version="1.1" xmlns="http://www.w3.org/2000/svg" xmlns:xlink="http://www.w3.org/1999/xlink">
    <!-- Generator: Sketch 58 (84663) - https://sketch.com -->
    <title>Burger Menu</title>
    <desc>Created with Sketch.</desc>
    <g id="✨-Symbols" stroke="none" stroke-width="1" fill="none" fill-rule="evenodd">
        <g id="03-Organisms-/-Mobile-/-Navigation" transform="translate(-225.000000, -21.000000)">
            <g id="01-Atoms-/-Media-/-Icons-/-Burger-Menu" transform="translate(225.000000, 19.148148)">
                <g id="pasty" transform="translate(0.000000, 2.400000)">
                    <g id="Group" transform="translate(9.187500, 1.968750)">
                        <path d="M37.875,36.6357422 C37.875,34.6574708 36.2709961,33.0531006 34.2919922,33.0531006 C34.2381592,33.0531006 34.1843261,33.0541992 34.1304932,33.0563964 C35.3056641,32.1240234 35.810669,30.5115967 35.2694092,29.0244141 C34.5926513,27.1647949 32.5367432,26.2060547 30.677124,26.8831787 C30.6262207,26.9014893 30.5760498,26.9208984 30.5266114,26.9417724 C31.3121338,25.6633301 31.2348633,23.9754638 30.2175292,22.7629395 C28.9456787,21.2471924 26.6857911,21.0498047 25.170044,22.3216553 C25.1286621,22.3564453 25.0880127,22.3919678 25.0488281,22.4282227 C25.3494873,20.9586182 24.6994629,19.3985596 23.3291016,18.607544 C22.5230713,18.1420898 21.6115723,18.0256348 20.7692871,18.2109375 C20.3144531,18.7250977 20.0093994,19.366333 19.9061279,20.0603027 C19.8815917,20.0130615 19.8555908,19.9658203 19.8284912,19.9189453 C19.6373291,19.5875244 19.4007568,19.2989502 19.131958,19.0550537 C18.862793,19.2989502 18.6262208,19.5875244 18.4350586,19.9189453 C18.4079589,19.9658203 18.381958,20.0130615 18.3574219,20.0603027 C18.2545166,19.3666992 17.9494629,18.7254638 17.4946289,18.2109375 C16.6519776,18.0256348 15.7276612,18.1201172 14.9344482,18.607544 C1.85229488,26.6469727 0.388916063,34.6571045 0.388916063,36.6357422 C0.388916063,38.6147461 1.99291988,40.21875 3.97155759,40.21875 L34.2923584,40.21875 C36.2709961,40.21875 37.875,38.6147461 37.875,36.6357422 L37.875,36.6357422 Z" id="Path" fill="#F9BA06"></path>
                        <path d="M19.5285645,1.88452144 C19.5556641,1.93139644 19.5812989,1.97863772 19.6062011,2.02624509 C19.7017823,1.38134766 19.9720459,0.782226562 20.3745117,0.288208031 C19.8566895,0.465820313 19.3773193,0.760986375 18.9818115,1.16418459 C19.1890869,1.37548828 19.3736573,1.61608884 19.5285645,1.88452144 L19.5285645,1.88452144 Z" id="Path" fill="#F4D99D" fill-rule="nonzero"></path>
                        <path d="M18.3574219,20.0603027 C18.381958,20.0130615 18.4079589,19.9658203 18.4350586,19.9189453 C18.5899658,19.6505127 18.7745362,19.4099121 18.9818115,19.1982422 C18.5863037,18.7954102 18.1069336,18.4998779 17.5891114,18.3222656 C17.9915771,18.8166504 18.2618408,19.4157714 18.3574219,20.0603027 Z" id="Path" fill="#F4D99D" fill-rule="nonzero"></path>
                        <path d="M33.6833496,22.1843261 L34.2923584,22.1843261 C35.0628662,22.1843261 35.7762451,21.9404297 36.3603516,21.5262451 C35.4437256,21.3845214 34.4769287,21.5972901 33.6833496,22.1843261 Z" id="Path" fill="#F4D99D" fill-rule="nonzero"></path>
                        <path d="M19.5285645,19.9189453 C19.5556641,19.9658203 19.5812989,20.0130615 19.6062011,20.0603027 C19.7017823,19.4157714 19.9720459,18.8166504 20.3745117,18.3226318 C19.8566895,18.5002442 19.3773193,18.7954102 18.9818115,19.1986084 C19.1890869,19.4099121 19.3736573,19.6505127 19.5285645,19.9189453 L19.5285645,19.9189453 Z" id="Path" fill="#F4D99D" fill-rule="nonzero"></path>
                        <path d="M18.4350586,1.88452144 C18.5899658,1.61608884 18.7745362,1.37548828 18.9818115,1.16418459 C18.5863037,0.760986375 18.1069336,0.465820313 17.5891114,0.288208031 C17.9915771,0.782226562 18.2618408,1.38134766 18.3574219,2.02624509 C18.381958,1.97863772 18.4079589,1.93139644 18.4350586,1.88452144 Z" id="Path" fill="#F4D99D" fill-rule="nonzero"></path>
                        <path d="M1.60290525,21.5262451 C2.18737791,21.9404297 2.90075681,22.1843261 3.67126463,22.1843261 L4.28063963,22.1843261 C3.48669431,21.5972901 2.51989744,21.3845214 1.60290525,21.5262451 Z" id="Path" fill="#F4D99D" fill-rule="nonzero"></path>
                        <path d="M34.2919922,15.0186768 C34.2381592,15.0186768 34.1843261,15.0201416 34.1304932,15.0223388 C35.3056641,14.0899658 35.810669,12.4771729 35.2694092,10.9899902 C34.5926513,9.13073728 32.5367432,8.17199709 30.677124,8.84875491 C30.6262208,8.86743169 30.5760498,8.88684084 30.5266114,8.90734866 C31.3121338,7.62927244 31.2348633,5.94104006 30.2175292,4.72888181 C28.9456787,3.21313481 26.6857911,3.01538081 25.170044,4.28723147 C25.1286621,4.32202144 25.0880127,4.35754397 25.0488281,4.39379888 C25.3494873,2.92419431 24.6994629,1.36413572 23.3291016,0.573120094 C22.3952636,0.0340575938 21.3200683,-0.0362549062 20.3745117,0.288208031 C19.9720459,0.782226563 19.7017823,1.38134766 19.6062011,2.02587891 C19.5812989,1.97863772 19.5556641,1.93139644 19.5285645,1.88452144 C19.3736573,1.61608884 19.1890869,1.37548828 18.9818115,1.16381831 C18.7741699,1.37548828 18.5895996,1.61608884 18.4346924,1.88452144 C18.4075928,1.93139644 18.381958,1.97863772 18.3570557,2.02587891 C18.2614746,1.38134766 17.9915771,0.782226563 17.5887451,0.288208031 C16.6431885,-0.0362549062 15.5936279,0.0809325938 14.6341552,0.573120094 C4.28027344,5.8828125 0.088623,16.6226807 0.088623,18.6016846 C0.088623,19.8098145 0.687011719,20.8773193 1.60290525,21.5262451 C2.51989744,21.3845214 3.48669431,21.5972901 4.28027344,22.1843261 L4.53552244,22.1843261 C4.34948728,20.7890625 5.00097656,19.3549805 6.29589844,18.607544 C8.00939944,17.618042 10.2008057,18.2050781 11.1899414,19.9189453 C11.2170411,19.9658203 11.243042,20.0130615 11.2675781,20.0603027 C11.4876709,18.5767823 12.6317138,17.3331299 14.1903076,17.0581055 C14.3994141,17.0214844 14.6074219,17.0035401 14.8125,17.0031739 C15.0175781,17.0035401 15.2255859,17.0214844 15.4346924,17.0581055 C16.3161621,17.2137451 17.0646973,17.6791992 17.5887451,18.3226318 C18.1069336,18.5002442 18.5863037,18.7954102 18.9818115,19.1986084 C19.3773193,18.7954102 19.8566895,18.5002442 20.3745117,18.3226318 C21.3200683,17.998169 22.3952636,18.0684815 23.3291016,18.607544 C24.6240234,19.3549805 25.2755127,20.7890625 25.0894776,22.1843261 L25.3447266,22.1843261 C26.6257324,21.236206 28.359375,21.2636719 29.6026612,22.1843261 L33.6833496,22.1843261 C34.4769287,21.5972901 35.4437256,21.3845214 36.3603516,21.5262451 C37.2766114,20.8773193 37.875,19.8098145 37.875,18.6016846 C37.875,16.6226807 36.2709961,15.0186768 34.2919922,15.0186768 L34.2919922,15.0186768 Z" id="Path" fill="#F9BA06"></path>
                    </g>
                    <path d="M23.9992676,5.68434189e-14 C24.262207,5.68434189e-14 24.5258789,0.0234375 24.7847901,0.0692138438 C26.088501,0.299194313 27.1896973,1.07446294 27.8521729,2.15148928 C28.3439942,1.74645994 28.9215088,1.447998 29.5554199,1.27807613 C30.7218018,0.965698219 31.9401855,1.12609866 32.9857177,1.72998047 C34.1326904,2.39208984 34.9024658,3.49804688 35.1558838,4.73840334 C36.8822021,4.13085938 38.8806152,4.61352544 40.1235352,6.09484866 C40.973877,7.10888672 41.3195801,8.41076663 41.1342773,9.66174319 C41.7714844,9.66760256 42.4057617,9.81005859 43.0004883,10.0872803 C44.0950927,10.5977783 44.9249268,11.503418 45.3380127,12.6383057 C45.7910156,13.8823242 45.6694336,15.2248536 45.0670166,16.3374023 C46.7790527,16.9815674 48,18.6361084 48,20.5704346 C48,22.9916539 46.0865039,24.9743276 43.6923208,25.0856468 L43.4798584,25.0905761 L40.7409667,25.0905761 C41.130249,25.9057617 41.2650146,26.8139648 41.1339112,27.6976318 C43.0096435,27.7159424 44.6953125,28.9068604 45.3380127,30.6727295 C45.7906494,31.916748 45.6694336,33.2592773 45.0670166,34.3718261 C46.7786865,35.0159912 48,36.6701661 48,38.6044922 C48,41.0260673 46.0865039,43.0087512 43.6919851,43.1200706 L43.4794922,43.125 L4.52197266,43.125 C2.02770994,43.125 -2.84217094e-14,41.0972901 -2.84217094e-14,38.6044922 C-2.84217094e-14,36.6701661 1.2213135,35.0159912 2.93298337,34.3718261 C2.33056641,33.2592773 2.20935056,31.916748 2.66198728,30.6727295 C3.3046875,28.9068604 4.99035647,27.7159424 6.86608884,27.6976318 C6.74809572,26.9023315 6.84545657,26.087157 7.14989543,25.3378048 L7.25903325,25.0905761 L4.52197266,25.0905761 C2.02770994,25.0905761 -2.84217094e-14,23.0628662 -2.84217094e-14,20.5704346 C-2.84217094e-14,18.6361084 1.2213135,16.9815674 2.93334956,16.3374023 C2.33093259,15.2248536 2.20971675,13.8823242 2.66235356,12.6383057 C3.0754395,11.503418 3.90527344,10.5977783 4.99987791,10.0872803 C5.59460447,9.81005859 6.22888181,9.66760256 6.86608884,9.66174319 C6.68115234,8.41076663 7.026123,7.10852053 7.87683103,6.09484866 C9.12011719,4.61315916 11.1192627,4.13085938 12.8444824,4.73767088 C13.0982666,3.49804688 13.868042,2.39172366 15.0146484,1.72998047 C16.0601807,1.12609866 17.2785645,0.965698219 18.4449463,1.27807613 C19.0788574,1.447998 19.6563721,1.74645994 20.1481933,2.15185547 C20.810669,1.07446294 21.9122315,0.299194313 23.2152099,0.0692138438 C23.4744873,0.0234375 23.7385254,5.68434189e-14 23.9992676,5.68434189e-14 Z M23.9992676,19.9094239 C23.8480224,19.9094239 23.6931152,19.9233398 23.5404052,19.9500732 C22.4172364,20.1481933 21.5496826,21.0391846 21.3826904,22.166748 C21.322998,22.5684815 21.0113526,22.8859864 20.6107177,22.9533692 C20.210083,23.0211182 19.8116455,22.8226318 19.6237792,22.4622803 C19.6054687,22.427124 19.5864258,22.3916016 19.565918,22.3568115 C19.0946045,21.5397949 18.215332,21.0329589 17.2716065,21.0329589 C16.8105469,21.0329589 16.3546143,21.1556396 15.9521484,21.3878174 C14.9641114,21.958374 14.4536133,23.0921631 14.6824951,24.2091065 C14.763794,24.6071777 14.5792237,25.0129395 14.2254638,25.2128906 C13.8717041,25.413208 13.4289551,25.3623047 13.1293945,25.0872803 C13.1004638,25.0605469 13.0708008,25.0341797 13.0400391,25.0085449 C12.564331,24.609375 11.9608154,24.3896484 11.3411865,24.3896484 C10.5563964,24.3896484 9.81701662,24.7338867 9.31311037,25.3344727 C8.57958984,26.2086182 8.48803706,27.4486084 9.08459475,28.4197998 C9.29772947,28.7662354 9.26257322,29.2108154 8.99816897,29.5198974 C8.73376462,29.8289795 8.29980469,29.932251 7.9244385,29.7755127 C7.88854978,29.760498 7.8515625,29.746582 7.81457522,29.7330323 C7.52197266,29.6260987 7.21765134,29.5722656 6.91003416,29.5722656 C5.80224609,29.5722656 4.80322266,30.2720948 4.42419431,31.3135987 C4.0338135,32.3858643 4.37182612,33.5822754 5.26464844,34.2908935 C5.58251953,34.5432129 5.70190425,34.9713135 5.56054687,35.3518067 C5.4191895,35.7322998 5.05041506,35.9787598 4.6431885,35.9619141 C4.60253906,35.9604492 4.56152344,35.9593506 4.52050781,35.9593506 C3.06152344,35.9593506 1.875,37.145874 1.875,38.6044922 C1.875,40.0073618 2.97200762,41.1583259 4.35342461,41.2447864 L4.52050781,41.25 L43.4794922,41.25 C44.9384766,41.25 46.125,40.0634766 46.125,38.6044922 C46.125,37.145874 44.9384766,35.9593506 43.4794922,35.9593506 C43.4384766,35.9593506 43.3974609,35.960083 43.3568115,35.9619141 C42.9495849,35.9776612 42.5808105,35.7322998 42.4394531,35.3518067 C42.2980957,34.9716797 42.4174805,34.5432129 42.7353516,34.2908935 C43.6285401,33.5822754 43.9661865,32.3858643 43.5758057,31.3135987 C43.1967773,30.2720948 42.1977539,29.5722656 41.0899658,29.5722656 C40.7823487,29.5722656 40.4780273,29.6260987 40.1854248,29.7326661 C40.1484375,29.7462158 40.1118164,29.760498 40.0755615,29.7755127 C39.7001953,29.932251 39.2666016,29.8289795 39.001831,29.5198974 C38.7374268,29.2108154 38.7026367,28.7666016 38.9154052,28.4197998 C39.5123291,27.4486084 39.4204102,26.2086182 38.6868896,25.3344727 C38.1829834,24.7338867 37.4439697,24.3896484 36.6588135,24.3896484 C36.0391846,24.3896484 35.4360352,24.609375 34.9603271,25.0085449 C34.9299317,25.0341797 34.8999023,25.0605469 34.8706055,25.0872803 C34.5710449,25.3626709 34.1286621,25.413208 33.7745362,25.2128906 C33.4207763,25.0129395 33.236206,24.6071777 33.3178711,24.2091065 C33.5463867,23.0921631 33.0358886,21.958374 32.0478516,21.3881836 C31.645752,21.1560058 31.1894531,21.0329589 30.7287598,21.0329589 C29.784668,21.0329589 28.9053955,21.5401612 28.4344482,22.3564453 C28.4139404,22.3916016 28.3945312,22.427124 28.3762207,22.4622803 C28.1883545,22.8226318 27.7902832,23.020752 27.3892822,22.9537354 C26.9890136,22.8863526 26.6773682,22.5684815 26.6176758,22.166748 C26.4503174,21.0388183 25.5831299,20.1481933 24.4595947,19.9500732 C24.3068848,19.9233398 24.1519776,19.9094239 23.9992676,19.9094239 Z M28.4893799,26.8652344 C33.4584961,28.3212891 37.4267578,32.1148682 39.1051026,37.0136719 C39.2728271,37.5032959 39.0117188,38.036499 38.5217286,38.2045898 C38.4210205,38.2390136 38.3184815,38.255127 38.2177734,38.255127 C37.8284912,38.255127 37.4644776,38.010498 37.3311768,37.6212158 C35.8502198,33.2977295 32.3477783,29.9494629 27.9620362,28.6644287 C27.4650879,28.519043 27.180542,27.9982911 27.3259277,27.5013428 C27.4716797,27.0043945 27.9927979,26.7194824 28.4893799,26.8652344 Z M18.3405761,28.2333984 C18.5646973,28.7003174 18.368042,29.2602539 17.901123,29.484375 C16.4040527,30.2032471 15.0574951,31.1715088 13.8991699,32.3620605 C13.715332,32.5510254 13.4714355,32.645874 13.2271729,32.645874 C12.9916992,32.645874 12.7554932,32.5576172 12.5734864,32.3803711 C12.2025146,32.0192871 12.1940917,31.4256592 12.5551758,31.0546875 C13.8676758,29.7055664 15.3929443,28.6087646 17.0895996,27.7939453 C17.5561523,27.5701904 18.1164551,27.7668458 18.3405761,28.2333984 Z M21.0150146,27.4259033 C21.1408343,27.8897357 20.8950002,28.3671458 20.4593021,28.5411749 L20.3554687,28.5758057 L20.3291016,28.5827636 C20.2470703,28.6051026 20.1643067,28.6157227 20.083374,28.6157227 C19.6702881,28.6157227 19.2919922,28.3406982 19.1791992,27.9228516 C19.0533796,27.4590193 19.2988979,26.9816091 19.7348441,26.80758 L19.8387451,26.7729492 L19.8651123,26.7659912 C20.3649902,26.6304932 20.8798828,26.9260254 21.0150146,27.4259033 Z M23.9992676,1.875 C23.8480224,1.875 23.6931152,1.88891606 23.5404052,1.91564944 C22.4168701,2.11376953 21.5496826,3.00476072 21.3826904,4.13232422 C21.322998,4.53405759 21.0113526,4.85192869 20.6107177,4.9193115 C20.210083,4.98632813 19.8116455,4.78820803 19.6237792,4.42785647 C19.6054687,4.39270022 19.5864258,4.35717769 19.565918,4.32238772 C19.2125244,3.71008303 18.6419677,3.27209475 17.9593506,3.08935547 C17.2770996,2.90625 16.5640869,3.00036619 15.9521484,3.35375981 C14.9641114,3.92395022 14.4536133,5.05773928 14.6824951,6.17468259 C14.763794,6.57312009 14.5792237,6.97851563 14.2254638,7.17846675 C13.8713379,7.37878416 13.4289551,7.32788081 13.1297607,7.05285647 C13.0997315,7.02575681 13.0693359,6.99902344 13.038208,6.97265625 C11.9223633,6.03662109 10.2506104,6.18310547 9.31311037,7.30004888 C8.57958984,8.17419431 8.48803706,9.41418459 9.08459475,10.385376 C9.29772947,10.7321777 9.26257322,11.1763916 8.99816897,11.4858398 C8.73376462,11.7949219 8.30017087,11.8981933 7.9244385,11.7410888 C7.88854978,11.7260742 7.85229487,11.7121583 7.81530759,11.6986084 C7.15063481,11.456543 6.43212891,11.4880371 5.79199219,11.7868652 C5.15148928,12.0853271 4.66589353,12.6156006 4.42419431,13.2795411 C4.0338135,14.3514404 4.37182612,15.5482178 5.26464844,16.2564698 C5.58251953,16.5087891 5.70190425,16.9368896 5.56054687,17.317749 C5.4191895,17.6982422 5.04748537,17.9447021 4.64355469,17.9274902 C4.60253906,17.9260254 4.56152344,17.9249268 4.52050781,17.9249268 C3.06152344,17.9249268 1.875,19.1118164 1.875,20.5704346 C1.875,21.972952 2.97200762,23.1239026 4.35342461,23.2103625 L4.52050781,23.2155761 L8.92346194,23.2155761 C9.63867187,22.7625732 10.4732666,22.5146484 11.341919,22.5146484 C11.8568115,22.5146484 12.3651123,22.6032714 12.8448487,22.7728271 C13.0982666,21.5324708 13.868042,20.4265136 15.0150146,19.7644043 C15.7020263,19.3674317 16.4824219,19.1579589 17.2719727,19.1579589 C18.3339844,19.1579589 19.3476562,19.5340576 20.1463623,20.1895752 C20.8084717,19.1107178 21.9107666,18.3336182 23.2155761,18.1036377 C23.4748536,18.0578614 23.7385254,18.0347901 23.9996338,18.0344239 C24.262207,18.0347901 24.5258789,18.0578614 24.7851562,18.1036377 C26.0899658,18.3336182 27.1922607,19.1103516 27.8543701,20.1895752 C28.6527099,19.5340576 29.6671143,19.1579589 30.7287598,19.1579589 C31.5183105,19.1579589 32.2990723,19.3677979 32.9857177,19.7644043 C34.1326904,20.4265136 34.902832,21.5328369 35.15625,22.7728271 C35.6359864,22.6032714 36.1442871,22.5146484 36.6591797,22.5146484 C37.4406372,22.5146484 38.1951013,22.7157642 38.8593007,23.0859594 L39.0772705,23.2155761 L43.4783935,23.2155761 C44.9384766,23.2155761 46.1253662,22.0290527 46.1253662,20.5704346 C46.1253662,19.1118164 44.9384766,17.9249268 43.4798584,17.9249268 C43.4384766,17.9249268 43.3974609,17.9260254 43.3568115,17.9274902 C42.9528808,17.9436036 42.5808105,17.6982422 42.4394531,17.317749 C42.2980957,16.9372558 42.4174805,16.5087891 42.7357177,16.2564698 C43.6285401,15.5478516 43.9661865,14.3514404 43.5761719,13.2795411 C43.3344727,12.6156006 42.8485107,12.0853271 42.208374,11.7868652 C41.5678711,11.4884033 40.8497315,11.4569092 40.1854248,11.6986084 C40.1484375,11.7121583 40.1118164,11.7260742 40.0755615,11.7410888 C39.7001953,11.8978271 39.2666016,11.7949219 39.0021973,11.4858398 C38.7374268,11.1767578 38.7026367,10.7321777 38.9154052,10.385376 C39.5123291,9.41418459 39.4204102,8.17419431 38.6872558,7.30004888 C37.7493896,6.18273928 36.0776367,6.03662109 34.9603271,6.97412109 C34.9313964,6.99829106 34.9006348,7.02539063 34.8706055,7.05285647 C34.5710449,7.32788081 34.1286621,7.37878416 33.7745362,7.17846675 C33.4207763,6.97851563 33.236206,6.57275391 33.3178711,6.17468259 C33.5463867,5.05773928 33.0362549,3.92395022 32.0478516,3.35375981 C31.4362792,3.00036619 30.7229004,2.90661619 30.0406494,3.08935547 C29.3580322,3.27209475 28.7878417,3.71008303 28.4344482,4.32202144 C28.4139404,4.35717769 28.3945312,4.39270022 28.3762207,4.42785647 C28.1883545,4.78820803 27.7906494,4.98669431 27.3892822,4.9193115 C26.9886474,4.85192869 26.677002,4.53405759 26.6176758,4.13232422 C26.4503174,3.00439453 25.5831299,2.11376953 24.4595947,1.91564944 C24.3068848,1.88854978 24.1519776,1.875 23.9992676,1.875 Z M19.5106201,8.8308105 C20.0072021,8.68579106 20.5283203,8.96997075 20.6740723,9.46691897 C20.819458,9.96386719 20.5349121,10.4846192 20.0379638,10.6303711 C15.6522217,11.9154053 12.1497802,15.2636719 10.6691895,19.586792 C10.5358886,19.9760742 10.171875,20.2210693 9.78222656,20.2210693 C9.68151853,20.2210693 9.57897947,20.2045898 9.47827144,20.1701661 C8.98864744,20.0020752 8.72753906,19.4692383 8.89526362,18.979248 C10.5732422,14.0808105 14.5415039,10.2868652 19.5106201,8.8308105 Z M30.9104004,9.75952144 C32.6070557,10.5739746 34.1326904,11.6711426 35.4448242,13.0202636 C35.8059083,13.3912354 35.7974854,13.9848633 35.4265136,14.3459473 C35.2441406,14.5231933 35.0083008,14.6114502 34.7728271,14.6114502 C34.5285645,14.6114502 34.284668,14.5166016 34.1008301,14.3276367 C32.9425049,13.1367188 31.5963135,12.1688232 30.098877,11.4499511 C29.6323242,11.2258301 29.4353027,10.6658935 29.6594239,10.1989746 C29.8835449,9.73242188 30.4434815,9.53540044 30.9104004,9.75952144 Z M28.1348877,8.73156741 C28.1513672,8.73596194 28.164917,8.739624 28.1784667,8.74365234 C28.6757812,8.88867188 28.9610596,9.40905759 28.8160401,9.90600581 C28.6966552,10.3154297 28.3223877,10.5812989 27.916626,10.5812989 C27.8599854,10.5812989 27.8028565,10.5760905 27.7457818,10.5654568 L27.6602783,10.5454102 L27.6445312,10.5413818 C27.1450195,10.4058838 26.8494873,9.89099119 26.9846192,9.39147947 C27.1201172,8.89160156 27.6346435,8.59606931 28.1348877,8.73156741 Z" id="Combined-Shape" fill="#FCFCFC"></path>
                </g>
            </g>
        </g>
    </g>
</svg>