<?xml version="1.0" encoding="UTF-8"?>
<svg width="121px" height="145px" viewBox="0 0 121 145" version="1.1" xmlns="http://www.w3.org/2000/svg" xmlns:xlink="http://www.w3.org/1999/xlink">
    <!-- Generator: Sketch 58 (84663) - https://sketch.com -->
    <title>01 Atoms / Media / BrandLogo / Vertical / wB</title>
    <desc>Created with Sketch.</desc>
    <g id="✨-Symbols" stroke="none" stroke-width="1" fill="none" fill-rule="evenodd">
        <g id="03-Organisms-/-Desktop--/-Navigation" transform="translate(-371.000000, -13.000000)">
            <g id="01-Atoms-/-Media-/-BrandLogo-/-Vertical-/-wB" transform="translate(352.274678, 0.000000)">
                <polygon id="Fill-1" points="0 171.594948 159 171.594948 159 0 0 0"></polygon>
                <path d="M139.466556,157.076395 L139.466556,157.812854 L19.5584722,157.812854 L19.5584722,157.076395 L139.466556,157.076395 Z M132.76949,145.465308 L134.381574,145.468254 C135.447462,145.467518 136.514087,145.466045 137.580712,145.468254 C138.708435,145.470464 139.61974,146.387355 139.628638,147.525184 C139.637407,148.643129 138.739351,149.601999 137.629296,149.608627 C135.462921,149.623356 133.297282,149.623356 131.131643,149.607154 C129.989199,149.599053 129.108074,148.668905 129.110278,147.525921 C129.11249,146.390301 130.005393,145.48372 131.157407,145.4712 L132.76949,145.465308 Z M79.8603264,114.276491 C79.8821153,114.979956 79.8718686,115.684836 79.8668984,116.451083 L79.8647431,117.038212 L73.3994792,117.038212 C73.3994792,116.187602 73.4200903,115.383389 73.3950625,114.579912 C73.3486875,113.129824 72.5183542,112.255647 71.2345764,112.266694 C69.9360764,112.277741 69.1624236,113.133506 69.1609514,114.631464 C69.1535903,123.34451 69.1535903,132.058293 69.1616875,140.772076 C69.1631597,142.272243 69.9397569,143.150102 71.2176458,143.172933 C72.5117292,143.196499 73.3545764,142.27298 73.3957986,140.757347 C73.411809,140.175176 73.4062882,139.592591 73.4025271,138.982251 L73.4002153,138.361646 L79.7830347,138.361646 C80.1510903,141.749357 79.7513819,144.885936 77.0417569,147.297839 C74.4116319,149.639779 71.3479375,150.199488 68.1112569,148.923204 C64.7325069,147.59095 62.8929653,144.940434 62.7214514,141.311164 C62.5860069,138.458122 62.6817014,135.594033 62.6809653,132.735099 C62.6780208,126.676251 62.6772847,120.617403 62.6809653,114.558554 C62.6839097,109.742113 66.3453264,105.981753 71.1271042,105.875703 C75.8470486,105.771126 79.7123681,109.483615 79.8603264,114.276491 Z M36.47195,105.954578 L36.47195,106.988566 C36.4712139,118.185689 36.4822556,129.383548 36.4660611,140.580671 C36.4594361,145.210052 33.5532694,148.709705 29.1807694,149.441745 C24.2348389,150.270262 19.5605333,146.512111 19.3176167,141.493143 C19.2781611,140.681271 19.2975944,139.867042 19.306946,139.015012 L19.3109917,138.368348 L25.6916028,138.368348 C25.6916028,139.166669 25.6776167,139.968673 25.6945472,140.76994 C25.7247278,142.235494 26.6220472,143.203201 27.9021444,143.173006 C29.1682556,143.143548 29.9566306,142.246541 29.9573667,140.757421 L29.9620594,124.012552 L29.9617833,107.267684 L29.9617833,105.954578 L36.47195,105.954578 Z M127.264778,140.451569 L127.264778,149.551993 L125.886042,149.551993 L125.886042,140.451569 L127.264778,140.451569 Z M102.277044,105.861047 C102.186503,106.236641 102.134239,106.519442 102.050322,106.791931 C99.9428361,113.574719 97.8265167,120.353824 95.7411139,127.142503 C95.6240722,127.523989 95.6616139,128.009315 95.7808639,128.399639 C97.8765722,135.219985 99.9965722,142.032968 102.109211,148.848159 C102.167364,149.036693 102.209322,149.229645 102.28735,149.527911 C100.112878,149.527911 98.0112806,149.550741 95.9126278,149.494034 C95.6917944,149.488142 95.3767389,149.04774 95.2839889,148.75242 C93.7146,143.7607 92.1753917,138.759407 90.6251417,133.76106 C90.4453202,133.181572 90.250356,132.606413 89.9322401,132.04022 L89.7624194,131.757892 L89.7624194,149.472677 L83.3604611,149.472677 L83.3604611,105.869148 C85.3347111,105.869148 87.2986556,105.846318 89.2589194,105.91039 C89.4245444,105.915545 89.7035306,106.500294 89.7072111,106.81918 C89.7312574,108.679967 89.7324025,110.540753 89.730494,112.401758 L89.7278222,115.193456 L89.7278222,123.629594 C89.80585,123.64285 89.8824056,123.656106 89.9596972,123.669362 C90.5338639,121.851045 91.1153917,120.033464 91.6829333,118.212938 C92.8850028,114.35242 94.0708778,110.48601 95.3009194,106.634329 C95.3980861,106.328699 95.7793917,105.903025 96.0407111,105.894924 C98.0767944,105.833798 100.115822,105.861047 102.277044,105.861047 Z M112.306558,105.87263 C117.011781,105.847717 120.817475,109.542532 120.944086,114.270599 C120.966906,115.150668 120.946294,116.031472 120.946294,117.030847 C120.516406,117.055887 120.216808,117.086082 119.917947,117.086818 C119.33004,117.088291 118.742051,117.089028 118.148309,117.089355 L114.471461,117.089028 C114.471461,116.197176 114.489128,115.392963 114.467044,114.590222 C114.426558,113.128351 113.615364,112.260066 112.327169,112.266694 C111.026461,112.273322 110.247656,113.127615 110.238086,114.619681 C110.222628,117.036003 110.219683,119.452325 110.239558,121.868647 C110.252072,123.45277 110.941808,124.133258 112.544322,124.226788 C117.9091,124.539047 121.173753,127.956953 121.207614,133.319848 C121.223808,135.872414 121.262086,138.427191 121.190683,140.977548 C121.058919,145.757904 117.550614,149.405585 113.055919,149.524155 C108.241017,149.651562 104.508933,146.346334 104.061378,141.505589 C103.983473,140.667254 104.025697,139.817666 104.041936,138.921454 L104.047392,138.377848 L110.514864,138.377848 C110.514864,139.17396 110.505294,139.975228 110.516336,140.776495 C110.535475,142.193442 111.37685,143.147893 112.613517,143.173669 C113.845031,143.199445 114.701864,142.357672 114.725419,140.925996 C114.769586,138.238657 114.773267,135.548373 114.722475,132.861034 C114.693767,131.324044 113.928947,130.661231 112.400781,130.653866 C107.678628,130.631772 103.891336,126.960524 103.781656,122.227302 C103.720558,119.57384 103.722031,116.917433 103.778711,114.263971 C103.878822,109.56389 107.635197,105.898533 112.306558,105.87263 Z M47.2378266,105.840542 L47.3767,105.841384 C49.2471583,105.894409 51.119825,105.878943 52.9910194,105.848012 C53.6167139,105.837702 53.8640472,106.022553 53.968575,106.679474 C55.1551861,114.201666 56.3756583,121.718703 57.5953944,129.235741 C58.6679083,135.846197 59.7499917,142.455916 60.82545,149.066372 C60.8384056,149.14532 60.8320456,149.227568 60.8289833,149.369675 L60.8276583,149.488363 L54.3587139,149.488363 C53.9690657,147.107146 53.5790904,144.726256 53.1870431,142.332818 L52.5972,138.731643 L47.6181444,138.731643 C47.2265333,141.126608 46.838521,143.500951 46.4490909,145.884351 L45.8632556,149.469952 L39.3464639,149.469952 C39.724825,147.06394 40.0869917,144.718318 40.4646167,142.375642 C41.4708806,136.131943 42.4800889,129.889716 43.4929778,123.64749 C44.4028111,118.043773 45.3332556,112.443739 46.2143806,106.835604 C46.3187243,106.169292 46.5397302,105.890911 47.1101588,105.846528 L47.2378266,105.840542 Z M134.914518,147.021262 L131.780433,147.021538 L131.20231,147.022183 C131.00356,147.022919 130.800393,147.070053 130.730462,147.265214 C130.67599,147.419871 130.663476,147.618715 130.71206,147.773371 C130.780518,147.992836 130.993254,148.046597 131.214087,148.045861 L132.799671,148.044664 L134.851949,148.045124 C135.744851,148.045124 136.63849,148.04807 137.531393,148.043651 C137.901657,148.042179 138.115865,147.816822 138.084949,147.48026 C138.057712,147.182731 137.849393,147.022183 137.471032,147.022183 L134.914518,147.021262 Z M133.453337,140.520649 C134.815143,140.519913 136.176212,140.519913 137.538018,140.520649 C138.697393,140.521386 139.60281,141.405873 139.628574,142.559168 C139.652865,143.696997 138.756282,144.63009 137.602796,144.663967 C137.461462,144.668386 137.320129,144.667568 137.170508,144.666531 L136.938824,144.66544 L136.938824,143.10562 C137.144935,143.10562 137.338532,143.110039 137.532129,143.104147 C137.881046,143.093837 138.091574,142.892047 138.087893,142.582734 C138.084949,142.269003 137.878837,142.083415 137.516671,142.083415 C135.417282,142.081942 133.317893,142.081206 131.218504,142.083415 C130.858546,142.084152 130.646546,142.273422 130.641393,142.581261 C130.636976,142.885419 130.853393,143.090891 131.200101,143.104147 C131.330638,143.108566 131.460848,143.10742 131.595529,143.106166 L131.801504,143.104884 L131.801504,144.64482 C130.973379,144.73614 130.210768,144.633773 129.630712,143.965068 C129.074212,143.324349 128.947601,142.582734 129.265601,141.80577 C129.591699,141.005976 130.226962,140.56631 131.091893,140.53096 C131.877324,140.498555 132.666435,140.521386 133.453337,140.520649 Z M139.599571,132.101303 C139.599571,132.496045 139.603251,132.863538 139.598099,133.231031 C139.593682,133.571275 139.701154,133.997684 139.537001,134.228933 C139.363279,134.474173 138.931182,134.541191 138.606557,134.67449 C137.592196,135.09059 136.576362,135.50227 135.478821,135.948564 C136.76039,136.465559 137.940376,136.959723 139.135085,137.414118 C139.487682,137.547417 139.637112,137.710174 139.60914,138.100498 C139.570862,138.641058 139.599571,139.186775 139.599571,139.789198 C139.442779,139.736909 139.325737,139.705242 139.214585,139.660318 C137.126974,138.816336 135.043043,137.966462 132.951751,137.133527 C132.70221,137.034105 132.416599,136.98108 132.147918,136.979607 L129.231078,136.971322 L126.314238,136.972979 L125.912321,136.972979 L125.912321,134.930778 L129.230434,134.931607 L132.179571,134.92415 C132.416599,134.923413 132.668349,134.874807 132.889182,134.787168 C135.049668,133.926984 137.205737,133.05428 139.363279,132.185259 C139.420696,132.162429 139.481057,132.143281 139.599571,132.101303 Z M50.0267,121.311442 C49.6032608,123.933937 49.1784863,128.945833 48.7511047,131.818157 L48.6869778,132.232392 L51.5327833,132.232392 C51.0749222,129.408072 50.6339917,124.045177 50.1915889,121.316597 C50.1371167,121.315124 50.0819083,121.313651 50.0267,121.311442 Z M139.594712,125.360272 L139.594712,131.413965 L137.594699,131.413965 L137.594699,129.415952 L125.905254,129.415952 L125.905254,127.372278 L137.568935,127.372278 L137.568935,125.360272 L139.594712,125.360272 Z M136.083302,119.119453 L136.916961,119.132628 C138.430406,119.167241 139.550767,120.280767 139.593461,121.766942 C139.634683,123.219239 138.528308,124.412302 137.029586,124.519089 C136.807097,124.534554 136.582951,124.528479 136.332926,124.524474 L136.073378,124.522035 L136.073378,122.483516 C136.364142,122.483516 136.617364,122.487935 136.871322,122.48278 C137.315197,122.473942 137.581669,122.229438 137.588294,121.832486 C137.594919,121.43038 137.311517,121.148316 136.869114,121.143897 C136.131531,121.136533 135.393947,121.139478 134.656364,121.141688 C134.088822,121.143897 133.863572,121.35968 133.831919,121.92528 C133.752419,123.347383 132.92135,124.338656 131.540406,124.564749 C131.008197,124.652388 130.453169,124.609673 129.909183,124.604518 C129.280544,124.597154 128.640128,124.636922 128.026211,124.529399 C126.657044,124.289314 125.775919,123.049117 125.896642,121.646162 C126.010739,120.323482 127.141406,119.260772 128.488489,119.218057 C128.685767,119.211183 128.883372,119.21282 129.086974,119.214675 L129.397586,119.216584 L129.397586,121.260994 C129.123017,121.260994 128.859489,121.256575 128.596697,121.261731 C128.161656,121.270568 127.884878,121.529065 127.884878,121.918652 C127.885616,122.29351 128.143989,122.555689 128.573878,122.562317 C129.428503,122.57631 130.283128,122.577046 131.137753,122.562317 C131.600031,122.55348 131.814975,122.308239 131.816447,121.853107 C131.822336,120.369142 132.936072,119.190808 134.415656,119.139256 L135.249315,119.120517 L136.083302,119.119453 Z M125.889575,111.56367 C126.242908,111.617186 126.583155,111.667102 126.918604,111.718436 L127.419214,111.797128 L133.233019,112.743478 C135.265422,113.072675 137.298561,113.400399 139.332436,113.723705 C139.520881,113.753163 139.609214,113.815762 139.604061,114.027126 C139.590075,114.636177 139.592283,115.245965 139.603325,115.855017 C139.607006,116.059753 139.531922,116.127507 139.334644,116.159174 C135.751992,116.73214 132.170811,117.311733 128.590367,117.892063 C128.000987,117.987311 127.411935,118.085506 126.812086,118.185555 L125.902825,118.336884 L125.902825,116.281427 C126.552075,116.175377 127.202061,116.070799 127.851311,115.964749 C128.262061,115.897732 128.674283,115.840288 129.080617,115.752649 C129.166006,115.733501 129.283783,115.601675 129.2882,115.516982 C129.308811,115.080999 129.298506,114.642805 129.298506,114.16558 C128.775131,114.080151 128.263533,113.996194 127.7512,113.913711 C127.203533,113.824599 126.655131,113.744325 126.109672,113.641958 C126.026492,113.626492 125.901353,113.51455 125.899881,113.44385 C125.882214,112.837008 125.889575,112.228693 125.889575,111.56367 Z M131.316186,114.496987 L131.316186,115.396203 C132.186269,115.25333 133.994158,115.115612 134.837006,114.977158 C134.838478,114.956537 134.83995,114.93518 134.841422,114.913822 C133.994894,114.776104 132.184061,114.638387 131.316186,114.496987 Z M139.553932,105.83969 C139.567182,105.871358 139.589265,105.900816 139.589265,105.929538 C139.581168,107.094616 139.628279,108.263377 139.543626,109.4233 C139.457501,110.60458 138.323154,111.61942 137.137279,111.658453 C136.166349,111.690857 135.192474,111.69233 134.220071,111.659189 C132.858265,111.613529 131.718029,110.368176 131.736432,109.000572 C131.740358,108.75214 131.739376,108.503708 131.738286,108.243929 L131.737168,107.844331 L125.909376,107.844331 L125.909376,105.83969 L139.553932,105.83969 Z M137.575265,107.863479 L133.741599,107.863479 C133.741599,108.274423 133.730557,108.658119 133.745279,109.040341 C133.757057,109.351127 133.963904,109.606678 134.286321,109.616252 C135.202043,109.642764 136.119974,109.640555 137.036432,109.621407 C137.330876,109.615515 137.546557,109.412989 137.567904,109.11325 C137.598085,108.702306 137.575265,108.28768 137.575265,107.863479 Z M80.7726625,54.6962946 C80.9228292,54.6977675 81.1348292,54.9511094 81.1988708,55.1300689 C81.2746903,55.3421691 81.2253708,55.6006662 81.2253708,55.8385425 C81.2253708,66.9362432 81.2268431,78.0332075 81.2253708,89.1301717 C81.2246347,92.9354554 79.6861625,95.8378403 76.2021486,97.5559991 C71.0434819,100.099729 64.6150236,96.4741409 64.1115236,90.7466992 C64.0607319,90.1707883 64.0217181,89.5919315 64.0209819,89.0145476 L64.0172094,72.4199169 L64.0173014,54.7286988 L70.4560653,54.7286988 L70.4568014,88.8805121 C70.4568014,89.186879 70.4450236,89.4939824 70.4619542,89.7996129 C70.5304125,91.0876797 71.3850375,91.9684847 72.5672319,91.9810045 C73.7486903,91.9935243 74.6202458,91.1340766 74.7218292,89.8423276 C74.7375329,89.6395558 74.7365514,89.4351476 74.7341522,89.2306302 L74.7313986,88.9239632 L74.7313986,54.6771466 C76.7866208,54.6771466 78.7800097,54.6675727 80.7726625,54.6962946 Z M58.4118889,62.1748148 C58.4781389,62.6093256 58.5355556,63.051201 58.5355556,63.4893941 C58.5421806,72.1030186 58.5480694,80.7159067 58.5370278,89.3295311 C58.5326111,93.0722158 56.9271528,95.8788611 53.5314722,97.5528324 C48.2947778,100.134121 41.6756667,96.3759709 41.439375,90.5468979 C41.2731979,86.4433483 41.3685243,82.3290856 41.3949524,78.2174307 L41.4010972,76.4554913 L41.3510417,76.4554913 C41.3510417,72.1317405 41.3488333,67.8087262 41.3510417,63.4842389 C41.3539861,58.6979919 44.6834167,55.0547292 49.3658194,54.7100664 C53.8855417,54.3771869 57.7000694,57.5211304 58.4118889,62.1748148 Z M94.1397778,54.6778656 C98.5350972,54.6690456 102.320181,58.0096236 102.6875,62.2855046 C102.769699,63.2367641 102.725635,64.1992751 102.708663,65.2058544 L102.702958,65.8153526 L96.320875,65.8153526 C96.320875,65.0258686 96.3333889,64.2525866 96.3179306,63.4800411 C96.28775,61.9806106 95.4390139,61.0556181 94.1302083,61.0710837 C92.8331806,61.0865493 92.0632083,61.9518887 92.0558472,63.446164 C92.0448056,65.8632224 92.0418611,68.2802809 92.0580556,70.6980758 C92.0668889,72.2122355 92.7809167,73.0142393 94.2892083,73.0171852 C99.6090833,73.0282321 103.283014,77.3394631 103.084264,82.3554853 C102.982681,84.9051064 103.114444,87.463565 103.04525,90.0153954 C102.928944,94.3347275 99.5575556,97.9338026 95.3617222,98.3108696 C90.9008889,98.7122398 86.88025,95.8194288 86.0661111,91.4897863 C85.8387448,90.2802445 85.8756999,89.0216476 85.8357256,87.7061016 L85.8128889,87.1387866 L92.359125,87.1387866 C92.359125,87.9717217 92.3444028,88.7693068 92.3620694,89.5661554 C92.3959306,91.0935714 93.2284722,92.0111993 94.5277083,91.9787951 C95.7717361,91.9478638 96.5439167,91.0471745 96.5542222,89.5418523 C96.5711528,86.9200582 96.5763056,84.2982642 96.5483333,81.6764701 C96.532875,80.2182813 95.7481806,79.4693025 94.3348472,79.4531004 C89.5788333,79.3986024 85.9807222,76.1935329 85.6796528,71.43969 C85.4838472,68.3576091 85.5140278,65.2394417 85.7304444,62.1573607 C86.0278333,57.9271402 89.8158611,54.6867206 94.1397778,54.6778656 Z M121.408438,54.6413084 L121.548507,54.6456999 C123.042076,54.7163999 124.543743,54.7105082 126.037312,54.6456999 C126.810229,54.6118227 127.062715,54.9152438 127.265882,55.6156164 C129.141493,62.0765712 131.059062,68.5257427 132.967062,74.9763871 C133.004604,75.1037945 133.075271,75.220155 133.129743,75.3424072 L133.238687,75.340566 L133.347632,75.3387249 L133.347632,54.7222916 L139.70616,54.7222916 L139.70616,98.3324479 C137.637687,98.3324479 135.576576,98.3560146 133.517674,98.2970978 C133.304201,98.2912062 133.004604,97.8301828 132.914062,97.5289711 C131.332896,92.2566611 129.778965,86.9755136 128.214729,81.6973119 C127.892018,80.6091201 127.558942,79.5242276 127.163869,78.4452739 L126.855132,77.6372134 L126.855132,98.2536468 L120.366312,98.2536468 L120.366312,97.1798895 C120.366312,83.3941135 120.376618,69.6083374 120.344217,55.8225613 C120.342252,54.9626485 120.571282,54.6640114 121.278602,54.6423194 L121.408438,54.6413084 Z M36.5350347,62.7525669 C36.5890162,63.5681952 36.559674,64.3894493 36.5483938,65.284946 L36.5446042,65.831702 L30.0528403,65.831702 C30.0528403,64.9310126 30.0719792,64.0885035 30.0484236,63.2474674 C30.0123542,61.9115307 29.2188264,61.0896425 27.9858403,61.0719675 C26.7771458,61.0542924 25.8997014,61.8872276 25.7988542,63.1613016 C25.7775069,63.4315821 25.7900208,63.7048084 25.7900208,63.9772982 C25.7900208,72.3162235 25.7892847,80.6544123 25.7929653,88.9933376 C25.7929653,89.4005994 25.7804514,89.8166988 25.8562708,90.2129137 C26.0719514,91.3433783 27.0340486,92.0687904 28.1308542,91.9745237 C29.2158819,91.8809934 29.9843819,91.097401 30.0395903,89.9433697 C30.0743347,89.2186941 30.0591414,88.4907191 30.0516743,87.7334271 L30.0484236,87.1595547 L36.3694097,87.1595547 C37.6428819,93.3701135 33.6148819,98.0377906 28.5128958,98.3124898 C23.3586458,98.5901349 19.4175069,94.8386127 19.3932153,89.6311111 C19.3737083,85.2407108 19.3700278,80.8501263 19.371776,76.4594498 L19.3829097,63.2872361 C19.3858542,58.5356027 23.0288681,54.8150118 27.7900347,54.6824492 C32.3708542,54.5550417 36.2266042,58.0988825 36.5350347,62.7525669 Z M114.256222,54.7108028 L114.256222,98.2716164 L107.998542,98.2716164 L107.998542,54.7108028 L114.256222,54.7108028 Z M49.5248194,61.1047399 C48.4383194,61.2778077 47.7677222,62.1600856 47.7647778,63.4871848 L47.759901,69.9650781 L47.7610972,76.4429715 L47.7618333,83.6859538 L47.7625694,89.6027574 C47.7625694,90.5189124 48.0879306,91.2715735 48.9167917,91.7237594 C49.6713056,92.133967 50.4317083,92.0721045 51.1346944,91.5919332 C51.8906806,91.0756754 52.039375,90.2942924 52.0386416,89.4385271 C52.03275,80.8013359 52.0349583,72.1641447 52.0342222,63.5269535 C52.0342222,63.3568315 52.039375,63.1852366 52.0224444,63.0173239 C51.8847917,61.6843331 50.8490833,60.8926397 49.5248194,61.1047399 Z M69.8781353,14.0336193 L69.9802431,14.1246209 L71.9662708,16.1123237 C73.4202973,17.5663239 72.8433041,21.1158895 72.3929042,22.1424569 L72.3497847,22.2337709 L78.3424653,28.1703669 L84.3697431,22.1402406 C85.6166378,20.8927566 87.294286,20.1786811 89.049684,20.1389065 L89.3429097,20.1385451 L91.4209514,17.471827 L93.4754375,14.768286 C93.9252014,14.1754365 94.7938125,14.1165198 95.3193958,14.6423515 C95.8121302,15.1353188 95.7911683,15.930565 95.2989677,16.3982075 L95.1942569,16.4871813 L92.4912569,18.5426384 L89.8257986,20.6216622 C89.8620618,22.3861404 89.2151975,24.0911307 88.0279094,25.3853412 L87.8250486,25.5971792 L81.8154375,31.6096305 L85.7528958,35.5099174 L88.7223681,32.5036917 C88.9833529,32.2425835 89.39156,32.2188464 89.6793125,32.4324804 L89.7617569,32.5036917 L93.9148958,36.6587934 C95.7008065,38.4455482 96.4983416,40.9876308 96.0639517,43.465563 L96.0106042,43.7405832 L95.5623125,45.8490653 C95.4936088,46.1678702 95.2655416,46.4249944 94.9628979,46.5319901 L94.8460764,46.5649034 L92.7393264,47.013407 C90.268438,47.5396332 87.7024082,46.8243277 85.8616484,45.1111548 L85.6601458,44.9167082 L81.5070069,40.7616065 C81.2466913,40.5004983 81.2230262,40.0920983 81.4360118,39.8042098 L81.5070069,39.7217264 L84.4764792,36.7155007 L80.6133681,32.8115316 L74.6044931,38.8247193 C73.3575983,40.0722034 71.6799501,40.7862789 69.9245521,40.8254273 L69.6313264,40.8256784 L67.5532847,43.4923965 L65.4987986,46.1966739 C65.0490347,46.788787 64.1804236,46.8484402 63.6548403,46.321872 C63.1614158,45.8289047 63.1823346,45.0343057 63.675139,44.5661374 L63.7799792,44.4770422 L66.4829792,42.4223216 L69.1484375,40.3432978 C69.1121743,38.5788195 69.7590386,36.8731683 70.9463267,35.5795144 L71.1491875,35.3677808 L77.1757292,29.3376545 L71.2183819,23.3171021 C70.3341285,23.7344672 66.8758684,24.4393506 65.2725977,23.0950188 L65.1233819,22.9584466 L63.1366181,20.9707437 C62.7128284,20.5460699 62.6825577,19.876283 63.0463954,19.416593 L63.1373542,19.3144474 L68.3247292,14.1246209 C68.7485188,13.699947 69.4185753,13.6696132 69.8781353,14.0336193 Z M58.3117778,30.1138086 L58.3117778,30.8502676 L19.3729722,30.8502676 L19.3729722,30.1138086 L58.3117778,30.1138086 Z M139.601264,30.1138086 L139.601264,30.8502676 L100.662458,30.8502676 L100.662458,30.1138086 L139.601264,30.1138086 Z M69.1521181,16.6094335 L65.6202569,20.1429638 L66.7788958,21.3021503 C67.7125408,22.235532 69.1977764,22.2774615 70.1793858,21.424716 L70.3100208,21.3028867 C70.3114931,21.3021503 70.3114931,21.3021503 70.3114931,21.3014138 C71.2423216,20.369441 71.2827924,18.8788786 70.4322613,17.8989772 L70.3107569,17.76862 L69.1521181,16.6094335 Z" id="Combined-Shape" fill="#F9BA06" fill-rule="evenodd"></path>
            </g>
        </g>
    </g>
</svg>