<?xml version="1.0" encoding="UTF-8"?>
<svg width="450px" height="118px" viewBox="0 0 450 118" version="1.1" xmlns="http://www.w3.org/2000/svg" xmlns:xlink="http://www.w3.org/1999/xlink">
    <!-- Generator: Sketch 58 (84663) - https://sketch.com -->
    <title>01 Atoms / Media / BrandLogo / Horizontal / wb</title>
    <desc>Created with Sketch.</desc>
    <g id="01-Atoms-/-Media-/-BrandLogo-/-Horizontal-/-wb" stroke="none" stroke-width="1" fill="none" fill-rule="evenodd">
        <polygon id="Fill-1" points="0 118 450 118 450 0 0 0"></polygon>
        <path d="M423.5,98.7705205 L423.5,99.7705205 L26,99.7705205 L26,98.7705205 L423.5,98.7705205 Z M413.6721,83.0042724 L416.5921,83.0084205 C418.0401,83.0074205 419.4891,83.0054205 420.9381,83.0084205 C422.4701,83.0114205 423.7081,84.2564205 423.720188,85.8014205 C423.7321,87.3194205 422.5121,88.6214205 421.0041,88.6304205 C418.0611,88.6504205 415.1191,88.6504205 412.1771,88.6284205 C410.6251,88.6174205 409.4281,87.3544205 409.431094,85.8024205 C409.4341,84.2604205 410.6471,83.0294205 412.2121,83.0124205 C412.698767,83.0070872 413.185433,83.004865 413.6721,83.0042724 Z M342.5255,40.6547205 C342.556333,41.6497205 342.539944,42.6468039 342.533625,43.7379844 L342.5315,44.4047205 L333.7485,44.4047205 C333.7485,43.2497205 333.7765,42.1577205 333.7425,41.0667205 C333.6795,39.0977205 332.5515,37.9107205 330.8075,37.9257205 C329.0435,37.9407205 327.9925,39.1027205 327.9905,41.1367205 C327.9805,52.9677205 327.9805,64.7997205 327.9915,76.6317205 C327.9935,78.6687205 329.0485,79.8607205 330.7845,79.8917205 C332.5425,79.9237205 333.6875,78.6697205 333.7435,76.6117205 C333.7667,75.7685205 333.75662,74.9246805 333.75166,74.0351445 L333.7495,73.3587205 L342.4205,73.3587205 C342.9205,77.9587205 342.3775,82.2177205 338.6965,85.4927205 C335.1235,88.6727205 330.9615,89.4327205 326.5645,87.6997205 C321.9745,85.8907205 319.4755,82.2917205 319.2425,77.3637205 C319.0585,73.4897205 319.1885,69.6007205 319.1875,65.7187205 C319.1835,57.4917205 319.1825,49.2647205 319.1875,41.0377205 C319.1915,34.4977205 324.1655,29.3917205 330.6615,29.2477205 C337.0735,29.1057205 342.3245,34.1467205 342.5255,40.6547205 Z M109.481408,29.2738649 C109.685408,29.2758649 109.973408,29.6198649 110.060408,29.8628649 C110.163408,30.1508649 110.096408,30.5018649 110.096408,30.8248649 C110.096408,45.8938649 110.098408,60.9618649 110.096408,76.0298649 C110.095408,81.1968649 108.005408,85.1378649 103.272408,87.4708649 C96.2644082,90.9248649 87.5314082,86.0018649 86.8474082,78.2248649 C86.7784082,77.4428649 86.7254082,76.6568649 86.7244082,75.8728649 L86.7192832,53.3398649 L86.7194082,29.3178649 L95.4664082,29.3178649 L95.4665332,53.3658649 L95.4674082,75.6908649 C95.4674082,76.1068649 95.4514082,76.5238649 95.4744082,76.9388649 C95.5674082,78.6878649 96.7284082,79.8838649 98.3344082,79.9008649 C99.9394082,79.9178649 101.123408,78.7508649 101.261408,76.9968649 C101.282742,76.7215316 101.281408,76.443976 101.278149,76.1662723 L101.274408,75.7498649 L101.274408,29.2478649 C104.066408,29.2478649 106.774408,29.2348649 109.481408,29.2738649 Z M79.1045082,39.4285649 C79.1945082,40.0185649 79.2725082,40.6185649 79.2725082,41.2135649 C79.2815082,52.9095649 79.2895082,64.6045649 79.2745082,76.3005649 C79.2685082,81.3825649 77.0875082,85.1935649 72.4745082,87.4665649 C65.3605082,90.9715649 56.3685082,85.8685649 56.0475082,77.9535649 C55.8181749,72.2931205 55.9554588,66.6176637 55.9887976,60.9461575 L55.9955082,58.8195649 L55.9275082,58.8195649 C55.9275082,52.9485649 55.9245082,47.0785649 55.9275082,41.2065649 C55.9315082,34.7075649 60.4545082,29.7605649 66.8155082,29.2925649 C72.9555082,28.8405649 78.1375082,33.1095649 79.1045082,39.4285649 Z M283.5828,29.3548205 L283.5828,30.7588205 C283.5818,45.9628205 283.5968,61.1678205 283.5748,76.3718205 C283.5658,82.6578205 279.6178,87.4098205 273.6778,88.4038205 C266.9588,89.5288205 260.6088,84.4258205 260.2788,77.6108205 C260.222967,76.4624872 260.253939,75.3106816 260.265814,74.1010057 L260.2698,73.3678205 L268.9378,73.3678205 C268.9378,74.4518205 268.9188,75.5408205 268.9418,76.6288205 C268.9828,78.6188205 270.2018,79.9328205 271.9408,79.8918205 C273.6608,79.8518205 274.7318,78.6338205 274.7328,76.6118205 L274.739175,53.8748205 L274.7388,31.1378205 L274.7388,29.3548205 L283.5828,29.3548205 Z M406.924,76.1965205 L406.924,88.5535205 L405.051,88.5535205 L405.051,76.1965205 L406.924,76.1965205 Z M127.640508,29.2488412 C133.611508,29.2368649 138.753508,33.7728649 139.252508,39.5788649 C139.367365,40.9074363 139.300753,42.252171 139.279377,43.6615588 L139.273508,44.3718649 L130.603508,44.3718649 C130.603508,43.2998649 130.620508,42.2498649 130.599508,41.2008649 C130.558508,39.1648649 129.405508,37.9088649 127.627508,37.9298649 C125.865508,37.9508649 124.819508,39.1258649 124.809508,41.1548649 C124.794508,44.4368649 124.790508,47.7188649 124.812508,51.0018649 C124.824508,53.0578649 125.794508,54.1468649 127.843508,54.1508649 C135.070508,54.1658649 140.061508,60.0198649 139.791508,66.8308649 C139.653508,70.2928649 139.832508,73.7668649 139.738508,77.2318649 C139.580508,83.0968649 135.000508,87.9838649 129.300508,88.4958649 C123.240508,89.0408649 117.778508,85.1128649 116.672508,79.2338649 C116.354808,77.5445649 116.416998,75.7847949 116.35461,73.9428909 L116.328508,73.3258649 L125.221508,73.3258649 C125.221508,74.4568649 125.201508,75.5398649 125.225508,76.6218649 C125.271508,78.6958649 126.402508,79.9418649 128.167508,79.8978649 C129.857508,79.8558649 130.906508,78.6328649 130.920508,76.5888649 C130.943508,73.0288649 130.950508,69.4688649 130.912508,65.9088649 C130.891508,63.9288649 129.825508,62.9118649 127.905508,62.8898649 C121.444508,62.8158649 116.556508,58.4638649 116.147508,52.0088649 C115.881508,47.8238649 115.922508,43.5898649 116.216508,39.4048649 C116.620508,33.6608649 121.766508,29.2608649 127.640508,29.2488412 Z M164.875008,29.2051649 C166.904008,29.3011649 168.944008,29.2931649 170.973008,29.2051649 C172.023008,29.1591649 172.366008,29.5711649 172.642008,30.5221649 C175.190008,39.2951649 177.795008,48.0521649 180.387008,56.8111649 C180.404008,56.8688316 180.426008,56.9248316 180.450527,56.9800168 L180.608008,57.3081649 L180.756008,57.3056649 L180.904008,57.3031649 L180.904008,29.3091649 L189.542008,29.3091649 L189.542008,88.5251649 C186.732008,88.5251649 183.932008,88.5571649 181.135008,88.4771649 C180.845008,88.4691649 180.438008,87.8431649 180.315008,87.4341649 C178.167008,80.2751649 176.056008,73.1041649 173.931008,65.9371649 C173.474342,64.3979982 173.002397,62.8636927 172.435892,61.3382992 L172.084008,60.4241649 L172.084008,88.4181649 L163.269008,88.4181649 L163.269008,86.9601649 C163.269008,68.2411649 163.283008,49.5221649 163.238991,30.8031649 C163.236008,29.4981649 163.625008,29.1451649 164.875008,29.2051649 Z M372.9784,29.2278205 C372.8554,29.7378205 372.7844,30.1218205 372.6704,30.4918205 C369.8074,39.7018205 366.9324,48.9068205 364.0994,58.1248205 C363.9404,58.6428205 363.9914,59.3018205 364.1534,59.8318205 C367.0004,69.0928205 369.8804,78.3438205 372.7504,87.5978205 C372.8294,87.8538205 372.8864,88.1158205 372.9924,88.5208205 C370.0384,88.5208205 367.1834,88.5518205 364.3324,88.4748205 C364.0324,88.4668205 363.6044,87.8688205 363.4784,87.4678205 C361.3464,80.6898205 359.2554,73.8988205 357.1494,67.1118205 C356.900025,66.3085705 356.629213,65.5114455 356.180871,64.7271448 L355.9774,64.3918205 L355.9774,88.4458205 L347.2804,88.4458205 L347.2804,29.2388205 C349.9624,29.2388205 352.6304,29.2078205 355.2934,29.2948205 C355.5184,29.3018205 355.8974,30.0958205 355.9024,30.5288205 C355.9269,32.4238205 355.9339,34.3188205 355.934775,36.2139455 L355.9304,41.8998205 L355.9304,53.3548205 C356.0364,53.3728205 356.1404,53.3908205 356.2454,53.4088205 C357.0254,50.9398205 357.8154,48.4718205 358.5864,45.9998205 C360.2194,40.7578205 361.8304,35.5078205 363.5014,30.2778205 C363.6334,29.8628205 364.1514,29.2848205 364.5064,29.2738205 C367.2724,29.1908205 370.0424,29.2278205 372.9784,29.2278205 Z M386.6034,29.2435487 C392.9954,29.2097205 398.1654,34.2267205 398.3374,40.6467205 C398.3684,41.8417205 398.3404,43.0377205 398.3404,44.3947205 C397.7564,44.4287205 397.3494,44.4697205 396.9434,44.4707205 C396.258829,44.4724348 395.574176,44.4734144 394.88459,44.4739392 L389.5444,44.4737205 C389.5444,43.2627205 389.5684,42.1707205 389.5384,41.0807205 C389.4834,39.0957205 388.3814,37.9167205 386.6314,37.9257205 C384.8644,37.9347205 383.8064,39.0947205 383.7934,41.1207205 C383.7724,44.4017205 383.7684,47.6827205 383.7954,50.9637205 C383.8124,53.1147205 384.7494,54.0387205 386.9264,54.1657205 C394.2144,54.5897205 398.6494,59.2307205 398.6954,66.5127205 C398.7174,69.9787205 398.7694,73.4477205 398.6724,76.9107205 C398.4934,83.4017205 393.7274,88.3547205 387.6214,88.5157205 C381.0804,88.6887205 376.0104,84.2007205 375.4024,77.6277205 C375.293543,76.4568634 375.357339,75.269843 375.377788,74.0143911 L375.3834,73.3807205 L384.1694,73.3807205 C384.1694,74.4617205 384.1564,75.5497205 384.1714,76.6377205 C384.1974,78.5617205 385.3404,79.8577205 387.0204,79.8927205 C388.6934,79.9277205 389.8574,78.7847205 389.8894,76.8407205 C389.9494,73.1917205 389.9544,69.5387205 389.8854,65.8897205 C389.8464,63.8027205 388.8074,62.9027205 386.7314,62.8927205 C380.3164,62.8627205 375.1714,57.8777205 375.0224,51.4507205 C374.9394,47.8477205 374.9414,44.2407205 375.0184,40.6377205 C375.1544,34.2557205 380.2574,29.2787205 386.6034,29.2435487 Z M49.3850082,40.2130649 C49.4604368,41.3522078 49.4161102,42.4994323 49.4019062,43.7561261 L49.3980082,44.3940649 L40.5790082,44.3940649 C40.5790082,43.1710649 40.6050082,42.0270649 40.5730082,40.8850649 C40.5240082,39.0710649 39.4460082,37.9550649 37.7710082,37.9310649 C36.1290082,37.9070649 34.9370082,39.0380649 34.8000082,40.7680649 C34.7710082,41.1350649 34.7880082,41.5060649 34.7880082,41.8760649 C34.7880082,53.1990649 34.7870082,64.5210649 34.7920082,75.8440649 C34.7920082,76.3970649 34.7750082,76.9620649 34.8780082,77.5000649 C35.1710082,79.0350649 36.4780082,80.0200649 37.9680082,79.8920649 C39.4420082,79.7650649 40.4860082,78.7010649 40.5610082,77.1340649 C40.6082082,76.1500649 40.5875682,75.1615849 40.5774242,74.1332969 L40.5730082,73.3540649 L49.1600082,73.3540649 C50.8900082,81.7870649 45.4180082,88.1250649 38.4870082,88.4980649 C31.4850082,88.8750649 26.1310082,83.7810649 26.0980082,76.7100649 C26.0715082,70.7485649 26.0665082,64.7868149 26.0688832,58.8249399 L26.0840082,40.9390649 C26.0880082,34.4870649 31.0370082,29.4350649 37.5050082,29.2550649 C43.7280082,29.0820649 48.9660082,33.8940649 49.3850082,40.2130649 Z M298.2369,29.1995538 L298.3968,29.2011205 C300.9378,29.2731205 303.4818,29.2521205 306.0238,29.2101205 C306.8738,29.1961205 307.2098,29.4471205 307.3518,30.3391205 C308.9638,40.5531205 310.6218,50.7601205 312.2788,60.9671205 C313.7358,69.9431205 315.2058,78.9181205 316.6668,87.8941205 C316.685133,88.0057872 316.674994,88.122315 316.671106,88.3305094 L316.6698,88.4671205 L307.8818,88.4671205 C307.2863,84.8296205 306.690238,81.192683 306.090238,77.5314174 L305.4888,73.8611205 L298.7248,73.8611205 C298.1928,77.1131205 297.665689,80.3371205 297.136652,83.5734168 L296.3408,88.4421205 L287.4878,88.4421205 C288.0018,85.1751205 288.4938,81.9901205 289.0068,78.8091205 C290.3738,70.3311205 291.7448,61.8551205 293.1208,53.3791205 C294.3568,45.7701205 295.6208,38.1661205 296.8178,30.5511205 C296.962747,29.6259626 297.273409,29.2515859 298.087873,29.2045094 L298.2369,29.1995538 Z M154.968508,29.2935649 L154.968508,88.4425649 L146.467508,88.4425649 L146.467508,29.2935649 L154.968508,29.2935649 Z M207.968308,29.6895848 L208.093134,29.8047023 L211.60289,33.3157596 C214.198935,35.9105314 213.131429,42.2834966 212.332339,44.021902 L212.280645,44.1286191 L222.871056,54.6149595 L233.522607,43.9634082 C235.765498,41.7205167 238.797058,40.4537829 241.959428,40.4256498 L242.311307,40.4276344 L245.983673,35.7171718 L249.614411,30.9416656 C250.409244,29.8944626 251.944275,29.7903927 252.873098,30.7192163 C253.761538,31.6076563 253.704949,33.0519257 252.783023,33.8702984 L252.65195,33.9779041 L247.875143,37.6086417 L243.16468,41.2810073 C243.22991,44.4534193 242.044399,47.5169662 239.874091,49.8172904 L239.628906,50.0697079 L229.008576,60.6900382 L235.966948,67.5794636 L241.214671,62.2692984 C241.688189,61.7957805 242.435943,61.7642127 242.946025,62.1745949 L243.051504,62.2692984 L250.391032,69.6088261 C253.577898,72.795692 254.983868,77.3428958 254.165828,81.7601804 L254.094618,82.1180245 L253.302387,85.842425 C253.176302,86.4272176 252.746506,86.894516 252.180798,87.0693576 L252.036637,87.1068739 L248.313537,87.8991058 C243.904364,88.837686 239.323761,87.5402801 236.064387,84.4500025 L235.803038,84.1955193 L228.46351,76.8559917 C227.991206,76.3824738 227.95972,75.6347202 228.369049,75.1246375 L228.46351,75.0191585 L233.711233,69.7089933 L226.88425,62.8130635 L216.26522,73.4346947 C214.022329,75.6775862 210.99077,76.94432 207.828399,76.9712867 L207.47652,76.9691677 L203.804154,81.6796302 L200.173417,86.4564372 C199.378583,87.5023394 197.843553,87.6077102 196.914729,86.6775857 C196.025045,85.7891458 196.08158,84.3460665 197.004642,83.5266589 L197.135877,83.4188979 L201.912684,79.7894612 L206.623147,76.1170956 C206.557917,72.9446836 207.743428,69.8799271 209.913736,67.5806829 L210.158921,67.328395 L220.809171,56.6768438 L210.281203,46.0422039 C208.702441,46.7870231 202.480688,48.0502224 199.687211,45.5754219 L199.509971,45.4086785 L195.998914,41.8976213 C195.2327,41.130171 195.194389,39.909542 195.885097,39.0967739 L196.000215,38.971957 L205.16747,29.8047023 C205.933684,29.0372521 207.155425,28.9988795 207.968308,29.6895848 Z M417.3161,85.1171705 L413.8431,85.1174205 C413.3201,85.1174205 412.7971,85.1174205 412.2731,85.1184205 C412.0031,85.1194205 411.7271,85.1834205 411.6321,85.4484205 C411.5581,85.6584205 411.5411,85.9284205 411.6071,86.1384205 C411.7001,86.4364205 411.9891,86.5094205 412.2891,86.5084205 L414.4431,86.5067955 L417.2311,86.5074205 C418.4441,86.5074205 419.6581,86.5114205 420.8711,86.5054205 C421.3741,86.5034205 421.6651,86.1974205 421.6231,85.7404205 C421.5861,85.3364205 421.3031,85.1184205 420.7891,85.1184205 L417.3161,85.1171705 Z M414.528913,76.2867424 L415.3311,76.2903205 L420.8801,76.2903205 C422.4551,76.2913205 423.6851,77.4923205 423.7201,79.0583205 C423.7531,80.6033205 422.5351,81.8703205 420.9681,81.9163205 C420.7761,81.9223205 420.5841,81.9212094 420.380841,81.919802 L420.0661,81.9183205 L420.0661,79.8003205 C420.3461,79.8003205 420.6091,79.8063205 420.8721,79.7983205 C421.3461,79.7843205 421.6321,79.5103205 421.6271,79.0903205 C421.6231,78.6643205 421.3431,78.4123205 420.8511,78.4123205 C417.9991,78.4103205 415.1471,78.4093205 412.2951,78.4123205 C411.8061,78.4133205 411.5181,78.6703205 411.5111,79.0883205 C411.5051,79.5013205 411.7991,79.7803205 412.2701,79.7983205 C412.447433,79.8043205 412.624322,79.802765 412.807285,79.8010613 L413.0871,79.7993205 L413.0871,81.8903205 C411.9621,82.0143205 410.9261,81.8753205 410.1381,80.9673205 C409.3821,80.0973205 409.2101,79.0903205 409.6421,78.0353205 C410.0851,76.9493205 410.9481,76.3523205 412.1231,76.3043205 C412.92335,76.2713205 413.726413,76.280508 414.528913,76.2867424 Z M67.0315082,37.9755649 C65.5555082,38.2105649 64.6445082,39.4085649 64.6405082,41.2105649 L64.6338832,50.0065649 L64.6355082,58.8025649 L64.6355082,60.6025649 C64.6365082,65.9595649 64.6365082,71.3155649 64.6375082,76.6715649 C64.6375082,77.9155649 65.0795082,78.9375649 66.2055082,79.5515649 C67.2305082,80.1085649 68.2635082,80.0245649 69.2185082,79.3725649 C70.2455082,78.6715649 70.4475082,77.6105649 70.4465119,76.4485649 C70.4385082,64.7205649 70.4415082,52.9925649 70.4405082,41.2645649 C70.4405082,41.0335649 70.4475082,40.8005649 70.4245082,40.5725649 C70.2375082,38.7625649 68.8305082,37.6875649 67.0315082,37.9755649 Z M423.6807,64.8581205 C423.6807,65.3941205 423.6857,65.8931205 423.6787,66.3921205 C423.6727,66.8541205 423.8187,67.4331205 423.5957,67.7471205 C423.3597,68.0801205 422.7727,68.1711205 422.3317,68.3521205 C420.9537,68.9171205 419.5737,69.4761205 418.0827,70.0821205 C419.8237,70.7841205 421.4267,71.4551205 423.0497,72.0721205 C423.5287,72.2531205 423.7317,72.4741205 423.6937,73.0041205 C423.6417,73.7381205 423.6807,74.4791205 423.6807,75.2971205 C423.4677,75.2261205 423.3087,75.1831205 423.1577,75.1221205 C420.3217,73.9761205 417.4907,72.8221205 414.6497,71.6911205 C414.3107,71.5561205 413.9227,71.4841205 413.5577,71.4821205 C411.796367,71.4701205 410.035478,71.4701205 408.274441,71.4714539 L405.6327,71.4731205 L405.0867,71.4731205 L405.0867,68.7001205 L405.5887,68.7001205 C408.2587,68.7001205 410.9297,68.7061205 413.6007,68.6911205 C413.9227,68.6901205 414.2647,68.6241205 414.5647,68.5051205 C417.4997,67.3371205 420.4287,66.1521205 423.3597,64.9721205 C423.4377,64.9411205 423.5197,64.9151205 423.6807,64.8581205 Z M301.9968,50.2071205 C301.41696,53.7965605 300.835277,60.6825637 300.249981,64.5666946 L300.1768,65.0361205 L304.0428,65.0361205 C303.4208,61.2011205 302.8218,53.9191205 302.2208,50.2141205 C302.1468,50.2121205 302.0718,50.2101205 301.9968,50.2071205 Z M423.6741,55.7048205 L423.6741,63.9248205 L420.9571,63.9248205 L420.9571,61.2118205 L405.0771,61.2118205 L405.0771,58.4368205 L420.9221,58.4368205 L420.9221,55.7048205 L423.6741,55.7048205 Z M420.0364,47.2486205 C422.0924,47.2956205 423.6144,48.8076205 423.6724,50.8256205 C423.7284,52.7976205 422.2254,54.4176205 420.1894,54.5626205 C419.867,54.5850205 419.54204,54.5741405 419.174584,54.5688925 L418.8904,54.5666205 L418.8904,51.7986205 C419.2854,51.7986205 419.6294,51.8046205 419.9744,51.7976205 C420.5774,51.7856205 420.9394,51.4536205 420.9484,50.9146205 C420.9574,50.3686205 420.5724,49.9856205 419.9714,49.9796205 C418.9694,49.9696205 417.9674,49.9736205 416.9654,49.9766205 C416.1944,49.9796205 415.8884,50.2726205 415.8454,51.0406205 C415.7374,52.9716205 414.6084,54.3176205 412.7324,54.6246205 C412.0094,54.7436205 411.2554,54.6856205 410.5164,54.6786205 C409.6624,54.6686205 408.7924,54.7226205 407.9584,54.5766205 C406.0984,54.2506205 404.9014,52.5666205 405.0654,50.6616205 C405.2204,48.8656205 406.7564,47.4226205 408.5864,47.3646205 C408.8544,47.3552872 409.122844,47.3575094 409.399437,47.3600279 L409.8214,47.3626205 L409.8214,50.1386205 C409.4484,50.1386205 409.0904,50.1326205 408.7334,50.1396205 C408.1424,50.1516205 407.7664,50.5026205 407.7664,51.0316205 C407.7674,51.5406205 408.1184,51.8966205 408.7024,51.9056205 C409.8634,51.9246205 411.0244,51.9256205 412.1854,51.9056205 C412.8134,51.8936205 413.1054,51.5606205 413.1074,50.9426205 C413.1154,48.9276205 414.6284,47.3276205 416.6384,47.2576205 C417.7704,47.2186205 418.9044,47.2226205 420.0364,47.2486205 Z M405.0558,36.9711205 C405.7758,37.0801205 406.4558,37.1781205 407.1338,37.2881205 C409.7668,37.7141205 412.3988,38.1461205 415.0318,38.5731205 C417.7928,39.0201205 420.5548,39.4651205 423.3178,39.9041205 C423.5738,39.9441205 423.6938,40.0291205 423.6868,40.3161205 C423.6678,41.1431205 423.6708,41.9711205 423.6858,42.7981205 C423.6908,43.0761205 423.5888,43.1681205 423.3208,43.2111205 C418.4538,43.9891205 413.5888,44.7761205 408.7248,45.5641205 C407.82405,45.7096205 406.923862,45.860183 406.002722,46.0136987 L405.0738,46.1681205 L405.0738,43.3771205 C405.9558,43.2331205 406.8388,43.0911205 407.7208,42.9471205 C408.2788,42.8561205 408.8388,42.7781205 409.3908,42.6591205 C409.5068,42.6331205 409.6668,42.4541205 409.6728,42.3391205 C409.7008,41.7471205 409.6868,41.1521205 409.6868,40.5041205 C408.9758,40.3881205 408.2808,40.2741205 407.5848,40.1621205 C406.8408,40.0411205 406.0958,39.9321205 405.3548,39.7931205 C405.2418,39.7721205 405.0718,39.6201205 405.0698,39.5241205 C405.0458,38.7001205 405.0558,37.8741205 405.0558,36.9711205 Z M206.629651,34.1938491 L200.388061,40.4354396 L202.435636,42.4830143 C204.160594,44.2066715 206.950967,44.2092733 208.675925,42.4843152 C208.677226,42.4843152 208.677226,42.4843152 208.677226,42.4830143 C208.678527,42.4830143 208.678527,42.4830143 208.678527,42.4817134 C210.342806,40.8161759 210.396492,38.1406678 208.838407,36.4111499 L208.677226,36.2414238 L206.629651,34.1938491 Z M412.4278,40.9541205 L412.4278,42.1751205 C413.6098,41.9811205 416.0658,41.7941205 417.2108,41.6061205 C417.2128,41.5781205 417.2148,41.5491205 417.2168,41.5201205 C416.0668,41.3331205 413.6068,41.1461205 412.4278,40.9541205 Z M423.6187,29.1988205 C423.6367,29.2418205 423.6667,29.2818205 423.6667,29.3208205 C423.6557,30.9028205 423.7197,32.4898205 423.6047,34.0648205 C423.4877,35.6688205 421.9467,37.0468205 420.3357,37.0998205 C419.0167,37.1438205 417.6937,37.1458205 416.3727,37.1008205 C414.5227,37.0388205 412.9737,35.3478205 412.9987,33.4908205 C413.0047,33.1113205 413.002262,32.7318205 413.000669,32.330383 L412.9997,31.9208205 L405.0827,31.9208205 L405.0827,29.1988205 L423.6187,29.1988205 Z M420.9307,31.9468205 L415.7227,31.9468205 C415.7227,32.5048205 415.7077,33.0258205 415.7277,33.5448205 C415.7437,33.9668205 416.0247,34.3138205 416.4627,34.3268205 C417.7067,34.3628205 418.9537,34.3598205 420.1987,34.3338205 C420.5987,34.3258205 420.8917,34.0508205 420.9207,33.6438205 C420.9617,33.0858205 420.9307,32.5228205 420.9307,31.9468205 Z M423.5,18.2294795 L423.5,19.2294795 L26,19.2294795 L26,18.2294795 L423.5,18.2294795 Z" id="Combined-Shape" fill="#F9BA06"></path>
    </g>
</svg>