<?xml version="1.0" encoding="UTF-8"?>
<svg width="216px" height="233px" viewBox="0 0 216 233" version="1.1" xmlns="http://www.w3.org/2000/svg" xmlns:xlink="http://www.w3.org/1999/xlink">
    <!-- Generator: Sketch 58 (84663) - https://sketch.com -->
    <title>01 Atoms / Media / BrandLogo / Vertical / wB</title>
    <desc>Created with Sketch.</desc>
    <g id="01-Atoms-/-Media-/-BrandLogo-/-Vertical-/-wB" stroke="none" stroke-width="1" fill="none" fill-rule="evenodd">
        <g id="CousinJacks_Logo.Vertical" transform="translate(-0.789505, -0.286650)">
            <polygon id="Fill-1" points="0.789504607 233.28665 216.789505 233.28665 216.789505 0.28665 0.789504607 0.28665"></polygon>
            <path d="M190.253505,213.57265 L190.253505,214.57265 L27.3595046,214.57265 L27.3595046,213.57265 L190.253505,213.57265 Z M180.425605,197.806402 L183.345605,197.81055 C184.793605,197.80955 186.242605,197.80755 187.691605,197.81055 C189.223605,197.81355 190.461605,199.05855 190.473692,200.60355 C190.485605,202.12155 189.265605,203.42355 187.757605,203.43255 C184.814605,203.45255 181.872605,203.45255 178.930605,203.43055 C177.378605,203.41955 176.181605,202.15655 176.184599,200.60455 C176.187605,199.06255 177.400605,197.83155 178.965605,197.81455 C179.452271,197.809217 179.938938,197.806994 180.425605,197.806402 Z M109.279005,155.45685 C109.309838,156.45185 109.293449,157.448933 109.28713,158.540114 L109.285005,159.20685 L100.502005,159.20685 C100.502005,158.05185 100.530005,156.95985 100.496005,155.86885 C100.433005,153.89985 99.3050046,152.71285 97.5610046,152.72785 C95.7970046,152.74285 94.7460046,153.90485 94.7440046,155.93885 C94.7340046,167.76985 94.7340046,179.60185 94.7450046,191.43385 C94.7470046,193.47085 95.8020046,194.66285 97.5380046,194.69385 C99.2960046,194.72585 100.441005,193.47185 100.497005,191.41385 C100.520205,190.57065 100.510125,189.72681 100.505165,188.837274 L100.503005,188.16085 L109.174005,188.16085 C109.674005,192.76085 109.131005,197.01985 105.450005,200.29485 C101.877005,203.47485 97.7150046,204.23485 93.3180046,202.50185 C88.7280046,200.69285 86.2290046,197.09385 85.9960046,192.16585 C85.8120046,188.29185 85.9420046,184.40285 85.9410046,180.52085 C85.9370046,172.29385 85.9360046,164.06685 85.9410046,155.83985 C85.9450046,149.29985 90.9190046,144.19385 97.4150046,144.04985 C103.827005,143.90785 109.078005,148.94885 109.279005,155.45685 Z M50.3363046,144.15695 L50.3363046,145.56095 C50.3353046,160.76495 50.3503046,175.96995 50.3283046,191.17395 C50.3193046,197.45995 46.3713046,202.21195 40.4313046,203.20595 C33.7123046,204.33095 27.3623046,199.22795 27.0323046,192.41295 C26.9764713,191.264617 27.0074435,190.112811 27.0193185,188.903135 L27.0233046,188.16995 L35.6913046,188.16995 C35.6913046,189.25395 35.6723046,190.34295 35.6953046,191.43095 C35.7363046,193.42095 36.9553046,194.73495 38.6943046,194.69395 C40.4143046,194.65395 41.4853046,193.43595 41.4863046,191.41395 L41.4926796,168.67695 L41.4923046,144.15695 L50.3363046,144.15695 Z M173.677505,190.99865 L173.677505,203.35565 L171.804505,203.35565 L171.804505,190.99865 L173.677505,190.99865 Z M139.731905,144.02995 C139.608905,144.53995 139.537905,144.92395 139.423905,145.29395 C136.560905,154.50395 133.685905,163.70895 130.852905,172.92695 C130.693905,173.44495 130.744905,174.10395 130.906905,174.63395 C133.753905,183.89495 136.633905,193.14595 139.503905,202.39995 C139.582905,202.65595 139.639905,202.91795 139.745905,203.32295 C136.791905,203.32295 133.936905,203.35395 131.085905,203.27695 C130.785905,203.26895 130.357905,202.67095 130.231905,202.26995 C128.099905,195.49195 126.008905,188.70095 123.902905,181.91395 C123.65353,181.1107 123.382717,180.313575 122.934375,179.529274 L122.730905,179.19395 L122.730905,203.24795 L114.033905,203.24795 L114.033905,144.04095 C116.715905,144.04095 119.383905,144.00995 122.046905,144.09695 C122.271905,144.10395 122.650905,144.89795 122.655905,145.33095 C122.692655,148.17345 122.69003,151.01595 122.68642,153.858872 L122.683905,156.70195 L122.683905,168.15695 C122.789905,168.17495 122.893905,168.19295 122.998905,168.21095 C123.778905,165.74195 124.568905,163.27395 125.339905,160.80195 C126.972905,155.55995 128.583905,150.30995 130.254905,145.07995 C130.386905,144.66495 130.904905,144.08695 131.259905,144.07595 C134.025905,143.99295 136.795905,144.02995 139.731905,144.02995 Z M153.356905,144.045678 C159.748905,144.01185 164.918905,149.02885 165.090905,155.44885 C165.121905,156.64385 165.093905,157.83985 165.093905,159.19685 C164.509905,159.23085 164.102905,159.27185 163.696905,159.27285 C161.300905,159.27885 158.903905,159.27585 156.297905,159.27585 C156.297905,158.06485 156.321905,156.97285 156.291905,155.88285 C156.236905,153.89785 155.134905,152.71885 153.384905,152.72785 C151.617905,152.73685 150.559905,153.89685 150.546905,155.92285 C150.525905,159.20385 150.521905,162.48485 150.548905,165.76585 C150.565905,167.91685 151.502905,168.84085 153.679905,168.96785 C160.967905,169.39185 165.402905,174.03285 165.448905,181.31485 C165.470905,184.78085 165.522905,188.24985 165.425905,191.71285 C165.246905,198.20385 160.480905,203.15685 154.374905,203.31785 C147.833905,203.49085 142.763905,199.00285 142.155905,192.42985 C142.047047,191.258993 142.110843,190.071972 142.131292,188.816521 L142.136905,188.18285 L150.922905,188.18285 C150.922905,189.26385 150.909905,190.35185 150.924905,191.43985 C150.950905,193.36385 152.093905,194.65985 153.773905,194.69485 C155.446905,194.72985 156.610905,193.58685 156.642905,191.64285 C156.702905,187.99385 156.707905,184.34085 156.638905,180.69185 C156.599905,178.60485 155.560905,177.70485 153.484905,177.69485 C147.069905,177.66485 141.924905,172.67985 141.775905,166.25285 C141.692905,162.64985 141.694905,159.04285 141.771905,155.43985 C141.907905,149.05785 147.010905,144.08085 153.356905,144.045678 Z M64.9904048,144.001683 L65.1503046,144.00325 C67.6913046,144.07525 70.2353046,144.05425 72.7773046,144.01225 C73.6273046,143.99825 73.9633046,144.24925 74.1053046,145.14125 C75.7173046,155.35525 77.3753046,165.56225 79.0323046,175.76925 C80.4893046,184.74525 81.9593046,193.72025 83.4203046,202.69625 C83.4386379,202.807917 83.4284991,202.924444 83.4246102,203.132639 L83.4233046,203.26925 L74.6353046,203.26925 C74.0398046,199.63175 73.4437421,195.994813 72.8437421,192.333547 L72.2423046,188.66325 L65.4783046,188.66325 C64.9463046,191.91525 64.4191935,195.13925 63.8901565,198.375546 L63.0943046,203.24425 L54.2413046,203.24425 C54.7553046,199.97725 55.2473046,196.79225 55.7603046,193.61125 C57.1273046,185.13325 58.4983046,176.65725 59.8743046,168.18125 C61.1103046,160.57225 62.3743046,152.96825 63.5713046,145.35325 C63.716252,144.428092 64.026914,144.053715 64.8413774,144.006639 L64.9904048,144.001683 Z M184.069605,199.9193 L179.81198,199.919675 L179.026605,199.92055 C178.756605,199.92155 178.480605,199.98555 178.385605,200.25055 C178.311605,200.46055 178.294605,200.73055 178.360605,200.94055 C178.453605,201.23855 178.742605,201.31155 179.042605,201.31055 L181.196605,201.308925 L183.350605,201.30955 L183.984605,201.30955 C185.197605,201.30955 186.411605,201.31355 187.624605,201.30755 C188.127605,201.30555 188.418605,200.99955 188.376605,200.54255 C188.339605,200.13855 188.056605,199.92055 187.542605,199.92055 L184.069605,199.9193 Z M182.084605,191.09245 C183.934605,191.09145 185.783605,191.09145 187.633605,191.09245 C189.208605,191.09345 190.438605,192.29445 190.473605,193.86045 C190.506605,195.40545 189.288605,196.67245 187.721605,196.71845 C187.529605,196.72445 187.337605,196.723339 187.134345,196.721931 L186.819605,196.72045 L186.819605,194.60245 C187.099605,194.60245 187.362605,194.60845 187.625605,194.60045 C188.099605,194.58645 188.385605,194.31245 188.380605,193.89245 C188.376605,193.46645 188.096605,193.21445 187.604605,193.21445 C184.752605,193.21245 181.900605,193.21145 179.048605,193.21445 C178.559605,193.21545 178.271605,193.47245 178.264605,193.89045 C178.258605,194.30345 178.552605,194.58245 179.023605,194.60045 C179.200938,194.60645 179.377827,194.604894 179.56079,194.603191 L179.840605,194.60145 L179.840605,196.69245 C178.715605,196.81645 177.679605,196.67745 176.891605,195.76945 C176.135605,194.89945 175.963605,193.89245 176.395605,192.83745 C176.838605,191.75145 177.701605,191.15445 178.876605,191.10645 C179.943605,191.06245 181.015605,191.09345 182.084605,191.09245 Z M190.434205,179.66025 C190.434205,180.19625 190.439205,180.69525 190.432205,181.19425 C190.426205,181.65625 190.572205,182.23525 190.349205,182.54925 C190.113205,182.88225 189.526205,182.97325 189.085205,183.15425 C187.707205,183.71925 186.327205,184.27825 184.836205,184.88425 C186.577205,185.58625 188.180205,186.25725 189.803205,186.87425 C190.282205,187.05525 190.485205,187.27625 190.447205,187.80625 C190.395205,188.54025 190.434205,189.28125 190.434205,190.09925 C190.221205,190.02825 190.062205,189.98525 189.911205,189.92425 C187.075205,188.77825 184.244205,187.62425 181.403205,186.49325 C181.064205,186.35825 180.676205,186.28625 180.311205,186.28425 C178.549871,186.27225 176.788982,186.27225 175.027945,186.273583 L172.386205,186.27525 L171.840205,186.27525 L171.840205,183.50225 L172.342205,183.50225 C175.012205,183.50225 177.683205,183.50825 180.354205,183.49325 C180.676205,183.49225 181.018205,183.42625 181.318205,183.30725 C184.253205,182.13925 187.182205,180.95425 190.113205,179.77425 C190.191205,179.74325 190.273205,179.71725 190.434205,179.66025 Z M68.7503046,165.00925 C68.1704646,168.59869 67.5887814,175.484693 67.0034855,179.368824 L66.9303046,179.83825 L70.7963046,179.83825 C70.1743046,176.00325 69.5753046,168.72125 68.9743046,165.01625 C68.9003046,165.01425 68.8253046,165.01225 68.7503046,165.00925 Z M190.427605,170.50695 L190.427605,178.72695 L187.710605,178.72695 L187.710605,176.01395 L171.830605,176.01395 L171.830605,173.23895 L187.675605,173.23895 L187.675605,170.50695 L190.427605,170.50695 Z M186.789905,162.05075 C188.845905,162.09775 190.367905,163.60975 190.425905,165.62775 C190.481905,167.59975 188.978905,169.21975 186.942905,169.36475 C186.620505,169.38715 186.295545,169.37627 185.928089,169.371022 L185.643905,169.36875 L185.643905,166.60075 C186.038905,166.60075 186.382905,166.60675 186.727905,166.59975 C187.330905,166.58775 187.692905,166.25575 187.701905,165.71675 C187.710905,165.17075 187.325905,164.78775 186.724905,164.78175 C185.722905,164.77175 184.720905,164.77575 183.718905,164.77875 C182.947905,164.78175 182.641905,165.07475 182.598905,165.84275 C182.490905,167.77375 181.361905,169.11975 179.485905,169.42675 C178.762905,169.54575 178.008905,169.48775 177.269905,169.48075 C176.415905,169.47075 175.545905,169.52475 174.711905,169.37875 C172.851905,169.05275 171.654905,167.36875 171.818905,165.46375 C171.973905,163.66775 173.509905,162.22475 175.339905,162.16675 C175.607905,162.157417 175.876349,162.159639 176.152942,162.162157 L176.574905,162.16475 L176.574905,164.94075 C176.201905,164.94075 175.843905,164.93475 175.486905,164.94175 C174.895905,164.95375 174.519905,165.30475 174.519905,165.83375 C174.520905,166.34275 174.871905,166.69875 175.455905,166.70775 C176.616905,166.72675 177.777905,166.72775 178.938905,166.70775 C179.566905,166.69575 179.858905,166.36275 179.860905,165.74475 C179.868905,163.72975 181.381905,162.12975 183.391905,162.05975 C184.523905,162.02075 185.657905,162.02475 186.789905,162.05075 Z M171.809305,151.77325 C172.529305,151.88225 173.209305,151.98025 173.887305,152.09025 C176.520305,152.51625 179.152305,152.94825 181.785305,153.37525 C184.546305,153.82225 187.308305,154.26725 190.071305,154.70625 C190.327305,154.74625 190.447305,154.83125 190.440305,155.11825 C190.421305,155.94525 190.424305,156.77325 190.439305,157.60025 C190.444305,157.87825 190.342305,157.97025 190.074305,158.01325 C185.207305,158.79125 180.342305,159.57825 175.478305,160.36625 C174.577555,160.51175 173.677367,160.662313 172.756226,160.815828 L171.827305,160.97025 L171.827305,158.17925 C172.709305,158.03525 173.592305,157.89325 174.474305,157.74925 C175.032305,157.65825 175.592305,157.58025 176.144305,157.46125 C176.260305,157.43525 176.420305,157.25625 176.426305,157.14125 C176.454305,156.54925 176.440305,155.95425 176.440305,155.30625 C175.729305,155.19025 175.034305,155.07625 174.338305,154.96425 C173.594305,154.84325 172.849305,154.73425 172.108305,154.59525 C171.995305,154.57425 171.825305,154.42225 171.823305,154.32625 C171.799305,153.50225 171.809305,152.67625 171.809305,151.77325 Z M179.181305,155.75625 L179.181305,156.97725 C180.278876,156.797107 182.474947,156.623 183.699823,156.448523 L183.964305,156.40825 L183.970305,156.32225 C182.820305,156.13525 180.360305,155.94825 179.181305,155.75625 Z M190.372205,144.00095 C190.390205,144.04395 190.420205,144.08395 190.420205,144.12295 C190.409205,145.70495 190.473205,147.29195 190.358205,148.86695 C190.241205,150.47095 188.700205,151.84895 187.089205,151.90195 C185.770205,151.94595 184.447205,151.94795 183.126205,151.90295 C181.276205,151.84095 179.727205,150.14995 179.752205,148.29295 C179.758205,147.91345 179.755767,147.53395 179.754173,147.132512 L179.753205,146.72295 L171.836205,146.72295 L171.836205,144.00095 L190.372205,144.00095 Z M187.684205,146.74895 L182.476205,146.74895 C182.476205,147.30695 182.461205,147.82795 182.481205,148.34695 C182.497205,148.76895 182.778205,149.11595 183.216205,149.12895 C184.460205,149.16495 185.707205,149.16195 186.952205,149.13595 C187.352205,149.12795 187.645205,148.85295 187.674205,148.44595 C187.715205,147.88795 187.684205,147.32495 187.684205,146.74895 Z M110.518405,74.55595 C110.722405,74.55795 111.010405,74.90195 111.097405,75.14495 C111.200405,75.43295 111.133405,75.78395 111.133405,76.10695 C111.133405,91.17595 111.135405,106.24395 111.133405,121.31195 C111.132405,126.47895 109.042405,130.41995 104.309405,132.75295 C97.3014046,136.20695 88.5684046,131.28395 87.8844046,123.50695 C87.8154046,122.72495 87.7624046,121.93895 87.7614046,121.15495 L87.7562796,98.62195 L87.7564046,74.59995 L96.5034046,74.59995 L96.5035296,98.64795 L96.5044046,120.97295 C96.5044046,121.38895 96.4884046,121.80595 96.5114046,122.22095 C96.6044046,123.96995 97.7654046,125.16595 99.3714046,125.18295 C100.976405,125.19995 102.160405,124.03295 102.298405,122.27895 C102.319738,122.003617 102.318405,121.726061 102.315145,121.448357 L102.311405,121.03195 L102.311405,74.52995 C105.103405,74.52995 107.811405,74.51695 110.518405,74.55595 Z M80.1415046,84.71065 C80.2315046,85.30065 80.3095046,85.90065 80.3095046,86.49565 C80.3185046,98.19165 80.3265046,109.88665 80.3115046,121.58265 C80.3055046,126.66465 78.1245046,130.47565 73.5115046,132.74865 C66.3975046,136.25365 57.4055046,131.15065 57.0845046,123.23565 C56.8551713,117.575206 56.9924552,111.899749 57.025794,106.228243 L57.0325046,104.10165 L56.9645046,104.10165 C56.9645046,98.23065 56.9615046,92.36065 56.9645046,86.48865 C56.9685046,79.98965 61.4915046,75.04265 67.8525046,74.57465 C73.9925046,74.12265 79.1745046,78.39165 80.1415046,84.71065 Z M128.677505,74.5309262 C134.648505,74.51895 139.790505,79.05495 140.289505,84.86095 C140.404362,86.1895214 140.33775,87.5342561 140.316373,88.9436439 L140.310505,89.65395 L131.640505,89.65395 C131.640505,88.58195 131.657505,87.53195 131.636505,86.48295 C131.595505,84.44695 130.442505,83.19095 128.664505,83.21195 C126.902505,83.23295 125.856505,84.40795 125.846505,86.43695 C125.831505,89.71895 125.827505,93.00095 125.849505,96.28395 C125.861505,98.33995 126.831505,99.42895 128.880505,99.43295 C136.107505,99.44795 141.098505,105.30195 140.828505,112.11295 C140.690505,115.57495 140.869505,119.04895 140.775505,122.51395 C140.617505,128.37895 136.037505,133.26595 130.337505,133.77795 C124.277505,134.32295 118.815505,130.39495 117.709505,124.51595 C117.391805,122.82665 117.453995,121.06688 117.391607,119.224976 L117.365505,118.60795 L126.258505,118.60795 C126.258505,119.73895 126.238505,120.82195 126.262505,121.90395 C126.308505,123.97795 127.439505,125.22395 129.204505,125.17995 C130.894505,125.13795 131.943505,123.91495 131.957505,121.87095 C131.980505,118.31095 131.987505,114.75095 131.949505,111.19095 C131.928505,109.21095 130.862505,108.19395 128.942505,108.17195 C122.481505,108.09795 117.593505,103.74595 117.184505,97.29095 C116.918505,93.10595 116.959505,88.87195 117.253505,84.68695 C117.657505,78.94295 122.803505,74.54295 128.677505,74.5309262 Z M165.753805,74.4818104 L165.912005,74.48725 C167.941005,74.58325 169.981005,74.57525 172.010005,74.48725 C173.060005,74.44125 173.403005,74.85325 173.679005,75.80425 C176.227005,84.57725 178.832005,93.33425 181.424005,102.09325 C181.441005,102.150917 181.463005,102.206917 181.487523,102.262102 L181.645005,102.59025 L181.793005,102.58775 L181.941005,102.58525 L181.941005,74.59125 L190.579005,74.59125 L190.579005,133.80725 C187.769005,133.80725 184.969005,133.83925 182.172005,133.75925 C181.882005,133.75125 181.475005,133.12525 181.352005,132.71625 C179.204005,125.55725 177.093005,118.38625 174.968005,111.21925 C174.511338,109.680083 174.039393,108.145778 173.472889,106.620384 L173.121005,105.70625 L173.121005,133.70025 L164.306005,133.70025 L164.306005,132.24225 C164.306005,113.52325 164.320005,94.80425 164.275987,76.08525 C164.273264,74.8937283 164.597316,74.4958398 165.60514,74.4813208 L165.753805,74.4818104 Z M50.4220046,85.49515 C50.4974332,86.6342929 50.4531066,87.7815173 50.4389026,89.0382112 L50.4350046,89.67615 L41.6160046,89.67615 C41.6160046,88.45315 41.6420046,87.30915 41.6100046,86.16715 C41.5610046,84.35315 40.4830046,83.23715 38.8080046,83.21315 C37.1660046,83.18915 35.9740046,84.32015 35.8370046,86.05015 C35.8080046,86.41715 35.8250046,86.78815 35.8250046,87.15815 C35.8250046,98.48115 35.8240046,109.80315 35.8290046,121.12615 C35.8290046,121.67915 35.8120046,122.24415 35.9150046,122.78215 C36.2080046,124.31715 37.5150046,125.30215 39.0050046,125.17415 C40.4790046,125.04715 41.5230046,123.98315 41.5980046,122.41615 C41.6452046,121.43215 41.6245646,120.44367 41.6144206,119.415382 L41.6100046,118.63615 L50.1970046,118.63615 C51.9270046,127.06915 46.4550046,133.40715 39.5240046,133.78015 C32.5220046,134.15715 27.1680046,129.06315 27.1350046,121.99215 C27.1085046,116.03065 27.1035046,110.0689 27.1058796,104.107025 L27.1210046,86.22115 C27.1250046,79.76915 32.0740046,74.71715 38.5420046,74.53715 C44.7650046,74.36415 50.0030046,79.17615 50.4220046,85.49515 Z M156.005505,74.57565 L156.005505,133.72465 L147.504505,133.72465 L147.504505,74.57565 L156.005505,74.57565 Z M68.0685046,83.25765 C66.5925046,83.49265 65.6815046,84.69065 65.6775046,86.49265 L65.6708796,95.28865 L65.6725046,104.08465 L65.6725046,105.88465 C65.6735046,111.24165 65.6735046,116.59765 65.6745046,121.95365 C65.6745046,123.19765 66.1165046,124.21965 67.2425046,124.83365 C68.2675046,125.39065 69.3005046,125.30665 70.2555046,124.65465 C71.2825046,123.95365 71.4845046,122.89265 71.4835083,121.73065 C71.4755046,110.00265 71.4785046,98.27465 71.4775046,86.54665 C71.4775046,86.31565 71.4845046,86.08265 71.4615046,85.85465 C71.2745046,84.04465 69.8675046,82.96965 68.0685046,83.25765 Z M95.7435568,19.3626081 L95.8570046,19.46575 L98.5550046,22.16475 C100.541723,24.1504936 99.7372768,29.0147434 99.123972,30.3766257 L99.0760046,30.47675 L107.217005,38.53775 L115.405005,30.34975 C117.118505,28.63625 119.430803,27.663901 121.845504,27.6307337 L122.161005,27.63175 L124.984005,24.01075 L127.775005,20.33975 C128.386005,19.53475 129.566005,19.45475 130.280005,20.16875 C130.956426,20.8451711 130.920226,21.9407278 130.230925,22.5728404 L130.110005,22.67375 L126.438005,25.46475 L122.817005,28.28775 C122.866838,30.711375 121.967043,33.0523438 120.31829,34.8169 L120.099005,35.04375 L111.935005,43.20775 L117.284005,48.50375 L121.318005,44.42175 C121.678005,44.06175 122.244206,44.0340577 122.635929,44.3386731 L122.730005,44.42175 L128.372005,50.06375 C130.80938,52.501125 131.891594,55.9736396 131.283173,59.3530398 L131.219005,59.67975 L130.610005,62.54275 C130.51455,62.9854773 130.192649,63.3406012 129.767518,63.4796471 L129.637005,63.51475 L126.775005,64.12375 C123.402786,64.8415938 119.900119,63.8579795 117.397076,61.5083833 L117.158005,61.27675 L111.516005,55.63475 C111.156928,55.27475 111.129306,54.7085488 111.433141,54.3168256 L111.516005,54.22275 L115.550005,50.14075 L110.302005,44.83975 L102.139005,53.00475 C100.425505,54.71825 98.113206,55.690599 95.6985055,55.7228861 L95.3830046,55.72175 L92.5600046,59.34275 L89.7690046,63.01475 C89.1580046,63.81875 87.9780046,63.89975 87.2640046,63.18475 C86.5866362,62.5083289 86.6227858,61.4136697 87.3129345,60.7808013 L87.4340046,60.67975 L91.1060046,57.88975 L94.7270046,55.06675 C94.6771713,52.643125 95.5769664,50.3012378 97.225719,48.5374852 L97.4450046,48.31075 L105.632005,40.12275 L97.5390046,31.94775 C96.3307995,32.51775 91.5852216,33.4826902 89.4241356,31.6142073 L89.2590046,31.46075 L86.5600046,28.76175 C85.9764752,28.1772794 85.9421499,27.2508849 86.4578625,26.626188 L86.5610046,26.51275 L93.6080046,19.46575 C94.191534,18.8812794 95.1187589,18.8468988 95.7435568,19.3626081 Z M80.0055046,41.17665 L80.0055046,42.17665 L27.1075046,42.17665 L27.1075046,41.17665 L80.0055046,41.17665 Z M190.436505,41.17665 L190.436505,42.17665 L137.538505,42.17665 L137.538505,41.17665 L190.436505,41.17665 Z M94.7320046,22.83975 L89.9340046,27.63775 L91.5080046,29.21175 C92.7866475,30.4894286 94.826835,30.5369196 96.1598739,29.34974 L96.3050046,29.21275 C97.5817189,27.9350714 97.6273158,25.8884094 96.4426921,24.5584934 L96.3060046,24.41375 L94.7320046,22.83975 Z" id="Combined-Shape" fill="#F9BA06"></path>
        </g>
    </g>
</svg>