<?xml version="1.0" encoding="UTF-8"?>
<svg width="354px" height="73px" viewBox="0 0 354 73" version="1.1" xmlns="http://www.w3.org/2000/svg" xmlns:xlink="http://www.w3.org/1999/xlink">
    <!-- Generator: Sketch 58 (84663) - https://sketch.com -->
    <title>01 Atoms / Media / BrandLogo / Vertical /Color</title>
    <desc>Created with Sketch.</desc>
    <g id="✨-Symbols" stroke="none" stroke-width="1" fill="none" fill-rule="evenodd">
        <g id="03-Organisms-/-Desktop-L-/-Navigation" transform="translate(-543.000000, -40.000000)">
            <g id="01-Atoms-/-Media-/-BrandLogo-/-Horizontal-/-wb" transform="translate(520.000000, 24.000000)">
                <polygon id="Fill-1" points="0 105 400 105 400 0 0 0"></polygon>
                <path d="M376.444444,87.8890225 L376.444444,88.778853 L23.1111111,88.778853 L23.1111111,87.8890225 L376.444444,87.8890225 Z M369.006311,73.861184 L370.304089,73.8634251 C371.5912,73.8625352 372.8792,73.8607556 374.1672,73.8634251 C375.528978,73.8660945 376.629422,74.9739335 376.640167,76.3487217 C376.650756,77.6994844 375.566311,78.8580437 374.225867,78.8660522 C371.609867,78.8838488 368.994756,78.8838488 366.379644,78.8642725 C365.000089,78.8544844 363.936089,77.7306284 363.938751,76.3496115 C363.941422,74.9774928 365.019644,73.8821115 366.410756,73.8669844 C367.275941,73.8574928 368.141126,73.8590748 369.006311,73.861184 Z M304.467111,36.1758106 C304.494519,37.061192 304.479951,37.9484272 304.474333,38.9193929 L304.472444,39.5126751 L296.665333,39.5126751 C296.665333,38.4849208 296.690222,37.5132259 296.66,36.5424208 C296.604,34.7903445 295.601333,33.7341157 294.051111,33.7474632 C292.483111,33.7608106 291.548889,34.7947937 291.547111,36.6047089 C291.538222,47.1322937 291.538222,57.6607683 291.548,68.1892428 C291.549778,70.0018276 292.487556,71.0625056 294.030667,71.0900903 C295.593333,71.1185649 296.611111,70.0027174 296.660889,68.1714462 C296.681511,67.4211412 296.672551,66.6702666 296.668142,65.8787303 L296.666222,65.2768276 L304.373778,65.2768276 C304.818222,69.3700479 304.335556,73.1598361 301.063556,76.074031 C297.887556,78.903692 294.188,79.5799632 290.279556,78.0378869 C286.199556,76.4281835 283.978222,73.2256835 283.771111,68.8405988 C283.607556,65.3933954 283.723111,61.9328445 283.722222,58.4785225 C283.718667,51.1578869 283.717778,43.8372513 283.722222,36.5166157 C283.725778,30.6971242 288.147111,26.1536496 293.921333,26.025514 C299.620889,25.8991581 304.288444,30.3847937 304.467111,36.1758106 Z M97.3168073,26.0487781 C97.4981406,26.0505578 97.7541406,26.3566595 97.8314739,26.5728883 C97.9230295,26.8291595 97.8634739,27.14149 97.8634739,27.4289052 C97.8634739,40.8377611 97.8652517,54.2457273 97.8634739,67.6536934 C97.8625851,72.2514476 96.0048073,75.7582696 91.7976962,77.8342442 C85.5683628,80.9077188 77.8056962,76.5270832 77.1976962,69.6068713 C77.1363628,68.9110239 77.0892517,68.2116171 77.0883628,67.51399 L77.0838073,47.4634391 L77.0839184,26.0879306 L84.8590295,26.0879306 L84.8590295,27.6211086 C84.8590295,40.8644561 84.8590295,54.1086934 84.8599184,67.3520408 C84.8599184,67.7222103 84.8456962,68.0932696 84.8661406,68.4625493 C84.9488073,70.0188628 85.9808073,71.0831001 87.4083628,71.0982273 C88.8350295,71.1133544 89.8874739,70.0749222 90.0101406,68.5141595 C90.0291036,68.2691595 90.0279184,68.0221821 90.0250213,67.7750728 L90.0216962,67.4045408 L90.0216962,26.0256425 C92.5034739,26.0256425 94.9105851,26.0140747 97.3168073,26.0487781 Z M70.3151184,35.08474 C70.3951184,35.60974 70.4644517,36.1436383 70.4644517,36.6730874 C70.4724517,47.080545 70.4795628,57.4871128 70.4662295,67.8945705 C70.4608962,72.4166891 68.5222295,75.8078332 64.4217851,77.8304179 C58.0982295,80.9492739 50.1053406,76.4084688 49.8200073,69.3654603 C49.6161554,64.3286241 49.7381856,59.2784295 49.7678201,54.2317503 L49.7737851,52.3394434 L49.7133406,52.3394434 C49.7133406,47.1152484 49.7106739,41.8919434 49.7133406,36.6668586 C49.7168962,30.8838501 53.7373406,26.4818586 59.3915628,26.0654179 C64.8493406,25.6632145 69.4555628,29.461901 70.3151184,35.08474 Z M252.0736,26.1208149 L252.0736,27.3701369 C252.072711,40.89912 252.086044,54.4289928 252.066489,67.9579759 C252.058489,73.5514505 248.549156,77.7799251 243.269156,78.6644166 C237.296711,79.6654759 231.652267,75.1246708 231.358933,69.0604759 C231.311289,68.0795267 231.334756,67.0957301 231.346048,66.0662603 L231.350933,65.2849251 L239.055822,65.2849251 C239.055822,66.2495013 239.038933,67.2185267 239.059378,68.1866623 C239.095822,69.9574251 240.179378,71.1266623 241.725156,71.0901793 C243.254044,71.0545861 244.206044,69.9707725 244.206933,68.1715352 L244.2126,47.9394589 L244.212267,26.1208149 L252.0736,26.1208149 Z M361.710222,67.8019886 L361.710222,78.7976242 L360.045333,78.7976242 L360.045333,67.8019886 L361.710222,67.8019886 Z M113.45823,26.0265112 C118.765785,26.0158544 123.336452,30.0521256 123.780007,35.2184815 C123.882103,36.4006849 123.822892,37.5972708 123.803891,38.8513871 L123.798674,39.4834391 L116.092007,39.4834391 C116.092007,38.5295408 116.107118,37.5952188 116.088452,36.6617866 C116.052007,34.8500917 115.027118,33.7324645 113.446674,33.751151 C111.880452,33.7698374 110.950674,34.8153883 110.941785,36.6208544 C110.928452,39.5412781 110.924896,42.4617018 110.944452,45.3830154 C110.955118,47.2125069 111.817341,48.1815323 113.638674,48.1850917 C120.062674,48.1984391 124.499118,53.4075069 124.259118,59.4681425 C124.136452,62.5487357 124.295563,65.6400069 124.212007,68.7232696 C124.071563,73.9421256 120.000452,78.2907273 114.933785,78.7463205 C109.547118,79.2312781 104.692007,75.7360239 103.708896,70.5047103 C103.429983,69.0200775 103.480463,67.4742772 103.428324,65.8573099 L103.403118,65.2475917 L111.308007,65.2475917 C111.308007,66.25399 111.29023,67.2176764 111.311563,68.180473 C111.352452,70.0259815 112.357785,71.1347103 113.926674,71.0955578 C115.428896,71.0581849 116.361341,69.9699222 116.373785,68.1511086 C116.39423,64.983312 116.400452,61.8155154 116.366674,58.6477188 C116.348007,56.8858544 115.400452,55.9808967 113.693785,55.9613205 C107.950674,55.895473 103.605785,52.0229306 103.24223,46.2790747 C103.005785,42.555134 103.04223,38.7875917 103.303563,35.063651 C103.662674,29.9524645 108.236896,26.0372103 113.45823,26.0265112 Z M146.408752,25.9826892 L146.555563,25.9876467 C148.359118,26.0730705 150.172452,26.0659518 151.976007,25.9876467 C152.909341,25.9467145 153.21423,26.3133247 153.459563,27.1595535 C155.724452,34.9660366 158.040007,42.7582823 160.344007,50.5523078 C160.359118,50.6036213 160.378674,50.6534518 160.400468,50.7025573 L160.540452,50.9945535 L160.672007,50.9923289 L160.803563,50.9901044 L160.803563,26.0801891 L168.481785,26.0801891 L168.481785,78.7723925 C165.984007,78.7723925 163.495118,78.8008671 161.008896,78.7296806 C160.751118,78.722562 160.389341,78.1655281 160.280007,77.8015874 C158.370674,71.4312908 156.49423,65.0503162 154.605341,58.672901 C154.199415,57.3033035 153.779909,55.9380316 153.276349,54.5806899 L152.963563,53.7672654 L152.963563,78.6771806 L145.128007,78.6771806 L145.128007,77.3798078 C145.128007,60.7230705 145.140452,44.0663332 145.101325,27.4095959 C145.098915,26.3539333 145.384463,25.9983688 146.271195,25.9825578 L146.408752,25.9826892 Z M331.536356,26.0078064 C331.427022,26.46162 331.363911,26.8033149 331.262578,27.1325522 C328.717689,35.3278912 326.162133,43.518781 323.643911,51.7212386 C323.502578,52.1821708 323.547911,52.7685691 323.691911,53.2401793 C326.222578,61.4808996 328.782578,69.7127217 331.333689,77.9472132 C331.403911,78.1750098 331.454578,78.4081454 331.5488,78.7685267 C328.923022,78.7685267 326.385244,78.7961115 323.851022,78.7275945 C323.584356,78.7204759 323.203911,78.1883573 323.091911,77.8315352 C321.1968,71.800264 319.338133,65.7574251 317.466133,59.7181454 C317.244467,59.003389 317.003744,58.2940829 316.605218,57.5961881 L316.424356,57.2978064 L316.424356,78.7017895 L308.693689,78.7017895 L308.693689,26.0175945 C311.077689,26.0175945 313.449244,25.9900098 315.816356,26.0674251 C316.016356,26.0736539 316.353244,26.7801793 316.357689,27.1654759 C316.390356,29.6948191 316.388022,32.2241623 316.384814,34.753881 L316.382578,37.2837386 L316.382578,47.4767471 L316.662578,47.5247979 C317.355911,45.3278064 318.058133,43.1317047 318.743467,40.9320437 C320.195022,36.2675522 321.627022,31.595942 323.112356,26.9421284 C323.229689,26.5728488 323.690133,26.0585267 324.005689,26.0487386 C326.464356,25.9748827 328.926578,26.0078064 331.536356,26.0078064 Z M343.647467,26.0218018 C349.329244,25.9917005 353.9248,30.4559801 354.077689,36.168692 C354.105244,37.2320395 354.080356,38.2962767 354.080356,39.5037767 C353.561244,39.534031 353.199467,39.570514 352.838578,39.5714039 C350.7088,39.5767428 348.578133,39.5740734 346.261689,39.5740734 C346.261689,38.4964886 346.283022,37.5247937 346.256356,36.5548784 C346.207467,34.7885649 345.227911,33.7394547 343.672356,33.7474632 C342.101689,33.7554717 341.161244,34.7876751 341.149689,36.5904717 C341.131022,39.5100056 341.127467,42.4295395 341.151467,45.3490734 C341.166578,47.2630988 341.999467,48.0853022 343.934578,48.1983106 C350.4128,48.5755988 354.355022,52.7053022 354.395911,59.1850479 C354.415467,62.2692005 354.461689,65.3560225 354.375467,68.4375056 C354.216356,74.2133954 349.979911,78.6207259 344.552356,78.7639886 C338.738133,78.9179293 334.231467,74.92437 333.691022,69.075514 C333.59426,68.0336496 333.650968,66.9774027 333.669145,65.8602633 L333.674133,65.2964039 L341.483911,65.2964039 C341.483911,66.2583106 341.472356,67.2264462 341.485689,68.1945818 C341.5088,69.9066157 342.5248,71.0598361 344.018133,71.0909801 C345.505244,71.1221242 346.539911,70.1050479 346.568356,68.3752174 C346.621689,65.1282259 346.626133,61.8776751 346.5648,58.6306835 C346.530133,56.7736073 345.606578,55.9727598 343.761244,55.9638615 C338.059022,55.9371666 333.485689,51.5013615 333.353244,45.7824208 C333.279467,42.5763615 333.281244,39.3667428 333.349689,36.1606835 C333.470578,30.4817852 338.006578,26.0530988 343.647467,26.0218018 Z M43.8977851,35.782812 C43.9648327,36.7964561 43.9254313,37.8172914 43.9128055,38.935536 L43.9093406,39.5031934 L36.0702295,39.5031934 C36.0702295,38.4149306 36.0933406,37.3969645 36.0648962,36.3807781 C36.0213406,34.7666256 35.0631184,33.7735747 33.5742295,33.7522188 C32.1146739,33.7308628 31.0551184,34.7372611 30.9333406,36.2766679 C30.9075628,36.6032357 30.9226739,36.9333628 30.9226739,37.2626001 C30.9226739,47.338151 30.9217851,57.412812 30.9262295,67.4883628 C30.9262295,67.9804391 30.9111184,68.4831934 31.0026739,68.9619222 C31.2631184,70.327812 32.4248962,71.204295 33.7493406,71.0903967 C35.0595628,70.9773883 35.9875628,70.0306086 36.0542295,68.6362442 C36.0961851,67.760651 36.0778384,66.8810713 36.0688215,65.9660693 L36.0648962,65.2726849 L43.6977851,65.2726849 C45.2355628,72.7766256 40.3715628,78.4163713 34.2106739,78.7482781 C27.9866739,79.0837442 23.2275628,74.5509476 23.1982295,68.2589561 C23.1511184,57.6495069 23.1804517,47.0391679 23.1857851,36.4288289 C23.1893406,30.6876425 27.5884517,26.1922188 33.3377851,26.0320493 C38.8693406,25.8781086 43.5253406,30.159973 43.8977851,35.782812 Z M265.083388,25.9828667 L265.2416,25.9840479 C267.500267,26.0481157 269.7616,26.0294293 272.021156,25.9920564 C272.776711,25.9795988 273.075378,26.2029462 273.2016,26.9966751 C274.634489,36.0854039 276.108267,45.1679039 277.581156,54.2504039 C278.876267,62.2375225 280.182933,70.2237513 281.4816,78.21087 C281.497896,78.3102344 281.488884,78.4139243 281.485427,78.5991821 L281.484267,78.7207428 L273.672711,78.7207428 C273.143378,75.4839844 272.613544,72.2477264 272.080211,68.9898206 L271.5456,65.7238784 L265.533156,65.7238784 C265.060267,68.6176073 264.591723,71.4864208 264.121468,74.366176 L263.414044,78.6984971 L255.544711,78.6984971 C256.0016,75.7914208 256.438933,72.9573106 256.894933,70.1267598 C258.110044,62.5827767 259.328711,55.0405734 260.551822,47.49837 C261.650489,40.7276496 262.774044,33.9613784 263.838044,27.1853191 C263.965103,26.3734796 264.235415,26.0382691 264.937194,25.9889707 L265.083388,25.9828667 Z M137.749785,26.0663078 L137.749785,78.6988925 L130.193341,78.6988925 L130.193341,26.0663078 L137.749785,26.0663078 Z M184.848004,26.4079822 L184.971675,26.5211334 L188.091458,29.6453793 C190.395633,31.9508642 189.452965,37.6083418 188.743017,39.1651259 L188.693907,39.2669916 L198.107605,48.5980572 L207.57565,39.1199819 C209.563652,37.1298746 212.248702,36.0034399 215.051024,35.9722173 L215.387829,35.9737424 L218.652154,31.7822292 L221.879476,27.5328381 C222.585995,26.6010048 223.950466,26.5084003 224.776087,27.3348959 C225.56418,28.1238235 225.515715,29.4053034 224.70109,30.134304 L224.579511,30.2345757 L220.33346,33.4653168 L216.146382,36.7330997 C216.204199,39.5479663 215.156573,42.2665124 213.237881,44.3114334 L213.003472,44.5535536 L203.563179,54.0038475 L209.748398,60.1342685 L214.413041,55.4091215 C214.831798,54.9899206 215.49184,54.9599776 215.945066,55.3192927 L216.045782,55.4091215 L222.569806,61.9400571 C225.396013,64.7692583 226.646528,68.8033277 225.930202,72.7253839 L225.861883,73.0711235 L225.157677,76.3852087 C225.04638,76.9019614 224.668854,77.3156111 224.171168,77.4736919 L224.032566,77.5103539 L220.723144,78.215306 C216.812958,79.0485485 212.751096,77.9013502 209.855164,75.1652737 L209.6027,74.9197418 L203.078676,68.3888062 C202.660992,67.9696052 202.631158,67.3088647 202.989172,66.8551581 L203.078676,66.7543359 L207.743319,62.029189 L201.674889,55.8929803 L192.235752,65.3444317 C190.24775,67.334539 187.5627,68.4609737 184.760378,68.4911672 L184.423573,68.4895136 L181.159248,72.6810269 L177.931926,76.9315755 C177.225407,77.8622512 175.860936,77.9560133 175.035315,77.1283602 C174.246118,76.3394326 174.294533,75.0590073 175.110161,74.3290959 L175.231891,74.2286803 L179.477942,70.9990968 L183.66502,67.7313139 C183.607203,64.9164473 184.654829,62.1968309 186.573521,60.1528567 L186.80793,59.91086 L196.274819,50.4327847 L186.916625,40.9697577 C185.515361,41.6315382 179.999219,42.7532227 177.510805,40.5641711 L177.342197,40.4060275 L174.221257,37.2817816 C173.54416,36.6028746 173.506544,35.5254178 174.109382,34.8022274 L174.222413,34.6784363 L182.371084,26.5211334 C183.048181,25.8422263 184.125468,25.8045093 184.848004,26.4079822 Z M370.947644,75.7398551 L367.860533,75.7400776 C367.395644,75.7400776 366.930756,75.7400776 366.464978,75.7409674 C366.224978,75.7418573 365.979644,75.7988064 365.8952,76.0346115 C365.829422,76.2214759 365.814311,76.4617301 365.872978,76.6485945 C365.955644,76.913764 366.212533,76.9787217 366.4792,76.9778318 L368.393867,76.9763859 L370.872089,76.976942 C371.950311,76.976942 373.029422,76.9805013 374.107644,76.9751623 C374.554756,76.9733827 374.813422,76.7010945 374.776089,76.294442 C374.7432,75.9349505 374.491644,75.7409674 374.034756,75.7409674 L370.947644,75.7398551 Z M369.1832,67.8854547 C370.827644,67.8845649 372.4712,67.8845649 374.115644,67.8854547 C375.515644,67.8863445 376.608978,68.955031 376.640089,70.3485056 C376.669422,71.7232937 375.586756,72.8507089 374.193867,72.8916412 C374.0232,72.8969801 373.852533,72.8959914 373.671858,72.8947391 L373.392089,72.8934208 L373.392089,71.0087598 C373.640978,71.0087598 373.874756,71.0140988 374.108533,71.0069801 C374.529867,70.9945225 374.784089,70.7507089 374.779644,70.3769801 C374.776089,69.9979123 374.5272,69.7736751 374.089867,69.7736751 C371.554756,69.7718954 369.019644,69.7710056 366.484533,69.7736751 C366.049867,69.7745649 365.793867,70.0032513 365.787644,70.3752005 C365.782311,70.7427005 366.043644,70.9909632 366.462311,71.0069801 C366.619941,71.0123191 366.777175,71.0109349 366.939809,71.0094189 L367.188533,71.00787 L367.188533,72.8685056 C366.188533,72.9788445 365.267644,72.8551581 364.5672,72.047192 C363.8952,71.2730395 363.742311,70.3769801 364.126311,69.4382089 C364.520089,68.471853 365.2872,67.9406242 366.331644,67.8979123 C367.280089,67.8587598 368.232978,67.8863445 369.1832,67.8854547 Z M59.5835628,33.7918162 C58.2715628,34.0009264 57.4617851,35.0669434 57.4582295,36.6704179 L57.4523406,44.4973671 L57.4537851,52.3243162 L57.4537851,53.9260111 C57.4546739,58.6928332 57.4546739,63.4587654 57.4555628,68.2246976 C57.4555628,69.3316467 57.8484517,70.2410535 58.8493406,70.7874095 C59.7604517,71.283045 60.6786739,71.2082993 61.5275628,70.6281298 C62.4404517,70.0043586 62.6200073,69.0602484 62.6191217,68.0262654 C62.6120073,57.5903332 62.6146739,47.154401 62.6137851,36.7184688 C62.6137851,36.5129179 62.6200073,36.3055874 62.5995628,36.1027061 C62.4333406,34.4921128 61.1826739,33.535545 59.5835628,33.7918162 Z M376.605067,57.7127344 C376.605067,58.1896835 376.609511,58.6337089 376.603289,59.0777344 C376.597956,59.4888361 376.727733,60.0040479 376.529511,60.2834547 C376.319733,60.5797683 375.797956,60.6607428 375.405956,60.8218022 C374.181067,61.3245564 372.9544,61.8219717 371.629067,62.3612089 C373.176622,62.98587 374.601511,63.5829462 376.044178,64.1319717 C376.469956,64.293031 376.6504,64.4896835 376.616622,64.9612937 C376.5704,65.6144293 376.605067,66.2737937 376.605067,67.0016751 C376.415733,66.9384971 376.2744,66.9002344 376.140178,66.8459547 C373.619289,65.8262089 371.102844,64.7993445 368.577511,63.7929462 C368.276178,63.6728191 367.931289,63.6087513 367.606844,63.6069717 C366.041215,63.5962937 364.47598,63.5962937 362.910614,63.5974801 L360.5624,63.5989632 L360.077067,63.5989632 L360.077067,61.1314632 L360.523289,61.1314632 C362.896622,61.1314632 365.270844,61.1368022 367.645067,61.1234547 C367.931289,61.1225649 368.235289,61.0638361 368.501956,60.9579462 C371.110844,59.9186242 373.7144,58.8641751 376.319733,57.8141751 C376.389067,57.7865903 376.461956,57.7634547 376.605067,57.7127344 Z M268.4416,44.6758276 C267.927081,47.8642757 267.41093,53.9759298 266.891582,57.4353894 L266.823822,57.8711242 L270.260267,57.8711242 C269.707378,54.4586242 269.174933,47.9788784 268.640711,44.6820564 C268.574933,44.6802767 268.508267,44.6784971 268.4416,44.6758276 Z M376.5992,49.5678488 L376.5992,56.8822556 L374.184089,56.8822556 L374.184089,54.4681454 L360.068533,54.4681454 L360.068533,51.9988657 L374.152978,51.9988657 L374.152978,49.5678488 L376.5992,49.5678488 Z M373.365689,42.043264 C375.193244,42.0850861 376.546133,43.4305098 376.597689,45.2261878 C376.647467,46.9809335 375.311467,48.4224589 373.501689,48.5514844 C373.215111,48.5714166 372.926258,48.5617352 372.59963,48.5570654 L372.347022,48.5550437 L372.347022,46.0919928 C372.698133,46.0919928 373.003911,46.0973318 373.310578,46.091103 C373.846578,46.0804251 374.168356,45.7850013 374.176356,45.3053827 C374.184356,44.8195352 373.842133,44.4787301 373.307911,44.4733912 C372.417244,44.4644928 371.526578,44.4680522 370.635911,44.4707217 C369.950578,44.4733912 369.678578,44.7341115 369.640356,45.4175013 C369.544356,47.135764 368.5408,48.3334759 366.873244,48.6066539 C366.230578,48.7125437 365.560356,48.6609335 364.903467,48.6547047 C364.144356,48.6458064 363.371022,48.6938573 362.629689,48.563942 C360.976356,48.2738573 359.912356,46.7753827 360.058133,45.0802556 C360.195911,43.48212 361.561244,42.1980945 363.187911,42.1464844 C363.426133,42.1381793 363.664751,42.1401567 363.910611,42.1423977 L364.285689,42.1447047 L364.285689,44.6148742 C363.954133,44.6148742 363.635911,44.6095352 363.318578,44.615764 C362.793244,44.626442 362.459022,44.9387725 362.459022,45.4094928 C362.459911,45.8624166 362.771911,46.1791962 363.291022,46.1872047 C364.323022,46.2041115 365.355022,46.2050013 366.387022,46.1872047 C366.945244,46.1765267 367.2048,45.8802132 367.206578,45.3302979 C367.213689,43.5372895 368.558578,42.1135606 370.345244,42.0512725 C371.351467,42.0165691 372.359467,42.0201284 373.365689,42.043264 Z M360.0496,32.898031 C360.6896,32.9950225 361.294044,33.0822259 361.896711,33.1801073 C364.237156,33.5591751 366.576711,33.9435818 368.917156,34.3235395 C371.371378,34.7212937 373.826489,35.1172683 376.282489,35.5079039 C376.510044,35.5434971 376.616711,35.6191327 376.610489,35.874514 C376.5936,36.6104039 376.596267,37.3471835 376.6096,38.0830734 C376.614044,38.3304462 376.523378,38.4123106 376.285156,38.4505734 C371.958933,39.1428615 367.634489,39.8431581 363.310933,40.5443445 C362.59923,40.6594293 361.887921,40.7780734 361.163575,40.8989585 L360.0656,41.0818022 L360.0656,38.5982852 C360.8496,38.4701496 361.634489,38.3437937 362.418489,38.2156581 C362.914489,38.1346835 363.412267,38.0652767 363.902933,37.9593869 C364.006044,37.9362513 364.148267,37.7769717 364.1536,37.6746412 C364.178489,37.1478615 364.166044,36.6184123 364.166044,36.0418022 C363.534044,35.9385818 362.916267,35.8371412 362.2976,35.7374801 C361.636267,35.6298106 360.974044,35.5328191 360.315378,35.4091327 C360.214933,35.3904462 360.063822,35.255192 360.062044,35.1697683 C360.040711,34.4365479 360.0496,33.7015479 360.0496,32.898031 Z M183.670801,30.4267301 L178.122721,35.9806878 L179.942787,37.8026822 C181.476083,39.336445 183.956415,39.3387601 185.489711,37.8038398 C185.490868,37.8038398 185.490868,37.8038398 185.490868,37.8026822 C185.492024,37.8026822 185.492024,37.8026822 185.492024,37.8015247 C186.967982,36.3228855 187.018877,33.9496711 185.643668,32.410379 L185.490868,32.2487246 L183.670801,30.4267301 Z M366.602489,36.4422259 L366.602489,37.5287089 C367.653156,37.3560818 369.836267,37.1896835 370.854044,37.0223954 C370.855822,36.9974801 370.8576,36.9716751 370.859378,36.94587 C369.837156,36.7794717 367.650489,36.6130734 366.602489,36.4422259 Z M376.549956,25.9820013 C376.565956,26.020264 376.592622,26.0558573 376.592622,26.0905606 C376.582844,27.4982725 376.639733,28.9104335 376.537511,30.3119166 C376.433511,31.7392047 375.063733,32.9653912 373.631733,33.0125522 C372.459289,33.0517047 371.283289,33.0534844 370.109067,33.013442 C368.464622,32.9582725 367.087733,31.4535691 367.109956,29.8011539 C367.115289,29.4634632 367.113122,29.1257725 367.111706,28.7685612 L367.110844,28.40412 L360.073511,28.40412 L360.073511,25.9820013 L376.549956,25.9820013 Z M374.160622,28.4272556 L369.531289,28.4272556 C369.531289,28.923781 369.517956,29.3873827 369.535733,29.8492047 C369.549956,30.2247132 369.799733,30.5334844 370.189067,30.5450522 C371.294844,30.5770861 372.403289,30.5744166 373.509956,30.551281 C373.865511,30.5441623 374.125956,30.2994589 374.151733,29.9372979 C374.188178,29.4407725 374.160622,28.9397979 374.160622,28.4272556 Z M376.444444,16.221147 L376.444444,17.1109775 L23.1111111,17.1109775 L23.1111111,16.221147 L376.444444,16.221147 Z" id="Combined-Shape" fill="#F9BA06" fill-rule="evenodd"></path>
            </g>
        </g>
    </g>
</svg>