<?xml version="1.0" encoding="UTF-8"?>
<svg width="80px" height="80px" viewBox="0 0 80 80" version="1.1" xmlns="http://www.w3.org/2000/svg" xmlns:xlink="http://www.w3.org/1999/xlink" style="background: #888888;">
    <!-- Generator: Sketch 58 (84663) - https://sketch.com -->
    <title>01 Atoms / Media / Icons / Facebook </title>
    <desc>Created with Sketch.</desc>
    <g id="01-Atoms-/-Media-/-Icons-/-Facebook-" stroke="none" stroke-width="1" fill="none" fill-rule="evenodd">
        <rect fill="#888888" x="0" y="0" width="80" height="80"></rect>
        <path d="M78.4361744,34.7010084 L71.9307137,26.0453124 L69.9943234,15.3930104 C69.3930279,12.0870344 66.7550303,9.54834253 63.4263476,9.07567016 L52.7067878,7.55461076 L43.8057736,1.39133097 C41.5695978,-0.157177626 38.7470726,-0.430663645 36.2545127,0.659112754 C35.7035167,0.899832188 35.1798262,1.20536623 34.6962316,1.56896036 L26.0411105,8.07370246 L15.3880899,10.0100927 C14.7934051,10.1180212 14.2129479,10.2957943 13.6612333,10.5365138 C11.2066137,11.609332 9.44814024,13.9244063 9.07161193,16.5769189 L7.5512711,27.2961912 L1.38741645,36.19893 C-0.525548556,38.9613831 -0.454410574,42.6226179 1.56418356,45.3090468 L8.06964423,53.9637368 L10.0051722,64.61647 C10.6064678,67.9228772 13.2444654,70.4611378 16.5727169,70.9336665 L27.293139,72.4547259 L36.1932909,78.6180057 C38.3964127,80.1426579 41.2897884,80.4247667 43.7446955,79.3509425 C44.2969849,79.1097919 44.8222563,78.8032519 45.3038389,78.4409512 L53.9598223,71.9353468 L64.613274,69.9989565 C65.2072402,69.891028 65.7876974,69.7132549 66.3398432,69.4728229 C68.7940317,68.3997172 70.5525051,66.0855052 70.9291771,63.4318429 L72.4493742,52.7119958 L78.6133726,43.8104067 C80.5259065,41.047235 80.4536188,37.3861439 78.4361744,34.7010084 Z M39.9998197,68.4635258 C24.3034754,68.4635258 11.5344232,55.6943299 11.5344232,39.9985605 C11.5344232,24.3022163 24.3036192,11.5331641 39.9998197,11.5331641 C55.6960202,11.5331641 68.4652161,24.3022163 68.4652161,39.9985605 C68.4652161,55.6944736 55.6961639,68.4635258 39.9998197,68.4635258 Z" id="Shape" fill="#2E2E2E"></path>
        <path d="M39.9998197,14.2170061 C25.7844389,14.2170061 14.2182653,25.78203 14.2182653,39.9985605 C14.2182653,54.2136539 25.7837203,65.7801149 39.9998197,65.7801149 C54.215919,65.7801149 65.7810866,54.2136539 65.7810866,39.9985605 C65.7810866,25.7821737 54.2152005,14.2170061 39.9998197,14.2170061 Z M48.0030582,40.0116384 L42.7670153,40.0116384 C42.7670153,48.3771777 42.7670153,58.678676 42.7670153,58.678676 L35.0072268,58.678676 C35.0072268,58.678676 35.0072268,48.4790703 35.0072268,40.0116384 L31.3181116,40.0116384 L31.3181116,33.4146325 L35.0072268,33.4146325 L35.0072268,29.1472159 C35.0072268,26.091588 36.4580104,21.3160019 42.8384407,21.3160019 L48.5848088,21.3387086 L48.5848088,27.7404084 C48.5848088,27.7404084 45.0908561,27.7404084 44.4115243,27.7404084 C43.7327673,27.7404084 42.7677339,28.079715 42.7677339,29.5368221 L42.7677339,33.4139139 L48.6815277,33.4139139 L48.0030582,40.0116384 Z" id="Shape" fill="#2E2E2E"></path>
    </g>
</svg>