<?xml version="1.0" encoding="UTF-8"?>
<svg width="624px" height="160px" viewBox="0 0 624 160" version="1.1" xmlns="http://www.w3.org/2000/svg" xmlns:xlink="http://www.w3.org/1999/xlink">
    <!-- Generator: Sketch 58 (84663) - https://sketch.com -->
    <title>Group</title>
    <desc>Created with Sketch.</desc>
    <g id="🖥-PAGES" stroke="none" stroke-width="1" fill="none" fill-rule="evenodd">
        <g id="100_CJPC_Landing-page_Desktop-L" transform="translate(-104.000000, -241.000000)">
            <g id="Group" transform="translate(104.000000, 241.000000)">
                <path d="M275.041667,58.7452799 L274.391667,61.2369466 C275.836118,61.2369466 276.829164,61.0563929 277.370833,60.6952799 C277.912503,60.334167 278.255555,59.6841735 278.4,58.7452799 L275.041667,58.7452799 Z M255.866667,56.5786133 C255.288886,58.9619585 254.386117,60.5688869 253.158333,61.3994466 C251.930549,62.2300063 250.486119,62.6452799 248.825,62.6452799 L248.825,70.2286133 L270.383333,70.2286133 L270.383333,62.6452799 C269.227772,62.6452799 268.126394,62.3925047 267.079167,61.8869466 C266.031939,61.3813885 265.508333,60.4063983 265.508333,58.9619466 C265.508333,58.3661103 265.56927,57.7702807 265.691145,57.1744477 L267.241667,50.6202799 L278.291667,50.6202799 L279.7,56.5786133 C279.916668,57.3730617 280.025,58.0952767 280.025,58.7452799 C280.025,60.1897316 279.501394,61.2008326 278.454167,61.7786133 C277.406939,62.3563939 276.269451,62.6452799 275.041667,62.6452799 L275.041667,70.2286133 L300.175,70.2286133 L300.175,62.6452799 C298.513881,62.6452799 297.105561,62.2300063 295.95,61.3994466 C294.794439,60.5688869 293.927781,58.9619585 293.35,56.5786133 L281.325,2.95361328 L268,2.95361328 L255.866667,56.5786133 Z M276.45,42.0619466 L269.191667,42.0619466 L272.766667,26.0286133 L276.45,42.0619466 Z M276.775,14.1119466 C276.919445,15.5563983 277.045833,16.9827729 277.154167,18.3911133 C277.262501,19.7994537 277.316667,21.0813853 277.316667,22.2369466 C277.316667,23.3202854 277.244445,24.4938847 277.1,25.7577799 C276.955555,27.0216752 276.70278,28.2313853 276.341667,29.3869466 C277.425005,30.0369499 278.418051,30.9036079 279.320833,31.9869466 C280.223616,33.0702854 280.999997,34.2619401 281.65,35.5619466 C281.794445,32.7452659 282.624992,30.6869531 284.141667,29.3869466 C282.697215,27.2924917 281.415283,25.0536252 280.295833,22.6702799 C279.176383,20.2869347 278.002784,17.4341854 276.775,14.1119466 Z M269.3,4.57861328 L280.025,4.57861328 L287.175,36.3202799 C286.380552,36.0313896 285.658337,35.8869466 285.008333,35.8869466 C283.852772,35.8869466 283.275,36.5008294 283.275,37.7286133 C283.275,38.9563972 283.654163,40.1119412 284.4125,41.1952799 C285.170837,42.2786187 286.163883,43.0730552 287.391667,43.5786133 C287.174999,44.5897294 287.030556,45.6911073 286.958333,46.8827799 C286.886111,48.0744526 286.85,49.3202734 286.85,50.6202799 C286.85,52.2091768 286.868055,53.6355514 286.904167,54.8994466 C286.940278,56.1633418 287.102776,57.9147132 287.391667,60.1536133 C286.813886,58.0591584 286.200003,56.2175101 285.55,54.6286133 C284.899997,53.0397164 284.250003,51.6313972 283.6,50.4036133 C282.949997,49.1758294 282.300003,48.0202854 281.65,46.9369466 L280.301853,44.7221332 C280.069137,44.3449733 279.832409,43.9638004 279.591667,43.5786133 C280.24167,43.1452778 280.74722,42.5675058 281.108333,41.8452799 C281.469446,41.1230541 281.65,40.4008391 281.65,39.6786133 C281.65,38.8119423 281.397225,37.9633397 280.891667,37.1327799 C280.386109,36.3022202 279.591672,35.8869466 278.508333,35.8869466 C277.85833,35.8869466 277.244447,36.0313896 276.666667,36.3202799 L272.766667,18.9869466 L268.866667,36.3202799 C266.916657,36.3202799 265.941667,37.1147164 265.941667,38.7036133 C265.941667,39.3536165 266.068054,40.0397208 266.320833,40.7619466 C266.573612,41.4841724 267.061107,42.4230519 267.783333,43.5786133 C266.194437,44.8786198 264.804173,46.8105449 263.6125,49.3744466 C262.420827,51.9383483 261.030563,55.5313679 259.441667,60.1536133 C260.019447,57.9869358 260.452776,56.0008445 260.741667,54.1952799 C261.030557,52.3897154 261.175,50.6202886 261.175,48.8869466 C261.175,48.0202756 261.138889,47.1536176 261.066667,46.2869466 C260.994444,45.4202756 260.850001,44.5175069 260.633333,43.5786133 C261.861117,43.0008326 262.799997,42.2425069 263.45,41.3036133 C264.100003,40.3647197 264.425,39.4980617 264.425,38.7036133 C264.425,37.0424939 263.919449,36.2119466 262.908333,36.2119466 C262.619443,36.2119466 262.366668,36.2480574 262.15,36.3202799 L269.3,4.57861328 Z M270.383333,14.1119466 L268.914334,18.7074441 C268.579224,19.7676641 268.238335,20.8538855 267.891667,21.9661133 C267.024996,24.7466827 265.977784,27.2202691 264.75,29.3869466 C264.966668,29.8202821 265.183332,30.3619434 265.4,31.0119466 C265.616668,31.6619499 265.725,32.3480541 265.725,33.0702799 L265.725,34.3702799 C265.725,34.875838 265.652778,35.4174993 265.508333,35.9952799 C266.158337,34.4786057 266.736109,33.2508402 267.241667,32.3119466 C267.747225,31.373053 268.433329,30.4341735 269.3,29.4952799 C269.083332,28.1952734 268.975,26.9313972 268.975,25.7036133 C268.975,23.6091584 269.137498,21.568901 269.4625,19.5827799 L270.207833,15.1281155 C270.267055,14.7828933 270.325555,14.4441705 270.383333,14.1119466 Z M247.2,61.0202799 C248.933342,61.0202799 250.449993,60.6952832 251.75,60.0452799 C253.050006,59.3952767 253.916665,58.1314004 254.35,56.2536133 L266.7,1.32861328 L282.516667,1.32861328 L291.616667,9.02027995 L303.533333,61.1286133 L310.141667,66.2202799 L310.141667,79.3286133 L283.708333,79.3286133 L276.45,74.1286133 L276.45,79.3286133 L254.783333,79.3286133 L247.2,71.7452799 L247.2,61.0202799 Z M328.016667,14.1119466 L327.793229,16.5155978 C327.563021,18.8312223 327.312501,20.882771 327.041667,22.6702799 C326.680554,25.0536252 326.211114,27.2924917 325.633333,29.3869466 C326.138891,30.1091724 326.608331,30.9577751 327.041667,31.9327799 C327.475002,32.9077848 327.799999,34.1174949 328.016667,35.5619466 C328.305557,34.1174949 328.630554,32.8897294 328.991667,31.8786133 C329.35278,30.8674971 329.822219,30.0369499 330.4,29.3869466 C329.822219,27.2924917 329.35278,25.0536252 328.991667,22.6702799 C328.630554,20.2869347 328.305557,17.4341854 328.016667,14.1119466 Z M362.25,70.2286133 L362.25,16.4952799 C362.25,14.1841573 362.773606,12.6133397 363.820833,11.7827799 C364.868061,10.9522202 366.294435,10.5369466 368.1,10.5369466 L368.1,2.95361328 L347.516667,2.95361328 L347.516667,10.5369466 C349.322231,10.5369466 350.748606,10.9702756 351.795833,11.8369466 C352.843061,12.7036176 353.366667,14.2924906 353.366667,16.6036133 L353.366667,39.3536133 L339.933333,2.95361328 L316.641667,2.95361328 L316.641667,10.5369466 C318.447231,10.5369466 320.05416,10.9702756 321.4625,11.8369466 C322.87084,12.7036176 323.575,14.2924906 323.575,16.6036133 L323.575,56.5786133 C323.575,58.8897359 322.961117,60.4786089 321.733333,61.3452799 C320.505549,62.2119509 318.808344,62.6452799 316.641667,62.6452799 L316.641667,70.2286133 L339.391667,70.2286133 L339.391667,62.6452799 C338.813886,62.6452799 338.145837,62.5550031 337.3875,62.3744466 C336.629163,62.1938902 335.870837,61.8688934 335.1125,61.3994466 C334.354163,60.9299998 333.722225,60.3161171 333.216667,59.5577799 C332.711109,58.7994428 332.458333,57.8063972 332.458333,56.5786133 L332.458333,26.4619466 L348.925,70.2286133 L362.25,70.2286133 Z M366.475,9.12861328 C364.669435,9.12861328 363.243061,9.68832991 362.195833,10.8077799 C361.148606,11.92723 360.625,13.5341584 360.625,15.6286133 L360.625,36.3202799 L360.272916,36.1306965 C360.182639,36.0765299 360.119445,36.0313912 360.083333,35.9952799 C360.011111,35.9230574 359.866668,35.8869466 359.65,35.8869466 C358.855552,35.8869466 358.458333,36.9341584 358.458333,39.0286133 C358.458333,39.8952843 358.584721,40.7799977 358.8375,41.6827799 C359.090279,42.5855622 359.577774,43.2175004 360.3,43.5786133 C359.722219,45.8897359 359.234724,48.5619314 358.8375,51.5952799 C358.440276,54.6286284 358.097224,57.4813777 357.808333,60.1536133 L357.435667,56.8602785 C357.236334,55.1702824 357.017501,53.415289 356.779167,51.5952799 C356.381942,48.5619314 355.894447,45.8897359 355.316667,43.5786133 C356.038892,43.2175004 356.526388,42.5855622 356.779167,41.6827799 C357.031946,40.7799977 357.158333,39.8952843 357.158333,39.0286133 C357.158333,36.9341584 356.761115,35.8869466 355.966667,35.8869466 C355.822221,35.8869466 355.497225,36.0313896 354.991667,36.3202799 L354.991667,15.6286133 C354.991667,13.5341584 354.468061,11.92723 353.420833,10.8077799 C352.373606,9.68832991 350.947231,9.12861328 349.141667,9.12861328 L349.141667,4.57861328 L366.475,4.57861328 L366.475,9.12861328 Z M357.808333,14.1119466 L357.584895,16.5155978 C357.354687,18.8312223 357.104168,20.882771 356.833333,22.6702799 C356.47222,25.0536252 356.002781,27.2924917 355.425,29.3869466 C355.930558,30.1091724 356.399998,30.9577751 356.833333,31.9327799 C357.266669,32.9077848 357.591666,34.1174949 357.808333,35.5619466 C358.097224,34.1174949 358.42222,32.8897294 358.783333,31.8786133 C359.144446,30.8674971 359.613886,30.0369499 360.191667,29.3869466 C359.613886,27.2924917 359.144446,25.0536252 358.783333,22.6702799 C358.42222,20.2869347 358.097224,17.4341854 357.808333,14.1119466 Z M350.766667,36.7536133 C350.333331,36.5369455 349.737504,36.3563918 348.979167,36.2119466 C348.22083,36.0675014 347.625002,35.9952799 347.191667,35.9952799 C346.18055,35.9952799 345.675,36.3924982 345.675,37.1869466 C345.675,38.4869531 346.198606,39.732774 347.245833,40.9244466 C348.293061,42.1161192 349.430549,43.0008326 350.658333,43.5786133 C350.658333,45.6008456 350.74861,48.074432 350.929167,50.9994466 C351.109723,53.9244612 351.452775,57.0119304 351.958333,60.2619466 C350.513882,56.72304 349.105562,53.6175155 347.733333,50.9452799 C346.361104,48.2730444 344.73612,45.8536241 342.858333,43.6869466 C343.941672,42.9647208 344.483333,41.773066 344.483333,40.1119466 C344.483333,39.1008304 344.10417,38.1619509 343.345833,37.2952799 C342.587496,36.4286089 341.666672,35.9952799 340.583333,35.9952799 C340.22222,35.9952799 339.806947,36.0313907 339.3375,36.1036133 C338.868053,36.1758359 338.45278,36.2841681 338.091667,36.4286133 L330.833333,18.3369466 L330.833333,36.3202799 L330.48125,36.1306965 C330.390972,36.0765299 330.327778,36.0313912 330.291667,35.9952799 C330.219444,35.9230574 330.075001,35.8869466 329.858333,35.8869466 C329.063885,35.8869466 328.666667,36.9341584 328.666667,39.0286133 C328.666667,39.8952843 328.793054,40.7799977 329.045833,41.6827799 C329.298612,42.5855622 329.786107,43.2175004 330.508333,43.5786133 C329.930553,45.8897359 329.443058,48.5619314 329.045833,51.5952799 C328.648609,54.6286284 328.305557,57.4813777 328.016667,60.1536133 L327.644,56.8602785 C327.444667,55.1702824 327.225835,53.415289 326.9875,51.5952799 C326.590276,48.5619314 326.102781,45.8897359 325.525,43.5786133 C326.247226,43.2175004 326.734721,42.5855622 326.9875,41.6827799 C327.240279,40.7799977 327.366667,39.8952843 327.366667,39.0286133 C327.366667,36.9341584 326.969448,35.8869466 326.175,35.8869466 C326.030555,35.8869466 325.705558,36.0313896 325.2,36.3202799 L325.2,15.6286133 C325.2,13.5341584 324.49584,11.92723 323.0875,10.8077799 C321.67916,9.68832991 320.072231,9.12861328 318.266667,9.12861328 L318.266667,4.57861328 L338.85,4.57861328 L350.766667,36.7536133 Z M354.016667,79.3286133 L347.083333,71.7452799 L347.083333,79.3286133 L322.058333,79.3286133 L315.016667,71.7452799 L315.016667,61.2369466 C317.111122,61.2369466 318.790271,60.8758391 320.054167,60.1536133 C321.318062,59.4313874 321.95,57.6980714 321.95,54.9536133 L321.95,17.6869466 L315.016667,12.0536133 L315.016667,1.32861328 L341.016667,1.32861328 L345.891667,6.85361328 L345.891667,1.32861328 L369.616667,1.32861328 L377.2,9.02027995 L377.2,19.6369466 C375.755548,19.6369466 374.636115,19.9619434 373.841667,20.6119466 C373.047218,21.2619499 372.65,22.7424906 372.65,25.0536133 L372.65,79.3286133 L354.016667,79.3286133 Z M336.033333,14.1119466 C336.611114,16.1341789 337.098609,18.2286024 337.495833,20.3952799 L337.756511,21.9322628 C337.979949,23.3812212 338.091667,24.5661087 338.091667,25.4869466 C338.091667,26.1369499 338.055556,26.8049987 337.983333,27.4911133 C337.911111,28.1772278 337.802778,28.8452767 337.658333,29.4952799 C338.886117,30.1452832 340.041661,30.9577751 341.125,31.9327799 C342.208339,32.9077848 343.147218,34.1536057 343.941667,35.6702799 C343.941667,34.5869412 344.049999,33.4675079 344.266667,32.3119466 C344.483334,31.1563853 344.880553,30.2175058 345.458333,29.4952799 C343.797214,27.400825 342.226396,25.1439032 340.745833,22.7244466 C339.26527,20.3049901 337.694453,17.4341854 336.033333,14.1119466 Z M344.375,63.6202799 L341.558333,55.9286133 L341.558333,61.0202799 L344.375,63.6202799 Z M405.908333,70.2286133 C410.458356,70.2286133 414.322206,69.4522322 417.5,67.8994466 C420.677794,66.3466611 423.259712,64.1439053 425.245833,61.2911133 C427.231954,58.4383212 428.676384,55.0258554 429.579167,51.0536133 C430.481949,47.0813712 430.933333,42.7119704 430.933333,37.9452799 C430.933333,32.7452539 430.391672,28.0147457 429.308333,23.7536133 C428.224995,19.4924809 426.600011,15.8091844 424.433333,12.7036133 C422.266656,9.5980422 419.504183,7.19667732 416.145833,5.49944661 C412.787483,3.80221591 408.833356,2.95361328 404.283333,2.95361328 L383.158333,2.95361328 L383.158333,10.5369466 C384.675008,10.5369466 385.99305,10.9702756 387.1125,11.8369466 C388.23195,12.7036176 388.791667,14.2924906 388.791667,16.6036133 L388.791667,56.5786133 C388.791667,58.8897359 388.23195,60.4786089 387.1125,61.3452799 C385.99305,62.2119509 384.675008,62.6452799 383.158333,62.6452799 L383.158333,70.2286133 L405.908333,70.2286133 Z M395.616667,14.1119466 C395.183331,17.506408 394.677781,20.395268 394.1,22.7786133 C393.522219,25.1619585 392.727783,27.3647143 391.716667,29.3869466 C392.65556,30.0369499 393.449997,30.9036079 394.1,31.9869466 C394.750003,33.0702854 395.255554,34.2619401 395.616667,35.5619466 C396.411115,32.7452659 397.711102,30.6869531 399.516667,29.3869466 C398.50555,27.2924917 397.711114,25.0536252 397.133333,22.6702799 C396.555553,20.2869347 396.050002,17.4341854 395.616667,14.1119466 Z M404.716667,4.57861328 C408.688909,4.57861328 412.173596,5.39110516 415.170833,7.01611328 C418.168071,8.64112141 420.677768,10.7716557 422.7,13.4077799 C424.722232,16.0439042 426.238884,19.0230411 427.25,22.3452799 C428.261116,25.6675188 428.766667,29.0619293 428.766667,32.5286133 C428.766667,33.1786165 428.748611,33.82861 428.7125,34.4786133 C428.676389,35.1286165 428.622223,35.7424993 428.55,36.3202799 C428.188887,36.2480574 427.845835,36.1938912 427.520833,36.1577799 C427.195832,36.1216687 426.88889,36.1036133 426.6,36.1036133 C425.588884,36.1036133 424.920835,36.5188869 424.595833,37.3494466 C424.270832,38.1800063 424.108333,38.8841659 424.108333,39.4619466 C424.108333,40.3286176 424.397219,41.1952756 424.975,42.0619466 C425.552781,42.9286176 426.347217,43.6869434 427.358333,44.3369466 C426.780553,47.0091822 425.841673,49.7897099 424.541667,52.6786133 C423.24166,55.5675166 421.255569,57.9508261 418.583333,59.8286133 C419.088891,58.6730519 419.540276,57.3008434 419.9375,55.7119466 C420.334724,54.1230498 420.533333,52.642509 420.533333,51.2702799 C420.533333,50.1147186 420.406946,48.9050085 420.154167,47.6411133 C419.901388,46.3772181 419.413892,45.2758402 418.691667,44.3369466 C419.413892,43.9758337 420.226384,43.3258402 421.129167,42.3869466 C422.031949,41.448053 422.483333,40.4730628 422.483333,39.4619466 C422.483333,38.4508304 422.176392,37.6202832 421.5625,36.9702799 C420.948608,36.3202767 420.244448,35.9952799 419.45,35.9952799 C419.016664,35.9952799 418.583335,36.1036122 418.15,36.3202799 C418.005555,33.0702637 417.75278,29.8383516 417.391667,26.6244466 C417.030554,23.4105417 416.38056,20.5036263 415.441667,17.9036133 C414.502773,15.3036003 413.184731,13.2091768 411.4875,11.6202799 C409.790269,10.0313831 407.497237,9.23694661 404.608333,9.23694661 L400.816667,9.23694661 L400.816667,36.3202799 C400.166663,36.0313896 399.51667,35.8869466 398.866667,35.8869466 C397.27777,35.8869466 396.483333,36.9341584 396.483333,39.0286133 C396.483333,39.8952843 396.718053,40.7799977 397.1875,41.6827799 C397.656947,42.5855622 398.433328,43.2175004 399.516667,43.5786133 C398.50555,45.8897359 397.693059,48.5619314 397.079167,51.5952799 C396.465275,54.6286284 395.97778,57.4813777 395.616667,60.1536133 C395.255554,57.4813777 394.731948,54.6286284 394.045833,51.5952799 C393.359719,48.5619314 392.583338,45.8897359 391.716667,43.5786133 C392.800005,43.2175004 393.576387,42.5855622 394.045833,41.6827799 C394.51528,40.7799977 394.75,39.8952843 394.75,39.0286133 C394.75,36.9341584 393.955563,35.8869466 392.366667,35.8869466 C391.716663,35.8869466 391.06667,36.0313896 390.416667,36.3202799 L390.416667,15.6286133 C390.416667,13.6063809 389.893061,12.0536187 388.845833,10.9702799 C387.798606,9.8869412 386.444453,9.27305845 384.783333,9.12861328 L384.783333,4.57861328 L404.716667,4.57861328 Z M389.225,79.3286133 L381.533333,71.7452799 L381.533333,61.2369466 C383.41112,61.2369466 384.81944,60.8577837 385.758333,60.0994466 C386.697227,59.3411095 387.166667,57.5897381 387.166667,54.8452799 L387.166667,17.6869466 L381.533333,12.0536133 L381.533333,1.32861328 L403.958333,1.32861328 C410.530588,1.32861328 416.127755,2.50221266 420.75,4.84944661 C425.372245,7.19668057 429.127763,10.2841497 432.016667,14.1119466 C434.90557,17.9397435 437.018049,22.2549782 438.354167,27.0577799 C439.690284,31.8605817 440.358333,36.6813669 440.358333,41.5202799 C440.358333,47.225864 439.762506,52.4077567 438.570833,57.0661133 C437.379161,61.7244699 435.483346,65.6966524 432.883333,68.9827799 C430.28332,72.2689075 426.925021,74.8147154 422.808333,76.6202799 C418.691646,78.4258445 413.708363,79.3286133 407.858333,79.3286133 L389.225,79.3286133 Z M404.716667,10.8619466 C407.027789,10.8619466 408.923604,11.6383277 410.404167,13.1911133 C411.88473,14.7438988 413.058329,16.7841562 413.925,19.3119466 C414.791671,21.839737 415.405554,24.728597 415.766667,27.9786133 C416.12778,31.2286295 416.308333,34.5508185 416.308333,37.9452799 C416.308333,40.6897381 416.218056,43.5063766 416.0375,46.3952799 C415.856944,49.2841833 415.387504,51.9383234 414.629167,54.3577799 C413.87083,56.7772365 412.715286,58.7633277 411.1625,60.3161133 C409.609714,61.8688988 407.461125,62.6452799 404.716667,62.6452799 L402.55,62.6452799 L402.55,10.8619466 L404.716667,10.8619466 Z M411.541667,20.2869466 L411.541667,57.1202799 C412.769451,55.6036057 413.599998,53.1300193 414.033333,49.6994466 C414.466669,46.2688739 414.683333,42.3508575 414.683333,37.9452799 C414.683333,33.8285927 414.448613,30.1452962 413.979167,26.8952799 L413.745948,25.3575432 C413.35976,22.9401005 412.986113,21.2499144 412.625,20.2869466 L411.541667,20.2869466 Z M418.583333,14.2202799 C420.966679,16.2425123 422.808327,18.5536003 424.108333,21.1536133 C425.40834,23.7536263 426.419441,26.4980433 427.141667,29.3869466 C426.202773,29.9647273 425.408337,30.8313853 424.758333,31.9869466 C424.10833,33.1425079 423.566669,34.3341627 423.133333,35.5619466 C422.988888,34.3341627 422.537504,33.1425079 421.779167,31.9869466 C421.02083,30.8313853 420.136116,30.000838 419.125,29.4952799 C420.063894,27.6174928 420.533333,25.6675123 420.533333,23.6452799 C420.533333,21.9841605 420.35278,20.3591768 419.991667,18.7702799 C419.630554,17.1813831 419.161114,15.6647316 418.583333,14.2202799 Z" id="AND" fill="#FFFFFF" fill-rule="nonzero"></path>
                <path d="M3.2277832,1.04150391 L30.3763184,1.04150391 L30.3763184,13.0072266 L22.8543457,13.0072266 L22.8543457,8.07744141 L14.545459,8.07744141 L14.545459,15.4605469 L21.7434082,15.4605469 L21.7434082,22.1956055 L14.545459,22.1956055 L14.545459,29.7870117 L18.248584,29.7870117 L18.248584,36.1286133 L3.2277832,36.1286133 L3.2277832,29.7870117 L6.86147461,29.7870117 L6.86147461,8.07744141 L3.2277832,8.07744141 L3.2277832,1.04150391 Z M32.9916504,1.04150391 L51.5535645,1.04150391 C53.3588469,1.04150391 54.9712331,1.31152074 56.3907715,1.8515625 C57.8103098,2.39160426 59.0060987,3.11293494 59.9781738,4.01557617 C60.950249,4.9182174 61.694724,5.96742566 62.2116211,7.16323242 C62.7285182,8.35903918 62.9869629,9.60497399 62.9869629,10.9010742 C62.9869629,12.0891661 62.8596692,13.1306596 62.6050781,14.0255859 C62.350487,14.9205123 61.9801782,15.7151332 61.4941406,16.4094727 C61.008103,17.1038121 60.4102086,17.717136 59.7004395,18.2494629 C58.9906703,18.7817898 58.1806198,19.2639627 57.2702637,19.6959961 C58.0571817,20.09717 58.7515107,20.7104939 59.3532715,21.5359863 C59.8690665,22.2435512 60.277163,23.1296488 60.5775696,24.1942992 L61.8991699,29.3009766 L64.7922363,29.3009766 L64.8385254,36.1286133 L54.6549316,36.1286133 L53.2662598,27.796582 C53.1273919,26.8090771 52.9152358,25.9565954 52.6297852,25.2391113 C52.3443345,24.5216273 51.9624536,23.935305 51.4841309,23.480127 C51.0058082,23.0249489 50.4233433,22.6893565 49.7367188,22.4733398 C49.0500942,22.2573231 48.2361863,22.1493164 47.2949707,22.1493164 L44.3093262,22.1493164 L44.3093262,29.7870117 L47.526416,29.7870117 L47.526416,36.1286133 L32.9916504,36.1286133 L32.9916504,29.7870117 L36.6253418,29.7870117 L36.6253418,7.40625 L32.9916504,7.40625 L32.9916504,1.04150391 Z M44.3093262,7.40625 L44.3093262,15.900293 L48.9150879,15.900293 C49.7945845,15.900293 50.5853481,15.8192879 51.2874023,15.6572754 C51.9894566,15.4952629 52.5912084,15.2406756 53.0926758,14.8935059 C53.5941431,14.5463362 53.9798815,14.1104518 54.2499023,13.5858398 C54.5199232,13.0612278 54.6549316,12.4363318 54.6549316,11.7111328 C54.6549316,10.3533135 54.1689013,9.2963905 53.1968262,8.54033203 C52.224751,7.78427356 50.7975192,7.40625 48.9150879,7.40625 L44.3093262,7.40625 Z M68.4027832,1.04150391 L96.3150879,1.04150391 L96.3150879,13.0072266 L88.7699707,13.0072266 L88.7699707,8.03115234 L79.766748,8.03115234 L79.766748,14.9513672 L86.733252,14.9513672 L86.733252,21.6632812 L79.766748,21.6632812 L79.766748,29.7870117 L88.7699707,29.7870117 L88.7699707,23.5611328 L96.3150879,23.5611328 L96.3150879,36.1286133 L68.4027832,36.1286133 L68.4027832,29.7870117 L72.0827637,29.7870117 L72.0827637,8.03115234 L68.4027832,8.03115234 L68.4027832,1.04150391 Z M117.2146,10.9242188 C117.137451,10.384177 116.948439,9.87500239 116.647559,9.39667969 C116.346678,8.91835698 115.96094,8.50561697 115.490332,8.15844727 C115.019724,7.81127756 114.487405,7.53740335 113.893359,7.33681641 C113.299313,7.13622947 112.678275,7.0359375 112.030225,7.0359375 C111.443894,7.0359375 110.896145,7.09765563 110.386963,7.22109375 C109.877781,7.34453187 109.434182,7.53354365 109.056152,7.78813477 C108.678123,8.04272588 108.377247,8.37060346 108.153516,8.77177734 C107.929784,9.17295122 107.81792,9.65126675 107.81792,10.2067383 C107.81792,10.9010777 107.968358,11.4526835 108.269238,11.8615723 C108.570119,12.270461 108.955857,12.6060534 109.426465,12.8683594 C109.897073,13.1306654 110.417819,13.3389641 110.988721,13.4932617 C111.559622,13.6475594 112.115085,13.8172842 112.655127,14.0024414 L119.019873,16.1317383 C119.89937,16.4403336 120.72485,16.8646457 121.496338,17.4046875 C122.267826,17.9447293 122.935153,18.6004844 123.49834,19.3719727 C124.061526,20.1434609 124.505125,21.030659 124.82915,22.0335938 C125.153175,23.0365285 125.315186,24.1628844 125.315186,25.4126953 C125.315186,27.1099694 125.002737,28.6606375 124.377832,30.0647461 C123.752927,31.4688547 122.877301,32.6723583 121.750928,33.675293 C120.624555,34.6782277 119.274471,35.4574191 117.700635,36.0128906 C116.126799,36.5683622 114.383262,36.8460938 112.469971,36.8460938 C111.127581,36.8460938 109.858502,36.6956558 108.662695,36.3947754 C107.466889,36.093895 106.375249,35.6580107 105.387744,35.0871094 C104.400239,34.5162081 103.536185,33.8334512 102.795557,33.0388184 C102.054928,32.2441855 101.47632,31.3454152 101.059717,30.3424805 L98.6758301,30.3424805 L98.6758301,23.3759766 L107.05415,23.3759766 L107.05415,24.8109375 C107.05415,25.5052769 107.166015,26.1456025 107.389746,26.7319336 C107.613478,27.3182647 107.94907,27.8274392 108.396533,28.2594727 C108.843996,28.6915061 109.407174,29.0270984 110.086084,29.2662598 C110.764994,29.5054211 111.559615,29.625 112.469971,29.625 C113.85865,29.625 114.915573,29.3048372 115.640771,28.664502 C116.36597,28.0241667 116.728564,27.1331112 116.728564,25.9913086 C116.728564,25.4049775 116.601271,24.9150899 116.34668,24.5216309 C116.092089,24.1281719 115.764211,23.7964369 115.363037,23.526416 C114.961863,23.2563951 114.514407,23.0288095 114.020654,22.8436523 C113.526902,22.6584952 113.040872,22.4887703 112.562549,22.3344727 L107.262451,20.6217773 C106.259516,20.3131821 105.291313,19.8811551 104.357813,19.3256836 C103.424312,18.7702121 102.598832,18.0758831 101.881348,17.2426758 C101.163864,16.4094685 100.592971,15.4335505 100.168652,14.3148926 C99.7443338,13.1962346 99.5321777,11.9194408 99.5321777,10.4844727 C99.5321777,8.81805807 99.8407684,7.3329655 100.457959,6.02915039 C101.07515,4.72533528 101.939203,3.62598104 103.050146,2.73105469 C104.16109,1.83612834 105.480315,1.15722888 107.007861,0.694335938 C108.535408,0.231442998 110.209512,1.0658141e-14 112.030225,1.0658141e-14 C113.465193,1.0658141e-14 114.792133,0.165867482 116.011084,0.497607422 C117.230035,0.829347362 118.321675,1.27294644 119.286035,1.82841797 C120.250395,2.3838895 121.068161,3.02035774 121.739355,3.7378418 C122.41055,4.45532585 122.923582,5.19980083 123.278467,5.97128906 L125.59292,5.97128906 L125.59292,12.9609375 L117.2146,12.9609375 L117.2146,10.9242188 Z M152.648877,1.04150391 L167.692822,1.04150391 L167.692822,7.40625 L163.989697,7.40625 L163.989697,29.7870117 L167.692822,29.7870117 L167.692822,36.1286133 L152.648877,36.1286133 L152.648877,29.7870117 L156.305713,29.7870117 L156.305713,20.8069336 L140.474854,20.8069336 L140.474854,29.7870117 L144.177979,29.7870117 L144.177979,36.1286133 L129.157178,36.1286133 L129.157178,29.7870117 L132.790869,29.7870117 L132.790869,7.40625 L129.157178,7.40625 L129.157178,1.04150391 L144.177979,1.04150391 L144.177979,7.40625 L140.474854,7.40625 L140.474854,14.6967773 L156.305713,14.6967773 L156.305713,7.40625 L152.648877,7.40625 L152.648877,1.04150391 Z M172.900342,1.04150391 L187.921143,1.04150391 L187.921143,7.40625 L184.218018,7.40625 L184.218018,29.7870117 L191.855713,29.7870117 C192.0563,29.7870117 192.253026,29.729151 192.445898,29.6134277 C192.63877,29.4977045 192.808495,29.3472666 192.955078,29.1621094 C193.101661,28.9769522 193.22124,28.7763683 193.313818,28.5603516 C193.406397,28.3443349 193.452686,28.1360362 193.452686,27.9354492 L193.452686,23.2371094 L200.951514,23.2371094 L200.951514,36.1286133 L172.900342,36.1286133 L172.900342,29.7870117 L176.534033,29.7870117 L176.534033,7.40625 L172.900342,7.40625 L172.900342,1.04150391 Z M202.525342,1.04150391 L217.546143,1.04150391 L217.546143,7.40625 L214.606787,7.40625 L219.305127,15.4605469 L224.281201,7.40625 L220.925244,7.40625 L220.925244,1.04150391 L235.946045,1.04150391 L235.946045,7.40625 L233.353857,7.40625 L222.915674,21.5707031 L222.915674,29.7870117 L227.174268,29.7870117 L227.174268,36.1286133 L211.528564,36.1286133 L211.528564,29.7870117 L215.416846,29.7870117 L215.416846,21.478125 L205.603564,7.40625 L202.525342,7.40625 L202.525342,1.04150391 Z" id="FRESHLY" fill="#EDB700" fill-rule="nonzero"></path>
                <path d="M453.570345,29.7870117 L457.157747,29.7870117 L457.157747,7.40625 L453.570345,7.40625 L453.570345,0.995214844 L470.674154,1.04150391 C472.263419,1.04150391 473.717653,1.32309289 475.036898,1.8862793 C476.356143,2.44946571 477.494071,3.2132276 478.450716,4.17758789 C479.407362,5.14194818 480.151837,6.2683041 480.684163,7.55668945 C481.21649,8.8450748 481.48265,10.2144459 481.48265,11.6648438 C481.48265,13.3621179 481.185631,14.7662054 480.591585,15.8771484 C479.997539,16.9880915 479.152772,17.8830044 478.057259,18.5619141 C479.214491,19.3025428 480.128691,20.2167426 480.799886,21.304541 C481.471081,22.3923394 481.806673,23.7154219 481.806673,25.2738281 C481.806673,26.8630939 481.532799,28.3211848 480.985042,29.6481445 C480.437286,30.9751043 479.688953,32.1207471 478.740023,33.0851074 C477.791092,34.0494677 476.668594,34.7978001 475.372493,35.330127 C474.076393,35.8624538 472.680021,36.1286133 471.183333,36.1286133 L453.570345,36.1286133 L453.570345,29.7870117 Z M464.841732,21.6169922 L464.841732,29.7870117 L470.674154,29.7870117 C471.121617,29.7870117 471.542072,29.6712902 471.935531,29.4398438 C472.32899,29.2083973 472.668439,28.903664 472.95389,28.5256348 C473.239341,28.1476055 473.466926,27.7078638 473.636654,27.2063965 C473.806381,26.7049291 473.891243,26.1841824 473.891243,25.6441406 C473.891243,25.0732393 473.806381,24.5447778 473.636654,24.0587402 C473.466926,23.5727026 473.235483,23.1483905 472.942318,22.785791 C472.649152,22.4231915 472.305845,22.1377452 471.912386,21.9294434 C471.518927,21.7211415 471.106187,21.6169922 470.674154,21.6169922 L464.841732,21.6169922 Z M464.841732,7.40625 L464.841732,15.2753906 L470.35013,15.2753906 C470.782164,15.2753906 471.191046,15.1673839 471.57679,14.9513672 C471.962534,14.7353505 472.298127,14.4460467 472.583577,14.0834473 C472.869028,13.7208478 473.096614,13.3119652 473.266341,12.8567871 C473.436069,12.4016091 473.520931,11.9271509 473.520931,11.4333984 C473.520931,10.9550757 473.436069,10.4767602 473.266341,9.9984375 C473.096614,9.5201148 472.869028,9.08808787 472.583577,8.70234375 C472.298127,8.31659963 471.962534,8.00415159 471.57679,7.76499023 C471.191046,7.52582888 470.782164,7.40625 470.35013,7.40625 L464.841732,7.40625 Z M503.7014,29.7870117 L507.196224,29.7870117 L505.622396,24.7415039 L494.837044,24.7415039 L493.263216,29.7870117 L496.966341,29.7870117 L496.966341,36.1286133 L483.658236,36.1286133 L483.658236,29.7870117 L486.273568,29.7870117 L495.832259,1.04150391 L505.113216,1.04150391 L514.463607,29.7870117 L517.009505,29.7870117 L517.009505,36.1286133 L503.7014,36.1286133 L503.7014,29.7870117 Z M496.665462,18.8165039 L503.747689,18.8165039 L500.183431,7.40625 L496.665462,18.8165039 Z M520.157161,1.04150391 L535.177962,1.04150391 L535.177962,7.40625 L531.474837,7.40625 L531.474837,17.6129883 L542.699935,7.82285156 L542.699935,1.04150391 L554.665658,1.04150391 L554.665658,7.86914063 L552.050326,7.86914063 L540.362337,17.9138672 L551.56429,29.2546875 L554.411068,29.2546875 L554.411068,36.1286133 L542.769368,36.1286133 L542.769368,29.2546875 L531.474837,17.9601563 L531.474837,29.7870117 L535.177962,29.7870117 L535.177962,36.1286133 L520.157161,36.1286133 L520.157161,29.7870117 L523.790853,29.7870117 L523.790853,7.40625 L520.157161,7.40625 L520.157161,1.04150391 Z M586.373665,1.04150391 L586.373665,13.0072266 L578.828548,13.0072266 L578.828548,8.03115234 L569.825326,8.03115234 L569.825326,14.9513672 L576.791829,14.9513672 L576.791829,21.6632813 L569.825326,21.6632813 L569.825326,29.7870117 L578.828548,29.7870117 L578.828548,23.5611328 L586.373665,23.5611328 L586.373665,36.1286133 L558.461361,36.1286133 L558.461361,29.7870117 L562.141341,29.7870117 L562.141341,8.03115234 L558.461361,8.03115234 L558.461361,1.04150391 L586.373665,1.04150391 Z M603.153451,1.04150391 C604.758146,1.04150391 606.297242,1.2498026 607.770785,1.66640625 C609.244327,2.0830099 610.617555,2.66933216 611.890511,3.42539063 C613.163467,4.18144909 614.320682,5.08793417 615.362191,6.14487305 C616.4037,7.20181193 617.294755,8.37831383 618.035384,9.67441406 C618.776013,10.9705143 619.346906,12.366887 619.748079,13.8635742 C620.149253,15.3602614 620.349837,16.9186442 620.349837,18.5387695 C620.349837,20.1588948 620.149253,21.7172777 619.748079,23.2139648 C619.346906,24.710652 618.776013,26.1108822 618.035384,27.4146973 C617.294755,28.7185124 616.4037,29.9065864 615.362191,30.9789551 C614.320682,32.0513237 613.163467,32.9693809 611.890511,33.7331543 C610.617555,34.4969276 609.244327,35.0871073 607.770785,35.5037109 C606.297242,35.9203146 604.758146,36.1286133 603.153451,36.1286133 L589.683333,36.1286133 L589.683333,29.7870117 L592.483822,29.7870117 L592.483822,7.40625 L589.683333,7.40625 L589.683333,1.04150391 L603.153451,1.04150391 Z M603.107161,7.40625 L600.167806,7.40625 L600.167806,29.7870117 L603.107161,29.7870117 C604.356972,29.7870117 605.537332,29.4938506 606.648275,28.9075195 C607.759218,28.3211885 608.723564,27.5227101 609.541341,26.5120605 C610.359119,25.501411 611.007159,24.3133369 611.485482,22.9478027 C611.963804,21.5822686 612.202962,20.1126055 612.202962,18.5387695 C612.202962,16.9803633 611.963804,15.5222724 611.485482,14.1644531 C611.007159,12.8066338 610.359119,11.6262745 609.541341,10.6233398 C608.723564,9.62040514 607.759218,8.83349895 606.648275,8.26259766 C605.537332,7.69169636 604.356972,7.40625 603.107161,7.40625 L603.107161,7.40625 Z" id="BAKED" fill="#FCFCFC" fill-rule="nonzero"></path>
                <path d="M3.00875687,48.4047122 L17.287603,48.4047122 C18.8786824,48.4047122 20.3405497,48.6528896 21.6732486,49.149252 C23.0059476,49.6456144 24.1550432,50.3153536 25.1205701,51.1584897 C26.0860969,52.0016257 26.8408283,52.9739374 27.3847871,54.0754539 C27.9287459,55.1769704 28.2007212,56.3260661 28.2007212,57.5227754 C28.2007212,58.9642661 27.9865406,60.3139435 27.5581731,61.5718482 C27.1298056,62.8297528 26.4668658,63.9210537 25.5693338,64.8457836 C24.6718018,65.7705135 23.5363049,66.5014471 22.1628091,67.0386064 C20.7893132,67.5757657 19.1642608,67.8443413 17.287603,67.8443413 L12.9835508,67.8443413 L12.9835508,73.7394649 L15.8189217,73.7394649 L15.8189217,79.3286133 L3.00875687,79.3286133 L3.00875687,73.7394649 L6.21129808,73.7394649 L6.21129808,54.0142589 L3.00875687,54.0142589 L3.00875687,48.4047122 Z M12.9835508,54.0142589 L12.9835508,62.316388 L15.778125,62.316388 C17.3284075,62.316388 18.5590957,61.9900176 19.4702266,61.3372671 C20.3813576,60.6845166 20.8369162,59.6510105 20.8369162,58.2367177 C20.8369162,56.9176177 20.4085551,55.8841115 19.5518201,55.1361682 C18.695085,54.3882249 17.4371992,54.0142589 15.778125,54.0142589 L12.9835508,54.0142589 Z M31.5664492,48.4047122 L47.9259272,48.4047122 C49.5170066,48.4047122 50.9380775,48.6426906 52.1891827,49.1186545 C53.4402878,49.5946184 54.4941921,50.2303607 55.3509272,51.0259004 C56.2076623,51.8214401 56.8638027,52.7461561 57.3193681,53.8000762 C57.7749336,54.8539963 58.0027129,55.9520966 58.0027129,57.09441 C58.0027129,58.1415306 57.8905231,59.0594472 57.6661401,59.8481875 C57.4417571,60.6369277 57.1153868,61.3372641 56.6870192,61.9492177 C56.2586517,62.5611713 55.7316996,63.1017222 55.106147,63.5708866 C54.4805944,64.0400511 53.7666592,64.4650125 52.9643201,64.8457836 C53.6578675,65.1993568 54.2698119,65.7399077 54.8001717,66.4674526 C55.2421382,67.0737399 55.5943851,67.8287562 55.8569194,68.7325178 L57.0439904,73.3110995 L59.5937843,73.3110995 L59.634581,79.3286133 L50.6593063,79.3286133 L49.4354052,71.9852067 C49.3130145,71.1148727 49.1260315,70.3635409 48.8744505,69.7311888 C48.6228696,69.0988368 48.2863002,68.5820837 47.8647321,68.1809141 C47.4431641,67.7797445 46.9298107,67.4839714 46.3246566,67.2935858 C45.7195025,67.1032002 45.0021676,67.0080089 44.1726305,67.0080089 L41.5412431,67.0080089 L41.5412431,73.7394649 L44.376614,73.7394649 L44.376614,79.3286133 L31.5664492,79.3286133 L31.5664492,73.7394649 L34.7689904,73.7394649 L34.7689904,54.0142589 L31.5664492,54.0142589 L31.5664492,48.4047122 Z M41.5412431,54.0142589 L41.5412431,61.5004539 L45.6005151,61.5004539 C46.3756563,61.5004539 47.0725931,61.4290604 47.6913462,61.2862712 C48.3100992,61.1434821 48.8404511,60.9191024 49.2824176,60.6131256 C49.7243841,60.3071488 50.0643532,59.9229837 50.3023352,59.4606188 C50.5403171,58.9982538 50.6593063,58.4475038 50.6593063,57.8083523 C50.6593063,56.611643 50.2309452,55.6801276 49.3742102,55.0137781 C48.5174751,54.3474286 47.2595893,54.0142589 45.6005151,54.0142589 L41.5412431,54.0142589 Z M62.7759272,48.4047122 L87.3763393,48.4047122 L87.3763393,58.95066 L80.7264766,58.95066 L80.7264766,54.5650144 L72.7915179,54.5650144 L72.7915179,60.6641215 L78.9314217,60.6641215 L78.9314217,66.5796435 L72.7915179,66.5796435 L72.7915179,73.7394649 L80.7264766,73.7394649 L80.7264766,68.2523083 L87.3763393,68.2523083 L87.3763393,79.3286133 L62.7759272,79.3286133 L62.7759272,73.7394649 L66.0192651,73.7394649 L66.0192651,54.5650144 L62.7759272,54.5650144 L62.7759272,48.4047122 Z M90.9256525,48.4047122 L105.204499,48.4047122 C106.795578,48.4047122 108.257445,48.6528896 109.590144,49.149252 C110.922843,49.6456144 112.071939,50.3153536 113.037466,51.1584897 C114.002992,52.0016257 114.757724,52.9739374 115.301683,54.0754539 C115.845641,55.1769704 116.117617,56.3260661 116.117617,57.5227754 C116.117617,58.9642661 115.903436,60.3139435 115.475069,61.5718482 C115.046701,62.8297528 114.383761,63.9210537 113.486229,64.8457836 C112.588697,65.7705135 111.453201,66.5014471 110.079705,67.0386064 C108.706209,67.5757657 107.081156,67.8443413 105.204499,67.8443413 L100.900446,67.8443413 L100.900446,73.7394649 L103.735817,73.7394649 L103.735817,79.3286133 L90.9256525,79.3286133 L90.9256525,73.7394649 L94.1281937,73.7394649 L94.1281937,54.0142589 L90.9256525,54.0142589 L90.9256525,48.4047122 Z M100.900446,54.0142589 L100.900446,62.316388 L103.695021,62.316388 C105.245303,62.316388 106.475991,61.9900176 107.387122,61.3372671 C108.298253,60.6845166 108.753812,59.6510105 108.753812,58.2367177 C108.753812,56.9176177 108.325451,55.8841115 107.468716,55.1361682 C106.611981,54.3882249 105.354095,54.0142589 103.695021,54.0142589 L100.900446,54.0142589 Z M135.394059,73.7394649 L138.47421,73.7394649 L137.087122,69.2926243 L127.58149,69.2926243 L126.194402,73.7394649 L129.458139,73.7394649 L129.458139,79.3286133 L117.729087,79.3286133 L117.729087,73.7394649 L120.0341,73.7394649 L128.45862,48.4047122 L136.638359,48.4047122 L144.879293,73.7394649 L147.123111,73.7394649 L147.123111,79.3286133 L135.394059,79.3286133 L135.394059,73.7394649 Z M129.19296,64.0706462 L135.434856,64.0706462 L132.29351,54.0142589 L129.19296,64.0706462 Z M149.897287,48.4047122 L166.256765,48.4047122 C167.847844,48.4047122 169.268915,48.6426906 170.520021,49.1186545 C171.771126,49.5946184 172.82503,50.2303607 173.681765,51.0259004 C174.5385,51.8214401 175.194641,52.7461561 175.650206,53.8000762 C176.105772,54.8539963 176.333551,55.9520966 176.333551,57.09441 C176.333551,58.1415306 176.221361,59.0594472 175.996978,59.8481875 C175.772595,60.6369277 175.446225,61.3372641 175.017857,61.9492177 C174.58949,62.5611713 174.062537,63.1017222 173.436985,63.5708866 C172.811432,64.0400511 172.097497,64.4650125 171.295158,64.8457836 C171.988705,65.1993568 172.60065,65.7399077 173.13101,66.4674526 C173.572976,67.0737399 173.925223,67.8287562 174.187757,68.7325178 L175.374828,73.3110995 L177.924622,73.3110995 L177.965419,79.3286133 L168.990144,79.3286133 L167.766243,71.9852067 C167.643852,71.1148727 167.456869,70.3635409 167.205288,69.7311888 C166.953708,69.0988368 166.617138,68.5820837 166.19557,68.1809141 C165.774002,67.7797445 165.260649,67.4839714 164.655495,67.2935858 C164.05034,67.1032002 163.333006,67.0080089 162.503468,67.0080089 L159.872081,67.0080089 L159.872081,73.7394649 L162.707452,73.7394649 L162.707452,79.3286133 L149.897287,79.3286133 L149.897287,73.7394649 L153.099828,73.7394649 L153.099828,54.0142589 L149.897287,54.0142589 L149.897287,48.4047122 Z M159.872081,54.0142589 L159.872081,61.5004539 L163.931353,61.5004539 C164.706494,61.5004539 165.403431,61.4290604 166.022184,61.2862712 C166.640937,61.1434821 167.171289,60.9191024 167.613255,60.6131256 C168.055222,60.3071488 168.395191,59.9229837 168.633173,59.4606188 C168.871155,58.9982538 168.990144,58.4475038 168.990144,57.8083523 C168.990144,56.611643 168.561783,55.6801276 167.705048,55.0137781 C166.848313,54.3474286 165.590427,54.0142589 163.931353,54.0142589 L159.872081,54.0142589 Z M205.707177,48.4047122 L205.707177,58.95066 L199.057315,58.95066 L199.057315,54.5650144 L191.122356,54.5650144 L191.122356,60.6641215 L197.26226,60.6641215 L197.26226,66.5796435 L191.122356,66.5796435 L191.122356,73.7394649 L199.057315,73.7394649 L199.057315,68.2523083 L205.707177,68.2523083 L205.707177,79.3286133 L181.106765,79.3286133 L181.106765,73.7394649 L184.350103,73.7394649 L184.350103,54.5650144 L181.106765,54.5650144 L181.106765,48.4047122 L205.707177,48.4047122 Z M220.495982,48.4047122 C221.910275,48.4047122 223.266752,48.5882955 224.565453,48.9554677 C225.864155,49.3226398 227.074445,49.8393929 228.19636,50.5057424 C229.318275,51.1720919 230.338182,51.9710193 231.256113,52.9025487 C232.174043,53.8340781 232.959372,54.8709839 233.612122,56.0132973 C234.264873,57.1556108 234.768027,58.386299 235.1216,59.705399 C235.475173,61.024499 235.651957,62.3979743 235.651957,63.825866 C235.651957,65.2537578 235.475173,66.6272331 235.1216,67.9463331 C234.768027,69.2654331 234.264873,70.499521 233.612122,71.6486339 C232.959372,72.7977468 232.174043,73.8448517 231.256113,74.78998 C230.338182,75.7351084 229.318275,76.5442349 228.19636,77.2173839 C227.074445,77.8905329 225.864155,78.4106856 224.565453,78.7778578 C223.266752,79.14503 221.910275,79.3286133 220.495982,79.3286133 L208.624141,79.3286133 L208.624141,73.7394649 L211.092342,73.7394649 L211.092342,54.0142589 L208.624141,54.0142589 L208.624141,48.4047122 L220.495982,48.4047122 Z M220.455185,54.0142589 L217.864595,54.0142589 L217.864595,73.7394649 L220.455185,73.7394649 C221.556702,73.7394649 222.597007,73.4810884 223.576133,72.9643276 C224.555259,72.4475667 225.405182,71.7438306 226.125927,70.8530982 C226.846673,69.9623657 227.417821,68.9152608 227.839389,67.711752 C228.260957,66.5082433 228.471738,65.2129609 228.471738,63.825866 C228.471738,62.4523702 228.260957,61.1672868 227.839389,59.9705776 C227.417821,58.7738683 226.846673,57.7335628 226.125927,56.8496298 C225.405182,55.9656968 224.555259,55.2721598 223.576133,54.7689979 C222.597007,54.265836 221.556702,54.0142589 220.455185,54.0142589 L220.455185,54.0142589 Z" id="PREPARED" fill="#FFFFFF" fill-rule="nonzero"></path>
                <path d="M452.852396,54.9461133 L463.804271,54.9461133 L463.804271,59.5698633 L461.104271,59.5698633 L461.104271,75.9048633 L463.804271,75.9048633 L463.804271,80.5286133 L452.852396,80.5286133 L452.852396,75.9048633 L455.501771,75.9048633 L455.501771,59.5698633 L452.852396,59.5698633 L452.852396,54.9461133 Z M482.687396,54.9461133 L492.407396,54.9461133 L492.407396,59.5867383 L490.331771,59.5867383 L490.331771,80.5286133 L484.729271,80.5286133 L474.081146,63.9911133 L474.081146,75.9048633 L476.224271,75.9048633 L476.224271,80.5286133 L466.521146,80.5286133 L466.521146,75.9048633 L468.630521,75.9048633 L468.630521,59.5867383 L466.554896,59.5867383 L466.554896,54.9461133 L474.283646,54.9461133 L484.864271,71.7029883 L484.864271,59.5867383 L482.687396,59.5867383 L482.687396,54.9461133 Z M514.395521,62.1517383 C514.339271,61.7579863 514.201459,61.3867383 513.982083,61.0379883 C513.762707,60.6892365 513.48146,60.388302 513.138333,60.1351758 C512.795207,59.8820495 512.407085,59.682364 511.973958,59.5361133 C511.540831,59.3898626 511.088023,59.3167383 510.615521,59.3167383 C510.188019,59.3167383 509.788648,59.3617378 509.417396,59.4517383 C509.046144,59.5417387 508.72271,59.6795499 508.447083,59.8651758 C508.171457,60.0508017 507.952084,60.2898618 507.788958,60.5823633 C507.625833,60.8748647 507.544271,61.2236113 507.544271,61.6286133 C507.544271,62.1348658 507.653957,62.5370493 507.873333,62.8351758 C508.092709,63.1333023 508.373957,63.3779873 508.717083,63.5692383 C509.06021,63.7604892 509.439894,63.9123627 509.856146,64.0248633 C510.272398,64.1373638 510.677394,64.2611126 511.071146,64.3961133 L515.711771,65.9486133 C516.353024,66.1736144 516.954893,66.4829863 517.517396,66.8767383 C518.079899,67.2704903 518.566456,67.7486105 518.977083,68.3111133 C519.38771,68.8736161 519.711145,69.5204846 519.947396,70.2517383 C520.183647,70.9829919 520.301771,71.8042337 520.301771,72.7154883 C520.301771,73.9529945 520.073961,75.0836082 519.618333,76.1073633 C519.162706,77.1311184 518.524275,78.0086096 517.703021,78.7398633 C516.881767,79.4711169 515.897402,80.0392363 514.749896,80.4442383 C513.60239,80.8492403 512.331153,81.0517383 510.936146,81.0517383 C509.957391,81.0517383 509.032088,80.9420519 508.160208,80.7226758 C507.288329,80.5032997 506.492399,80.1854904 505.772396,79.7692383 C505.052392,79.3529862 504.422399,78.8551787 503.882396,78.2758008 C503.342393,77.6964229 502.920522,77.0411169 502.616771,76.3098633 L500.878646,76.3098633 L500.878646,71.2304883 L506.987396,71.2304883 L506.987396,72.2767383 C506.987396,72.7829908 507.068958,73.2498611 507.232083,73.6773633 C507.395209,74.1048654 507.639894,74.4761117 507.966146,74.7911133 C508.292397,75.1061149 508.703018,75.3507999 509.198021,75.5251758 C509.693023,75.6995517 510.272393,75.7867383 510.936146,75.7867383 C511.948651,75.7867383 512.719268,75.5533031 513.248021,75.0864258 C513.776773,74.6195484 514.041146,73.9698674 514.041146,73.1373633 C514.041146,72.7098611 513.948334,72.3526772 513.762708,72.0658008 C513.577082,71.7789243 513.338022,71.5370518 513.045521,71.3401758 C512.753019,71.1432998 512.426773,70.977364 512.066771,70.8423633 C511.706769,70.7073626 511.352398,70.5836138 511.003646,70.4711133 L507.139271,69.2223633 C506.408017,68.9973622 505.702087,68.6823653 505.021458,68.2773633 C504.34083,67.8723613 503.738961,67.3661163 503.215833,66.7586133 C502.692706,66.1511102 502.27646,65.4395549 501.967083,64.6239258 C501.657707,63.8082967 501.503021,62.8773685 501.503021,61.8311133 C501.503021,60.6161072 501.728019,59.5333055 502.178021,58.5826758 C502.628023,57.632046 503.258017,56.8304915 504.068021,56.1779883 C504.878025,55.525485 505.83989,55.03049 506.953646,54.6929883 C508.067401,54.3554866 509.288014,54.1867383 510.615521,54.1867383 C511.661776,54.1867383 512.629266,54.3076746 513.518021,54.5495508 C514.406775,54.791427 515.202705,55.1148613 515.905833,55.5198633 C516.608962,55.9248653 517.205206,56.3889232 517.694583,56.9120508 C518.183961,57.4351784 518.55802,57.9779855 518.816771,58.5404883 L520.504271,58.5404883 L520.504271,63.6367383 L514.395521,63.6367383 L514.395521,62.1517383 Z M527.490521,75.9048633 L530.139896,75.9048633 L530.139896,59.4179883 L527.034896,59.4179883 L527.034896,62.7254883 L521.533646,62.7254883 L521.533646,54.9461133 L544.804271,54.9461133 L544.804271,62.7254883 L539.269271,62.7254883 L539.269271,59.4179883 L535.742396,59.4179883 L535.742396,75.9048633 L538.442396,75.9048633 L538.442396,80.5286133 L527.490521,80.5286133 L527.490521,75.9048633 Z M558.810521,80.9842383 C557.651765,80.9842383 556.543651,80.8267399 555.486146,80.5117383 C554.428641,80.1967367 553.441463,79.7523662 552.524583,79.1786133 C551.607704,78.6048604 550.775212,77.9158048 550.027083,77.1114258 C549.278955,76.3070468 548.640523,75.4126807 548.111771,74.4283008 C547.583018,73.4439209 547.172397,72.3892439 546.879896,71.2642383 C546.587394,70.1392327 546.441146,68.9636194 546.441146,67.7373633 C546.441146,66.5111072 546.587394,65.3326814 546.879896,64.2020508 C547.172397,63.0714201 547.583018,62.0139307 548.111771,61.0295508 C548.640523,60.0451709 549.278955,59.1508048 550.027083,58.3464258 C550.775212,57.5420468 551.607704,56.8529912 552.524583,56.2792383 C553.441463,55.7054854 554.428641,55.2611149 555.486146,54.9461133 C556.543651,54.6311117 557.651765,54.4736133 558.810521,54.4736133 C559.969277,54.4736133 561.080203,54.6311117 562.143333,54.9461133 C563.206464,55.2611149 564.196454,55.7054854 565.113333,56.2792383 C566.030213,56.8529912 566.862705,57.5420468 567.610833,58.3464258 C568.358962,59.1508048 569.000206,60.0451709 569.534583,61.0295508 C570.068961,62.0139307 570.482394,63.0714201 570.774896,64.2020508 C571.067397,65.3326814 571.213646,66.5111072 571.213646,67.7373633 C571.213646,68.9523694 571.067397,70.1251701 570.774896,71.2558008 C570.482394,72.3864314 570.068961,73.4439209 569.534583,74.4283008 C569.000206,75.4126807 568.358962,76.3070468 567.610833,77.1114258 C566.862705,77.9158048 566.030213,78.6048604 565.113333,79.1786133 C564.196454,79.7523662 563.206464,80.1967367 562.143333,80.5117383 C561.080203,80.8267399 559.969277,80.9842383 558.810521,80.9842383 Z M558.810521,75.6854883 C559.789276,75.6854883 560.686454,75.4745529 561.502083,75.0526758 C562.317712,74.6307987 563.018018,74.0570544 563.603021,73.3314258 C564.188024,72.6057972 564.640832,71.7620556 564.961458,70.8001758 C565.282085,69.838296 565.442396,68.8173687 565.442396,67.7373633 C565.442396,66.6461078 565.279272,65.6167431 564.953021,64.6492383 C564.626769,63.6817334 564.168336,62.8351794 563.577708,62.1095508 C562.98708,61.3839222 562.286775,60.8101779 561.476771,60.3883008 C560.666767,59.9664237 559.778026,59.7554883 558.810521,59.7554883 C557.843016,59.7554883 556.954275,59.9664237 556.144271,60.3883008 C555.334267,60.8101779 554.636774,61.3839222 554.051771,62.1095508 C553.466768,62.8351794 553.008335,63.6817334 552.676458,64.6492383 C552.344582,65.6167431 552.178646,66.6461078 552.178646,67.7373633 C552.178646,68.8173687 552.344582,69.838296 552.676458,70.8001758 C553.008335,71.7620556 553.466768,72.6057972 554.051771,73.3314258 C554.636774,74.0570544 555.334267,74.6307987 556.144271,75.0526758 C556.954275,75.4745529 557.843016,75.6854883 558.810521,75.6854883 Z M574.571771,54.9461133 L588.105521,54.9461133 C589.421777,54.9461133 590.597391,55.1429863 591.632396,55.5367383 C592.667401,55.9304903 593.539267,56.4564225 594.248021,57.1145508 C594.956774,57.7726791 595.499581,58.5376714 595.876458,59.4095508 C596.253335,60.2814301 596.441771,61.1898586 596.441771,62.1348633 C596.441771,63.0011176 596.348959,63.760485 596.163333,64.4129883 C595.977707,65.0654915 595.70771,65.6448608 595.353333,66.1511133 C594.998957,66.6573658 594.563023,67.1045488 594.045521,67.4926758 C593.528018,67.8808027 592.937399,68.2323617 592.273646,68.5473633 C592.847399,68.8398647 593.353644,69.2870478 593.792396,69.8889258 C594.231148,70.4908038 594.56302,71.2698585 594.788021,72.2261133 L595.648646,75.5504883 L597.758021,75.5504883 L597.791771,80.5286133 L590.366771,80.5286133 L589.354271,74.4536133 C589.25302,73.7336097 589.098334,73.1120534 588.890208,72.5889258 C588.682082,72.0657982 588.403648,71.6383024 588.054896,71.3064258 C587.706144,70.9745491 587.281461,70.7298641 586.780833,70.5723633 C586.280206,70.4148625 585.686774,70.3361133 585.000521,70.3361133 L582.823646,70.3361133 L582.823646,75.9048633 L585.169271,75.9048633 L585.169271,80.5286133 L574.571771,80.5286133 L574.571771,75.9048633 L577.221146,75.9048633 L577.221146,59.5867383 L574.571771,59.5867383 L574.571771,54.9461133 Z M582.823646,59.5867383 L582.823646,65.7798633 L586.181771,65.7798633 C586.823024,65.7798633 587.399581,65.7208014 587.911458,65.6026758 C588.423336,65.4845502 588.862082,65.298927 589.227708,65.0458008 C589.593335,64.7926745 589.874582,64.4748652 590.071458,64.0923633 C590.268334,63.7098614 590.366771,63.2542409 590.366771,62.7254883 C590.366771,61.7354833 590.012399,60.964866 589.303646,60.4136133 C588.594892,59.8623605 587.554278,59.5867383 586.181771,59.5867383 L582.823646,59.5867383 Z M600.390521,54.9461133 L620.741771,54.9461133 L620.741771,63.6704883 L615.240521,63.6704883 L615.240521,60.0423633 L608.676146,60.0423633 L608.676146,65.0879883 L613.755521,65.0879883 L613.755521,69.9817383 L608.676146,69.9817383 L608.676146,75.9048633 L615.240521,75.9048633 L615.240521,71.3654883 L620.741771,71.3654883 L620.741771,80.5286133 L600.390521,80.5286133 L600.390521,75.9048633 L603.073646,75.9048633 L603.073646,60.0423633 L600.390521,60.0423633 L600.390521,54.9461133 Z" id="INSTORE" fill="#EDB700" fill-rule="nonzero"></path>
                <polygon id="Fill-7-Copy" fill="#FCFCFC" points="5.68434189e-14 98.5286133 624 98.5286133 624 96.1286133 5.68434189e-14 96.1286133"></polygon>
                <path d="M98.8388672,142.587012 L102.333691,142.587012 L100.759863,137.541504 L89.9745117,137.541504 L88.4006836,142.587012 L92.1038086,142.587012 L92.1038086,148.928613 L78.7957031,148.928613 L78.7957031,142.587012 L81.4110352,142.587012 L90.9697266,113.841504 L100.250684,113.841504 L109.601074,142.587012 L112.146973,142.587012 L112.146973,148.928613 L98.8388672,148.928613 L98.8388672,142.587012 Z M91.8029297,131.616504 L98.8851563,131.616504 L95.3208984,120.20625 L91.8029297,131.616504 Z M114.044824,112.915723 L124.85332,112.915723 L124.85332,142.587012 L128.556445,142.587012 L128.556445,148.928613 L114.044824,148.928613 L114.044824,142.587012 L117.747949,142.587012 L117.747949,119.257324 L114.044824,119.257324 L114.044824,112.915723 Z M132.097559,112.915723 L142.906055,112.915723 L142.906055,142.587012 L146.60918,142.587012 L146.60918,148.928613 L132.097559,148.928613 L132.097559,142.587012 L135.800684,142.587012 L135.800684,119.257324 L132.097559,119.257324 L132.097559,112.915723 Z M169.175098,124.950879 L173.966016,124.950879 L173.966016,131.014746 L169.128809,131.014746 L169.08252,141.152051 C169.08252,141.738382 169.128808,142.21284 169.221387,142.575439 C169.313965,142.938039 169.448974,143.227343 169.626416,143.443359 C169.803858,143.659376 170.016014,143.805957 170.262891,143.883105 C170.509767,143.960254 170.795213,143.998828 171.119238,143.998828 C171.705569,143.998828 172.222459,143.940967 172.669922,143.825244 C173.117385,143.709521 173.564842,143.574512 174.012305,143.420215 L175.00752,147.887109 C174.220602,148.380862 173.344976,148.774315 172.380615,149.06748 C171.416255,149.360646 170.270612,149.507227 168.943652,149.507227 C168.002437,149.507227 167.103666,149.345216 166.247314,149.021191 C165.390963,148.697166 164.638773,148.207279 163.990723,147.551514 C163.342673,146.895749 162.825783,146.074126 162.440039,145.086621 C162.054295,144.099116 161.869141,142.949616 161.88457,141.638086 L161.954004,131.014746 L158.505469,131.014746 L158.505469,124.950879 L161.977148,124.950879 L162.023438,119.211035 L169.221387,115.785645 L169.175098,124.950879 Z M178.108887,112.915723 L188.917383,112.915723 L188.917383,127.172754 C189.827739,126.339547 190.826801,125.687649 191.9146,125.217041 C193.002398,124.746433 194.202044,124.511133 195.513574,124.511133 C198.39894,124.511133 200.605363,125.317326 202.13291,126.929736 C203.660457,128.542147 204.424219,130.899008 204.424219,134.000391 L204.424219,142.587012 L207.942188,142.587012 L207.942188,148.928613 L197.22627,148.928613 L197.22627,135.620508 C197.22627,134.278118 196.894535,133.221195 196.231055,132.449707 C195.567575,131.678219 194.711236,131.29248 193.662012,131.29248 C192.967672,131.29248 192.211625,131.48535 191.393848,131.871094 C190.57607,132.256838 189.75059,132.820016 188.917383,133.560645 L188.917383,142.587012 L192.435352,142.587012 L192.435352,148.928613 L178.108887,148.928613 L178.108887,142.587012 L181.812012,142.587012 L181.812012,119.257324 L178.108887,119.257324 L178.108887,112.915723 Z M232.475391,133.676367 L225.971777,133.676367 L225.971777,131.199902 C225.339157,131.199902 224.760549,131.242334 224.235938,131.327197 C223.711326,131.412061 223.252297,131.554784 222.858838,131.755371 C222.465379,131.955958 222.133644,132.23369 221.863623,132.588574 C221.593602,132.943459 221.40459,133.383201 221.296582,133.907813 L221.296582,142.587012 L226.180078,142.587012 L226.180078,148.928613 L210.534375,148.928613 L210.534375,142.587012 L214.121777,142.587012 L214.121777,131.29248 L210.580664,131.29248 L210.580664,124.950879 L221.250293,124.950879 L221.250293,126.64043 C221.929203,126.100388 222.692965,125.683791 223.541602,125.390625 C224.390239,125.097459 225.316011,124.950879 226.318945,124.950879 L228.396809,124.961165 L228.396809,124.961165 L231.028858,124.991382 C231.530321,124.995239 232.012498,124.997168 232.475391,124.997168 L232.475391,133.676367 Z M236.224805,136.847168 C236.224805,135.103605 236.54111,133.468074 237.17373,131.940527 C237.806351,130.412981 238.685834,129.078326 239.812207,127.936523 C240.93858,126.794721 242.280949,125.892093 243.839355,125.228613 C245.397762,124.565133 247.11044,124.233398 248.977441,124.233398 C250.844443,124.233398 252.560978,124.565133 254.1271,125.228613 C255.693221,125.892093 257.039447,126.794721 258.16582,127.936523 C259.292193,129.078326 260.167819,130.412981 260.792725,131.940527 C261.41763,133.468074 261.730078,135.103605 261.730078,136.847168 C261.730078,138.590731 261.425345,140.230119 260.815869,141.765381 C260.206393,143.300642 259.34234,144.643012 258.223682,145.792529 C257.105024,146.942047 255.762654,147.848532 254.196533,148.512012 C252.630412,149.175492 250.890732,149.507227 248.977441,149.507227 C247.048721,149.507227 245.301326,149.175492 243.735205,148.512012 C242.169084,147.848532 240.830572,146.945904 239.719629,145.804102 C238.608686,144.662299 237.748489,143.323787 237.139014,141.788525 C236.529538,140.253264 236.224805,138.606161 236.224805,136.847168 Z M243.14502,136.847168 C243.14502,137.757524 243.299315,138.594576 243.60791,139.35835 C243.916505,140.122123 244.33696,140.781736 244.869287,141.337207 C245.401614,141.892679 246.018795,142.324705 246.72085,142.633301 C247.422904,142.941896 248.175094,143.096191 248.977441,143.096191 C249.795219,143.096191 250.555123,142.945753 251.257178,142.644873 C251.959232,142.343993 252.568699,141.915823 253.085596,141.360352 C253.602493,140.80488 254.007518,140.145267 254.300684,139.381494 C254.593849,138.617721 254.74043,137.772954 254.74043,136.847168 C254.74043,135.890523 254.593849,135.026469 254.300684,134.25498 C254.007518,133.483492 253.602493,132.827737 253.085596,132.287695 C252.568699,131.747654 251.959232,131.334914 251.257178,131.049463 C250.555123,130.764012 249.795219,130.629004 248.977441,130.644434 C248.175094,130.629004 247.422904,130.764012 246.72085,131.049463 C246.018795,131.334914 245.401614,131.747654 244.869287,132.287695 C244.33696,132.827737 243.916505,133.483492 243.60791,134.25498 C243.299315,135.026469 243.14502,135.890523 243.14502,136.847168 Z M280.106836,124.950879 L291.447656,124.950879 L291.447656,142.587012 L294.340723,142.587012 L294.340723,148.928613 L284.180273,148.928613 L284.180273,146.891895 C283.362496,147.632523 282.405865,148.203416 281.310352,148.60459 C280.214838,149.005764 278.949617,149.206348 277.514648,149.206348 C276.187689,149.206348 274.937896,148.998049 273.765234,148.581445 C272.592572,148.164842 271.570366,147.536088 270.698584,146.695166 C269.826802,145.854244 269.140188,144.801178 268.638721,143.535938 C268.137253,142.270697 267.886523,140.781747 267.886523,139.069043 L267.886523,131.29248 L264.762012,131.29248 L264.762012,124.950879 L275.362207,124.950879 L275.362207,139.069043 C275.362207,140.673738 275.77109,141.873385 276.588867,142.668018 C277.406645,143.46265 278.471283,143.859961 279.782813,143.859961 C280.708598,143.859961 281.549508,143.574515 282.305566,143.003613 C283.061625,142.432712 283.609373,141.661235 283.948828,140.68916 L283.948828,131.29248 L280.106836,131.29248 L280.106836,124.950879 Z M315.656836,147.678809 C314.792769,148.172561 313.928715,148.52744 313.064648,148.743457 C312.200582,148.959474 311.321098,149.06748 310.426172,149.06748 C308.5746,149.06748 306.869637,148.751175 305.31123,148.118555 C303.752824,147.485934 302.406597,146.610308 301.27251,145.49165 C300.138422,144.372992 299.255081,143.04991 298.622461,141.522363 C297.989841,139.994817 297.673535,138.336142 297.673535,136.546289 C297.673535,134.864445 297.978268,133.27906 298.587744,131.790088 C299.19722,130.301116 300.049702,128.99732 301.145215,127.878662 C302.240728,126.760004 303.552238,125.876663 305.079785,125.228613 C306.607332,124.580563 308.266007,124.248828 310.055859,124.233398 C311.151373,124.248828 312.15815,124.36455 313.076221,124.580566 C313.994292,124.796583 314.854488,125.089744 315.656836,125.460059 L315.656836,124.950879 L322.669629,124.950879 L322.669629,147.933398 C322.669629,149.954698 322.322464,151.702092 321.628125,153.175635 C320.933786,154.649177 320.004156,155.86811 318.839209,156.832471 C317.674262,157.796831 316.32032,158.514304 314.777344,158.984912 C313.234367,159.45552 311.614266,159.69082 309.916992,159.69082 C307.818544,159.69082 305.87828,159.405374 304.096143,158.834473 C302.314005,158.263571 300.72862,157.492095 299.339941,156.52002 L302.233008,151.381934 C303.297662,152.060843 304.454877,152.59702 305.704687,152.990479 C306.954498,153.383938 308.343156,153.580664 309.870703,153.580664 C310.70391,153.580664 311.47153,153.488087 312.173584,153.30293 C312.875638,153.117773 313.485105,152.805324 314.002002,152.365576 C314.518899,151.925828 314.923924,151.335648 315.21709,150.59502 C315.461394,149.977829 315.603904,149.226709 315.644621,148.341644 L315.656836,147.678809 Z M310.657617,142.656445 C311.737701,142.656445 312.713619,142.382571 313.5854,141.834814 C314.457182,141.287058 315.147654,140.565727 315.656836,139.670801 L315.703125,133.838379 C315.178513,132.866304 314.46104,132.094827 313.550684,131.523926 C312.640327,130.953024 311.652837,130.659863 310.588184,130.644434 C309.832125,130.659863 309.091508,130.810301 308.366309,131.095752 C307.64111,131.381203 307.012356,131.786228 306.480029,132.31084 C305.947702,132.835452 305.527248,133.456491 305.218652,134.173975 C304.910057,134.891459 304.755762,135.689937 304.755762,136.569434 C304.755762,137.495219 304.910057,138.336129 305.218652,139.092188 C305.527248,139.848246 305.943845,140.488572 306.468457,141.013184 C306.993069,141.537796 307.614108,141.942821 308.331592,142.228271 C309.049076,142.513722 309.82441,142.656445 310.657617,142.656445 Z M327.298535,112.915723 L338.107031,112.915723 L338.107031,127.172754 C339.017387,126.339547 340.01645,125.687649 341.104248,125.217041 C342.192046,124.746433 343.391693,124.511133 344.703223,124.511133 C347.588589,124.511133 349.795012,125.317326 351.322559,126.929736 C352.850105,128.542147 353.613867,130.899008 353.613867,134.000391 L353.613867,142.587012 L357.131836,142.587012 L357.131836,148.928613 L346.415918,148.928613 L346.415918,135.620508 C346.415918,134.278118 346.084183,133.221195 345.420703,132.449707 C344.757223,131.678219 343.900884,131.29248 342.85166,131.29248 C342.157321,131.29248 341.401274,131.48535 340.583496,131.871094 C339.765719,132.256838 338.940239,132.820016 338.107031,133.560645 L338.107031,142.587012 L341.625,142.587012 L341.625,148.928613 L327.298535,148.928613 L327.298535,142.587012 L331.00166,142.587012 L331.00166,119.257324 L327.298535,119.257324 L327.298535,112.915723 Z M378.447949,124.950879 L383.238867,124.950879 L383.238867,131.014746 L378.40166,131.014746 L378.355371,141.152051 C378.355371,141.738382 378.40166,142.21284 378.494238,142.575439 C378.586817,142.938039 378.721825,143.227343 378.899268,143.443359 C379.07671,143.659376 379.288866,143.805957 379.535742,143.883105 C379.782618,143.960254 380.068065,143.998828 380.39209,143.998828 C380.978421,143.998828 381.49531,143.940967 381.942773,143.825244 C382.390237,143.709521 382.837693,143.574512 383.285156,143.420215 L384.280371,147.887109 C383.493453,148.380862 382.617827,148.774315 381.653467,149.06748 C380.689107,149.360646 379.543464,149.507227 378.216504,149.507227 C377.275288,149.507227 376.376518,149.345216 375.520166,149.021191 C374.663814,148.697166 373.911624,148.207279 373.263574,147.551514 C372.615524,146.895749 372.098635,146.074126 371.712891,145.086621 C371.327147,144.099116 371.141992,142.949616 371.157422,141.638086 L371.226855,131.014746 L367.77832,131.014746 L367.77832,124.950879 L371.25,124.950879 L371.296289,119.211035 L378.494238,115.785645 L378.447949,124.950879 Z M387.381738,112.915723 L398.190234,112.915723 L398.190234,127.172754 C399.10059,126.339547 400.099653,125.687649 401.187451,125.217041 C402.27525,124.746433 403.474896,124.511133 404.786426,124.511133 C407.671792,124.511133 409.878215,125.317326 411.405762,126.929736 C412.933308,128.542147 413.69707,130.899008 413.69707,134.000391 L413.69707,142.587012 L417.215039,142.587012 L417.215039,148.928613 L406.499121,148.928613 L406.499121,135.620508 C406.499121,134.278118 406.167386,133.221195 405.503906,132.449707 C404.840426,131.678219 403.984087,131.29248 402.934863,131.29248 C402.240524,131.29248 401.484477,131.48535 400.666699,131.871094 C399.848922,132.256838 399.023442,132.820016 398.190234,133.560645 L398.190234,142.587012 L401.708203,142.587012 L401.708203,148.928613 L387.381738,148.928613 L387.381738,142.587012 L391.084863,142.587012 L391.084863,119.257324 L387.381738,119.257324 L387.381738,112.915723 Z M426.218262,138.444141 L426.287695,139.161621 C426.457423,139.855961 426.746726,140.465427 427.155615,140.990039 C427.564504,141.514651 428.046677,141.954393 428.602148,142.309277 C429.15762,142.664162 429.774801,142.930321 430.453711,143.107764 C431.132621,143.285206 431.819235,143.373926 432.513574,143.373926 C433.207914,143.373926 433.867526,143.331495 434.492432,143.246631 C435.117337,143.161767 435.722946,143.046046 436.309277,142.899463 C436.895608,142.75288 437.466501,142.583155 438.021973,142.390283 C438.577444,142.197411 439.140622,141.99297 439.711523,141.776953 L442.257422,146.521582 C441.377925,147.061624 440.571732,147.520652 439.838818,147.898682 C439.105905,148.276711 438.369144,148.589159 437.628516,148.836035 C436.887887,149.082911 436.100981,149.264208 435.267773,149.379932 C434.434566,149.495655 433.462506,149.553516 432.351563,149.553516 C430.268544,149.553516 428.417,149.210209 426.796875,148.523584 C425.17675,147.836959 423.815093,146.90733 422.711865,145.734668 C421.608637,144.562006 420.767728,143.188777 420.189111,141.614941 C419.610495,140.041105 419.321191,138.374716 419.321191,136.615723 C419.321191,134.856729 419.625925,133.205769 420.2354,131.662793 C420.844876,130.119817 421.705073,128.77359 422.816016,127.624072 C423.926959,126.474555 425.253899,125.56807 426.796875,124.90459 C428.339851,124.24111 430.05253,123.909375 431.934961,123.909375 C433.817392,123.909375 435.487639,124.221823 436.945752,124.846729 C438.403865,125.471634 439.63437,126.335688 440.637305,127.438916 C441.640239,128.542144 442.411716,129.838225 442.951758,131.327197 C443.4918,132.81617 443.784961,134.416984 443.83125,136.129688 C443.877539,136.515432 443.904541,136.897313 443.912256,137.275342 C443.919971,137.653371 443.908399,138.042967 443.877539,138.444141 L426.218262,138.444141 Z M431.749805,129.695508 C430.885738,129.695508 430.148978,129.799657 429.539502,130.007959 C428.930026,130.216261 428.416994,130.501707 428.000391,130.864307 C427.583787,131.226906 427.252052,131.639646 427.005176,132.102539 C426.7583,132.565432 426.56543,133.051462 426.426563,133.560645 L436.448145,133.560645 C436.340136,133.036033 436.185841,132.542287 435.985254,132.079395 C435.784667,131.616502 435.506935,131.207619 435.152051,130.852734 C434.797166,130.49785 434.345852,130.216261 433.798096,130.007959 C433.250339,129.799657 432.567582,129.695508 431.749805,129.695508 Z M471.118652,112.915723 L481.603125,112.915723 L481.603125,142.587012 L486.27832,142.587012 L486.27832,148.928613 L474.474609,148.928613 L474.474609,148.002832 C473.641402,148.434865 472.78892,148.774315 471.917139,149.021191 C471.045357,149.268068 470.162016,149.391504 469.26709,149.391504 C467.430948,149.391504 465.745271,149.063626 464.21001,148.407861 C462.674748,147.752096 461.355523,146.853326 460.252295,145.711523 C459.149067,144.569721 458.28887,143.231209 457.67168,141.695947 C457.054489,140.160686 456.745898,138.513583 456.745898,136.75459 C456.745898,134.995597 457.050632,133.356209 457.660107,131.836377 C458.269583,130.316545 459.118207,128.993463 460.206006,127.86709 C461.293804,126.740717 462.5976,125.853519 464.117432,125.205469 C465.637263,124.557419 467.30751,124.233398 469.128223,124.233398 C470.131157,124.233398 471.072359,124.329833 471.951855,124.522705 C472.831352,124.715577 473.672262,124.989451 474.474609,125.344336 L474.474609,119.257324 L471.118652,119.257324 L471.118652,112.915723 Z M469.660547,143.003613 C470.678911,142.972754 471.600826,142.710452 472.426318,142.216699 C473.251811,141.722947 473.934568,141.074906 474.474609,140.272559 L474.474609,133.213477 C473.934568,132.395699 473.236381,131.759231 472.380029,131.304053 C471.523677,130.848875 470.617192,130.629004 469.660547,130.644434 C468.858199,130.629004 468.106009,130.76787 467.403955,131.061035 C466.701901,131.354201 466.084719,131.770798 465.552393,132.31084 C465.020066,132.850882 464.599611,133.498922 464.291016,134.25498 C463.98242,135.011039 463.828125,135.867378 463.828125,136.824023 C463.828125,137.765239 463.98242,138.617721 464.291016,139.381494 C464.599611,140.145267 465.020066,140.793308 465.552393,141.325635 C466.084719,141.857962 466.701901,142.262987 467.403955,142.540723 C468.106009,142.818458 468.858199,142.972754 469.660547,143.003613 Z M504.076465,147.63252 C503.536423,147.971974 503.042678,148.261278 502.595215,148.500439 C502.147752,148.739601 501.700295,148.93247 501.252832,149.079053 C500.805369,149.225635 500.342483,149.333642 499.86416,149.403076 C499.385837,149.47251 498.861233,149.507227 498.290332,149.507227 C496.855364,149.507227 495.570855,149.3105 494.436768,148.917041 C493.30268,148.523582 492.346049,147.983548 491.566846,147.296924 C490.787643,146.610299 490.189748,145.800249 489.773145,144.866748 C489.356541,143.933247 489.148242,142.918755 489.148242,141.823242 C489.148242,140.712299 489.360398,139.686235 489.784717,138.74502 C490.209035,137.803804 490.822359,136.997611 491.624707,136.326416 C492.427055,135.655221 493.410688,135.130617 494.575635,134.752588 C495.740582,134.374559 497.071379,134.185547 498.568066,134.185547 C499.66358,134.185547 500.662642,134.243408 501.565283,134.359131 C502.467924,134.474854 503.304977,134.617577 504.076465,134.787305 L504.076465,134.04668 C504.076465,133.444919 503.960743,132.924172 503.729297,132.484424 C503.49785,132.044676 503.17383,131.682082 502.757227,131.396631 C502.340623,131.11118 501.839163,130.902882 501.252832,130.771729 C500.666501,130.640576 500.026175,130.575 499.331836,130.575 C497.881438,130.575 496.604644,130.717723 495.501416,131.003174 C494.398188,131.288624 493.337407,131.701364 492.319043,132.241406 L490.097168,127.751367 C491.671004,126.671284 493.318107,125.845804 495.038525,125.274902 C496.758944,124.704001 498.583486,124.418555 500.512207,124.418555 C502.008894,124.418555 503.393695,124.584422 504.66665,124.916162 C505.939606,125.247902 507.031245,125.787936 507.941602,126.536279 C508.851958,127.284623 509.565574,128.260541 510.082471,129.464063 C510.599368,130.667584 510.857813,132.13339 510.857813,133.861523 L510.857813,142.587012 L514.074902,142.587012 L514.074902,148.928613 L504.076465,148.928613 L504.076465,147.63252 Z M498.799512,144.045117 C499.895025,144.045117 500.89023,143.867678 501.785156,143.512793 C502.680083,143.157908 503.443844,142.725881 504.076465,142.216699 L504.076465,139.161621 L498.521777,139.161621 C498.166893,139.161621 497.819728,139.215624 497.480273,139.323633 C497.140819,139.431641 496.836085,139.585936 496.566064,139.786523 C496.296044,139.98711 496.08003,140.233983 495.918018,140.527148 C495.756005,140.820314 495.675,141.159764 495.675,141.545508 C495.675,142.255277 495.933445,142.849314 496.450342,143.327637 C496.967239,143.805959 497.750288,144.045117 498.799512,144.045117 Z M518.287207,124.950879 L530.044629,124.950879 L530.044629,131.29248 L528.193066,131.29248 L531.641602,140.272559 L535.182715,131.29248 L533.122852,131.29248 L533.122852,124.950879 L544.880273,124.950879 L544.880273,131.29248 L542.264941,131.29248 L532.983984,153.488086 L537.103711,153.488086 L537.103711,159.829688 L522.221777,159.829688 L522.221777,153.488086 L526.410937,153.488086 L528.216211,148.928613 L520.717383,131.29248 L518.287207,131.29248 L518.287207,124.950879 Z" id="Allthroughtheday" fill="#FCFCFC" fill-rule="nonzero"></path>
            </g>
        </g>
    </g>
</svg>